%TF.GenerationSoftware,KiCad,Pcbnew,(5.99.0-1350-g7e4d255cd)*%
%TF.CreationDate,2020-04-19T23:06:08-06:00*%
%TF.ProjectId,generic-pcb,67656e65-7269-4632-9d70-63622e6b6963,rev?*%
%TF.SameCoordinates,PX5d42830PY292dfe0*%
%TF.FileFunction,Legend,Top*%
%TF.FilePolarity,Positive*%
%FSLAX46Y46*%
G04 Gerber Fmt 4.6, Leading zero omitted, Abs format (unit mm)*
G04 Created by KiCad (PCBNEW (5.99.0-1350-g7e4d255cd)) date 2020-04-19 23:06:08*
%MOMM*%
%LPD*%
G01*
G04 APERTURE LIST*
%ADD10C,0.200000*%
%ADD11C,0.150000*%
G04 APERTURE END LIST*
D10*
X96520000Y-16510000D02*
X96520000Y-13970000D01*
X86360000Y-92710000D02*
X86360000Y-19050000D01*
X60960000Y-19050000D02*
X60960000Y-92710000D01*
X40640000Y-92710000D02*
X40640000Y-19050000D01*
X15240000Y-19050000D02*
X15240000Y-92710000D01*
X5080000Y-13970000D02*
X5080000Y-17780000D01*
X91440000Y-13970000D02*
X5080000Y-13970000D01*
X96520000Y-13970000D02*
X91440000Y-13970000D01*
X60960000Y-19050000D02*
X63500000Y-19050000D01*
X86360000Y-19050000D02*
X88900000Y-19050000D01*
X40640000Y-19050000D02*
X43180000Y-19050000D01*
X15240000Y-19050000D02*
X17780000Y-19050000D01*
X86759142Y-8472714D02*
X87230857Y-8472714D01*
X86976857Y-8763000D01*
X87085714Y-8763000D01*
X87158285Y-8799285D01*
X87194571Y-8835571D01*
X87230857Y-8908142D01*
X87230857Y-9089571D01*
X87194571Y-9162142D01*
X87158285Y-9198428D01*
X87085714Y-9234714D01*
X86868000Y-9234714D01*
X86795428Y-9198428D01*
X86759142Y-9162142D01*
X87521142Y-8545285D02*
X87557428Y-8509000D01*
X87630000Y-8472714D01*
X87811428Y-8472714D01*
X87884000Y-8509000D01*
X87920285Y-8545285D01*
X87956571Y-8617857D01*
X87956571Y-8690428D01*
X87920285Y-8799285D01*
X87484857Y-9234714D01*
X87956571Y-9234714D01*
X81679142Y-8472714D02*
X82150857Y-8472714D01*
X81896857Y-8763000D01*
X82005714Y-8763000D01*
X82078285Y-8799285D01*
X82114571Y-8835571D01*
X82150857Y-8908142D01*
X82150857Y-9089571D01*
X82114571Y-9162142D01*
X82078285Y-9198428D01*
X82005714Y-9234714D01*
X81788000Y-9234714D01*
X81715428Y-9198428D01*
X81679142Y-9162142D01*
X82622571Y-8472714D02*
X82695142Y-8472714D01*
X82767714Y-8509000D01*
X82804000Y-8545285D01*
X82840285Y-8617857D01*
X82876571Y-8763000D01*
X82876571Y-8944428D01*
X82840285Y-9089571D01*
X82804000Y-9162142D01*
X82767714Y-9198428D01*
X82695142Y-9234714D01*
X82622571Y-9234714D01*
X82550000Y-9198428D01*
X82513714Y-9162142D01*
X82477428Y-9089571D01*
X82441142Y-8944428D01*
X82441142Y-8763000D01*
X82477428Y-8617857D01*
X82513714Y-8545285D01*
X82550000Y-8509000D01*
X82622571Y-8472714D01*
X76635428Y-8545285D02*
X76671714Y-8509000D01*
X76744285Y-8472714D01*
X76925714Y-8472714D01*
X76998285Y-8509000D01*
X77034571Y-8545285D01*
X77070857Y-8617857D01*
X77070857Y-8690428D01*
X77034571Y-8799285D01*
X76599142Y-9234714D01*
X77070857Y-9234714D01*
X77506285Y-8799285D02*
X77433714Y-8763000D01*
X77397428Y-8726714D01*
X77361142Y-8654142D01*
X77361142Y-8617857D01*
X77397428Y-8545285D01*
X77433714Y-8509000D01*
X77506285Y-8472714D01*
X77651428Y-8472714D01*
X77724000Y-8509000D01*
X77760285Y-8545285D01*
X77796571Y-8617857D01*
X77796571Y-8654142D01*
X77760285Y-8726714D01*
X77724000Y-8763000D01*
X77651428Y-8799285D01*
X77506285Y-8799285D01*
X77433714Y-8835571D01*
X77397428Y-8871857D01*
X77361142Y-8944428D01*
X77361142Y-9089571D01*
X77397428Y-9162142D01*
X77433714Y-9198428D01*
X77506285Y-9234714D01*
X77651428Y-9234714D01*
X77724000Y-9198428D01*
X77760285Y-9162142D01*
X77796571Y-9089571D01*
X77796571Y-8944428D01*
X77760285Y-8871857D01*
X77724000Y-8835571D01*
X77651428Y-8799285D01*
X71555428Y-8545285D02*
X71591714Y-8509000D01*
X71664285Y-8472714D01*
X71845714Y-8472714D01*
X71918285Y-8509000D01*
X71954571Y-8545285D01*
X71990857Y-8617857D01*
X71990857Y-8690428D01*
X71954571Y-8799285D01*
X71519142Y-9234714D01*
X71990857Y-9234714D01*
X72644000Y-8472714D02*
X72498857Y-8472714D01*
X72426285Y-8509000D01*
X72390000Y-8545285D01*
X72317428Y-8654142D01*
X72281142Y-8799285D01*
X72281142Y-9089571D01*
X72317428Y-9162142D01*
X72353714Y-9198428D01*
X72426285Y-9234714D01*
X72571428Y-9234714D01*
X72644000Y-9198428D01*
X72680285Y-9162142D01*
X72716571Y-9089571D01*
X72716571Y-8908142D01*
X72680285Y-8835571D01*
X72644000Y-8799285D01*
X72571428Y-8763000D01*
X72426285Y-8763000D01*
X72353714Y-8799285D01*
X72317428Y-8835571D01*
X72281142Y-8908142D01*
X66475428Y-8545285D02*
X66511714Y-8509000D01*
X66584285Y-8472714D01*
X66765714Y-8472714D01*
X66838285Y-8509000D01*
X66874571Y-8545285D01*
X66910857Y-8617857D01*
X66910857Y-8690428D01*
X66874571Y-8799285D01*
X66439142Y-9234714D01*
X66910857Y-9234714D01*
X67564000Y-8726714D02*
X67564000Y-9234714D01*
X67382571Y-8436428D02*
X67201142Y-8980714D01*
X67672857Y-8980714D01*
X61395428Y-8545285D02*
X61431714Y-8509000D01*
X61504285Y-8472714D01*
X61685714Y-8472714D01*
X61758285Y-8509000D01*
X61794571Y-8545285D01*
X61830857Y-8617857D01*
X61830857Y-8690428D01*
X61794571Y-8799285D01*
X61359142Y-9234714D01*
X61830857Y-9234714D01*
X62121142Y-8545285D02*
X62157428Y-8509000D01*
X62230000Y-8472714D01*
X62411428Y-8472714D01*
X62484000Y-8509000D01*
X62520285Y-8545285D01*
X62556571Y-8617857D01*
X62556571Y-8690428D01*
X62520285Y-8799285D01*
X62084857Y-9234714D01*
X62556571Y-9234714D01*
X56315428Y-8545285D02*
X56351714Y-8509000D01*
X56424285Y-8472714D01*
X56605714Y-8472714D01*
X56678285Y-8509000D01*
X56714571Y-8545285D01*
X56750857Y-8617857D01*
X56750857Y-8690428D01*
X56714571Y-8799285D01*
X56279142Y-9234714D01*
X56750857Y-9234714D01*
X57222571Y-8472714D02*
X57295142Y-8472714D01*
X57367714Y-8509000D01*
X57404000Y-8545285D01*
X57440285Y-8617857D01*
X57476571Y-8763000D01*
X57476571Y-8944428D01*
X57440285Y-9089571D01*
X57404000Y-9162142D01*
X57367714Y-9198428D01*
X57295142Y-9234714D01*
X57222571Y-9234714D01*
X57150000Y-9198428D01*
X57113714Y-9162142D01*
X57077428Y-9089571D01*
X57041142Y-8944428D01*
X57041142Y-8763000D01*
X57077428Y-8617857D01*
X57113714Y-8545285D01*
X57150000Y-8509000D01*
X57222571Y-8472714D01*
X51670857Y-9234714D02*
X51235428Y-9234714D01*
X51453142Y-9234714D02*
X51453142Y-8472714D01*
X51380571Y-8581571D01*
X51308000Y-8654142D01*
X51235428Y-8690428D01*
X52106285Y-8799285D02*
X52033714Y-8763000D01*
X51997428Y-8726714D01*
X51961142Y-8654142D01*
X51961142Y-8617857D01*
X51997428Y-8545285D01*
X52033714Y-8509000D01*
X52106285Y-8472714D01*
X52251428Y-8472714D01*
X52324000Y-8509000D01*
X52360285Y-8545285D01*
X52396571Y-8617857D01*
X52396571Y-8654142D01*
X52360285Y-8726714D01*
X52324000Y-8763000D01*
X52251428Y-8799285D01*
X52106285Y-8799285D01*
X52033714Y-8835571D01*
X51997428Y-8871857D01*
X51961142Y-8944428D01*
X51961142Y-9089571D01*
X51997428Y-9162142D01*
X52033714Y-9198428D01*
X52106285Y-9234714D01*
X52251428Y-9234714D01*
X52324000Y-9198428D01*
X52360285Y-9162142D01*
X52396571Y-9089571D01*
X52396571Y-8944428D01*
X52360285Y-8871857D01*
X52324000Y-8835571D01*
X52251428Y-8799285D01*
X46590857Y-9234714D02*
X46155428Y-9234714D01*
X46373142Y-9234714D02*
X46373142Y-8472714D01*
X46300571Y-8581571D01*
X46228000Y-8654142D01*
X46155428Y-8690428D01*
X47244000Y-8472714D02*
X47098857Y-8472714D01*
X47026285Y-8509000D01*
X46990000Y-8545285D01*
X46917428Y-8654142D01*
X46881142Y-8799285D01*
X46881142Y-9089571D01*
X46917428Y-9162142D01*
X46953714Y-9198428D01*
X47026285Y-9234714D01*
X47171428Y-9234714D01*
X47244000Y-9198428D01*
X47280285Y-9162142D01*
X47316571Y-9089571D01*
X47316571Y-8908142D01*
X47280285Y-8835571D01*
X47244000Y-8799285D01*
X47171428Y-8763000D01*
X47026285Y-8763000D01*
X46953714Y-8799285D01*
X46917428Y-8835571D01*
X46881142Y-8908142D01*
X41510857Y-9234714D02*
X41075428Y-9234714D01*
X41293142Y-9234714D02*
X41293142Y-8472714D01*
X41220571Y-8581571D01*
X41148000Y-8654142D01*
X41075428Y-8690428D01*
X42164000Y-8726714D02*
X42164000Y-9234714D01*
X41982571Y-8436428D02*
X41801142Y-8980714D01*
X42272857Y-8980714D01*
X36430857Y-9234714D02*
X35995428Y-9234714D01*
X36213142Y-9234714D02*
X36213142Y-8472714D01*
X36140571Y-8581571D01*
X36068000Y-8654142D01*
X35995428Y-8690428D01*
X36721142Y-8545285D02*
X36757428Y-8509000D01*
X36830000Y-8472714D01*
X37011428Y-8472714D01*
X37084000Y-8509000D01*
X37120285Y-8545285D01*
X37156571Y-8617857D01*
X37156571Y-8690428D01*
X37120285Y-8799285D01*
X36684857Y-9234714D01*
X37156571Y-9234714D01*
X31350857Y-9234714D02*
X30915428Y-9234714D01*
X31133142Y-9234714D02*
X31133142Y-8472714D01*
X31060571Y-8581571D01*
X30988000Y-8654142D01*
X30915428Y-8690428D01*
X31822571Y-8472714D02*
X31895142Y-8472714D01*
X31967714Y-8509000D01*
X32004000Y-8545285D01*
X32040285Y-8617857D01*
X32076571Y-8763000D01*
X32076571Y-8944428D01*
X32040285Y-9089571D01*
X32004000Y-9162142D01*
X31967714Y-9198428D01*
X31895142Y-9234714D01*
X31822571Y-9234714D01*
X31750000Y-9198428D01*
X31713714Y-9162142D01*
X31677428Y-9089571D01*
X31641142Y-8944428D01*
X31641142Y-8763000D01*
X31677428Y-8617857D01*
X31713714Y-8545285D01*
X31750000Y-8509000D01*
X31822571Y-8472714D01*
X26343428Y-8799285D02*
X26270857Y-8763000D01*
X26234571Y-8726714D01*
X26198285Y-8654142D01*
X26198285Y-8617857D01*
X26234571Y-8545285D01*
X26270857Y-8509000D01*
X26343428Y-8472714D01*
X26488571Y-8472714D01*
X26561142Y-8509000D01*
X26597428Y-8545285D01*
X26633714Y-8617857D01*
X26633714Y-8654142D01*
X26597428Y-8726714D01*
X26561142Y-8763000D01*
X26488571Y-8799285D01*
X26343428Y-8799285D01*
X26270857Y-8835571D01*
X26234571Y-8871857D01*
X26198285Y-8944428D01*
X26198285Y-9089571D01*
X26234571Y-9162142D01*
X26270857Y-9198428D01*
X26343428Y-9234714D01*
X26488571Y-9234714D01*
X26561142Y-9198428D01*
X26597428Y-9162142D01*
X26633714Y-9089571D01*
X26633714Y-8944428D01*
X26597428Y-8871857D01*
X26561142Y-8835571D01*
X26488571Y-8799285D01*
X21481142Y-8472714D02*
X21336000Y-8472714D01*
X21263428Y-8509000D01*
X21227142Y-8545285D01*
X21154571Y-8654142D01*
X21118285Y-8799285D01*
X21118285Y-9089571D01*
X21154571Y-9162142D01*
X21190857Y-9198428D01*
X21263428Y-9234714D01*
X21408571Y-9234714D01*
X21481142Y-9198428D01*
X21517428Y-9162142D01*
X21553714Y-9089571D01*
X21553714Y-8908142D01*
X21517428Y-8835571D01*
X21481142Y-8799285D01*
X21408571Y-8763000D01*
X21263428Y-8763000D01*
X21190857Y-8799285D01*
X21154571Y-8835571D01*
X21118285Y-8908142D01*
X16401142Y-8726714D02*
X16401142Y-9234714D01*
X16219714Y-8436428D02*
X16038285Y-8980714D01*
X16510000Y-8980714D01*
X10958285Y-8545285D02*
X10994571Y-8509000D01*
X11067142Y-8472714D01*
X11248571Y-8472714D01*
X11321142Y-8509000D01*
X11357428Y-8545285D01*
X11393714Y-8617857D01*
X11393714Y-8690428D01*
X11357428Y-8799285D01*
X10922000Y-9234714D01*
X11393714Y-9234714D01*
X98249619Y-91088028D02*
X97233619Y-91088028D01*
X97233619Y-90700981D01*
X97282000Y-90604219D01*
X97330380Y-90555838D01*
X97427142Y-90507457D01*
X97572285Y-90507457D01*
X97669047Y-90555838D01*
X97717428Y-90604219D01*
X97765809Y-90700981D01*
X97765809Y-91088028D01*
X98249619Y-90072028D02*
X97572285Y-90072028D01*
X97765809Y-90072028D02*
X97669047Y-90023647D01*
X97620666Y-89975266D01*
X97572285Y-89878504D01*
X97572285Y-89781743D01*
X98249619Y-89297933D02*
X98201238Y-89394695D01*
X98152857Y-89443076D01*
X98056095Y-89491457D01*
X97765809Y-89491457D01*
X97669047Y-89443076D01*
X97620666Y-89394695D01*
X97572285Y-89297933D01*
X97572285Y-89152790D01*
X97620666Y-89056028D01*
X97669047Y-89007647D01*
X97765809Y-88959266D01*
X98056095Y-88959266D01*
X98152857Y-89007647D01*
X98201238Y-89056028D01*
X98249619Y-89152790D01*
X98249619Y-89297933D01*
X97572285Y-88668981D02*
X97572285Y-88281933D01*
X97233619Y-88523838D02*
X98104476Y-88523838D01*
X98201238Y-88475457D01*
X98249619Y-88378695D01*
X98249619Y-88281933D01*
X98249619Y-87798124D02*
X98201238Y-87894885D01*
X98152857Y-87943266D01*
X98056095Y-87991647D01*
X97765809Y-87991647D01*
X97669047Y-87943266D01*
X97620666Y-87894885D01*
X97572285Y-87798124D01*
X97572285Y-87652981D01*
X97620666Y-87556219D01*
X97669047Y-87507838D01*
X97765809Y-87459457D01*
X98056095Y-87459457D01*
X98152857Y-87507838D01*
X98201238Y-87556219D01*
X98249619Y-87652981D01*
X98249619Y-87798124D01*
X98249619Y-87024028D02*
X97233619Y-87024028D01*
X97620666Y-87024028D02*
X97572285Y-86927266D01*
X97572285Y-86733743D01*
X97620666Y-86636981D01*
X97669047Y-86588600D01*
X97765809Y-86540219D01*
X98056095Y-86540219D01*
X98152857Y-86588600D01*
X98201238Y-86636981D01*
X98249619Y-86733743D01*
X98249619Y-86927266D01*
X98201238Y-87024028D01*
X98249619Y-85959647D02*
X98201238Y-86056409D01*
X98152857Y-86104790D01*
X98056095Y-86153171D01*
X97765809Y-86153171D01*
X97669047Y-86104790D01*
X97620666Y-86056409D01*
X97572285Y-85959647D01*
X97572285Y-85814504D01*
X97620666Y-85717743D01*
X97669047Y-85669362D01*
X97765809Y-85620981D01*
X98056095Y-85620981D01*
X98152857Y-85669362D01*
X98201238Y-85717743D01*
X98249619Y-85814504D01*
X98249619Y-85959647D01*
X98249619Y-84750124D02*
X97717428Y-84750124D01*
X97620666Y-84798504D01*
X97572285Y-84895266D01*
X97572285Y-85088790D01*
X97620666Y-85185552D01*
X98201238Y-84750124D02*
X98249619Y-84846885D01*
X98249619Y-85088790D01*
X98201238Y-85185552D01*
X98104476Y-85233933D01*
X98007714Y-85233933D01*
X97910952Y-85185552D01*
X97862571Y-85088790D01*
X97862571Y-84846885D01*
X97814190Y-84750124D01*
X98249619Y-84266314D02*
X97572285Y-84266314D01*
X97765809Y-84266314D02*
X97669047Y-84217933D01*
X97620666Y-84169552D01*
X97572285Y-84072790D01*
X97572285Y-83976028D01*
X98249619Y-83201933D02*
X97233619Y-83201933D01*
X98201238Y-83201933D02*
X98249619Y-83298695D01*
X98249619Y-83492219D01*
X98201238Y-83588981D01*
X98152857Y-83637362D01*
X98056095Y-83685743D01*
X97765809Y-83685743D01*
X97669047Y-83637362D01*
X97620666Y-83588981D01*
X97572285Y-83492219D01*
X97572285Y-83298695D01*
X97620666Y-83201933D01*
X98636666Y-81653743D02*
X98588285Y-81702124D01*
X98443142Y-81798885D01*
X98346380Y-81847266D01*
X98201238Y-81895647D01*
X97959333Y-81944028D01*
X97765809Y-81944028D01*
X97523904Y-81895647D01*
X97378761Y-81847266D01*
X97282000Y-81798885D01*
X97136857Y-81702124D01*
X97088476Y-81653743D01*
X98152857Y-80686124D02*
X98201238Y-80734504D01*
X98249619Y-80879647D01*
X98249619Y-80976409D01*
X98201238Y-81121552D01*
X98104476Y-81218314D01*
X98007714Y-81266695D01*
X97814190Y-81315076D01*
X97669047Y-81315076D01*
X97475523Y-81266695D01*
X97378761Y-81218314D01*
X97282000Y-81121552D01*
X97233619Y-80976409D01*
X97233619Y-80879647D01*
X97282000Y-80734504D01*
X97330380Y-80686124D01*
X98636666Y-80347457D02*
X98588285Y-80299076D01*
X98443142Y-80202314D01*
X98346380Y-80153933D01*
X98201238Y-80105552D01*
X97959333Y-80057171D01*
X97765809Y-80057171D01*
X97523904Y-80105552D01*
X97378761Y-80153933D01*
X97282000Y-80202314D01*
X97136857Y-80299076D01*
X97088476Y-80347457D01*
X97330380Y-78847647D02*
X97282000Y-78799266D01*
X97233619Y-78702504D01*
X97233619Y-78460600D01*
X97282000Y-78363838D01*
X97330380Y-78315457D01*
X97427142Y-78267076D01*
X97523904Y-78267076D01*
X97669047Y-78315457D01*
X98249619Y-78896028D01*
X98249619Y-78267076D01*
X97233619Y-77638124D02*
X97233619Y-77541362D01*
X97282000Y-77444600D01*
X97330380Y-77396219D01*
X97427142Y-77347838D01*
X97620666Y-77299457D01*
X97862571Y-77299457D01*
X98056095Y-77347838D01*
X98152857Y-77396219D01*
X98201238Y-77444600D01*
X98249619Y-77541362D01*
X98249619Y-77638124D01*
X98201238Y-77734885D01*
X98152857Y-77783266D01*
X98056095Y-77831647D01*
X97862571Y-77880028D01*
X97620666Y-77880028D01*
X97427142Y-77831647D01*
X97330380Y-77783266D01*
X97282000Y-77734885D01*
X97233619Y-77638124D01*
X98249619Y-76331838D02*
X98249619Y-76912409D01*
X98249619Y-76622124D02*
X97233619Y-76622124D01*
X97378761Y-76718885D01*
X97475523Y-76815647D01*
X97523904Y-76912409D01*
X97233619Y-75412600D02*
X97233619Y-75896409D01*
X97717428Y-75944790D01*
X97669047Y-75896409D01*
X97620666Y-75799647D01*
X97620666Y-75557743D01*
X97669047Y-75460981D01*
X97717428Y-75412600D01*
X97814190Y-75364219D01*
X98056095Y-75364219D01*
X98152857Y-75412600D01*
X98201238Y-75460981D01*
X98249619Y-75557743D01*
X98249619Y-75799647D01*
X98201238Y-75896409D01*
X98152857Y-75944790D01*
X98249619Y-73574124D02*
X97765809Y-73912790D01*
X98249619Y-74154695D02*
X97233619Y-74154695D01*
X97233619Y-73767647D01*
X97282000Y-73670885D01*
X97330380Y-73622504D01*
X97427142Y-73574124D01*
X97572285Y-73574124D01*
X97669047Y-73622504D01*
X97717428Y-73670885D01*
X97765809Y-73767647D01*
X97765809Y-74154695D01*
X98249619Y-73138695D02*
X97572285Y-73138695D01*
X97233619Y-73138695D02*
X97282000Y-73187076D01*
X97330380Y-73138695D01*
X97282000Y-73090314D01*
X97233619Y-73138695D01*
X97330380Y-73138695D01*
X98201238Y-72219457D02*
X98249619Y-72316219D01*
X98249619Y-72509743D01*
X98201238Y-72606504D01*
X98152857Y-72654885D01*
X98056095Y-72703266D01*
X97765809Y-72703266D01*
X97669047Y-72654885D01*
X97620666Y-72606504D01*
X97572285Y-72509743D01*
X97572285Y-72316219D01*
X97620666Y-72219457D01*
X98249619Y-71784028D02*
X97233619Y-71784028D01*
X98249619Y-71348600D02*
X97717428Y-71348600D01*
X97620666Y-71396981D01*
X97572285Y-71493743D01*
X97572285Y-71638885D01*
X97620666Y-71735647D01*
X97669047Y-71784028D01*
X97233619Y-70187457D02*
X98249619Y-69945552D01*
X97523904Y-69752028D01*
X98249619Y-69558504D01*
X97233619Y-69316600D01*
X98249619Y-68494124D02*
X97717428Y-68494124D01*
X97620666Y-68542504D01*
X97572285Y-68639266D01*
X97572285Y-68832790D01*
X97620666Y-68929552D01*
X98201238Y-68494124D02*
X98249619Y-68590885D01*
X98249619Y-68832790D01*
X98201238Y-68929552D01*
X98104476Y-68977933D01*
X98007714Y-68977933D01*
X97910952Y-68929552D01*
X97862571Y-68832790D01*
X97862571Y-68590885D01*
X97814190Y-68494124D01*
X98249619Y-68010314D02*
X97572285Y-68010314D01*
X97765809Y-68010314D02*
X97669047Y-67961933D01*
X97620666Y-67913552D01*
X97572285Y-67816790D01*
X97572285Y-67720028D01*
X98201238Y-66994314D02*
X98249619Y-67091076D01*
X98249619Y-67284600D01*
X98201238Y-67381362D01*
X98104476Y-67429743D01*
X97717428Y-67429743D01*
X97620666Y-67381362D01*
X97572285Y-67284600D01*
X97572285Y-67091076D01*
X97620666Y-66994314D01*
X97717428Y-66945933D01*
X97814190Y-66945933D01*
X97910952Y-67429743D01*
X98249619Y-66510504D02*
X97233619Y-66510504D01*
X98249619Y-66075076D02*
X97717428Y-66075076D01*
X97620666Y-66123457D01*
X97572285Y-66220219D01*
X97572285Y-66365362D01*
X97620666Y-66462124D01*
X97669047Y-66510504D01*
X98249619Y-65155838D02*
X97717428Y-65155838D01*
X97620666Y-65204219D01*
X97572285Y-65300981D01*
X97572285Y-65494504D01*
X97620666Y-65591266D01*
X98201238Y-65155838D02*
X98249619Y-65252600D01*
X98249619Y-65494504D01*
X98201238Y-65591266D01*
X98104476Y-65639647D01*
X98007714Y-65639647D01*
X97910952Y-65591266D01*
X97862571Y-65494504D01*
X97862571Y-65252600D01*
X97814190Y-65155838D01*
X98249619Y-64672028D02*
X97572285Y-64672028D01*
X97669047Y-64672028D02*
X97620666Y-64623647D01*
X97572285Y-64526885D01*
X97572285Y-64381743D01*
X97620666Y-64284981D01*
X97717428Y-64236600D01*
X98249619Y-64236600D01*
X97717428Y-64236600D02*
X97620666Y-64188219D01*
X97572285Y-64091457D01*
X97572285Y-63946314D01*
X97620666Y-63849552D01*
X97717428Y-63801171D01*
X98249619Y-63801171D01*
X98201238Y-63268981D02*
X98249619Y-63268981D01*
X98346380Y-63317362D01*
X98394761Y-63365743D01*
X98152857Y-61478885D02*
X98201238Y-61527266D01*
X98249619Y-61672409D01*
X98249619Y-61769171D01*
X98201238Y-61914314D01*
X98104476Y-62011076D01*
X98007714Y-62059457D01*
X97814190Y-62107838D01*
X97669047Y-62107838D01*
X97475523Y-62059457D01*
X97378761Y-62011076D01*
X97282000Y-61914314D01*
X97233619Y-61769171D01*
X97233619Y-61672409D01*
X97282000Y-61527266D01*
X97330380Y-61478885D01*
X98152857Y-60462885D02*
X98201238Y-60511266D01*
X98249619Y-60656409D01*
X98249619Y-60753171D01*
X98201238Y-60898314D01*
X98104476Y-60995076D01*
X98007714Y-61043457D01*
X97814190Y-61091838D01*
X97669047Y-61091838D01*
X97475523Y-61043457D01*
X97378761Y-60995076D01*
X97282000Y-60898314D01*
X97233619Y-60753171D01*
X97233619Y-60656409D01*
X97282000Y-60511266D01*
X97330380Y-60462885D01*
X97717428Y-58914695D02*
X97765809Y-58769552D01*
X97814190Y-58721171D01*
X97910952Y-58672790D01*
X98056095Y-58672790D01*
X98152857Y-58721171D01*
X98201238Y-58769552D01*
X98249619Y-58866314D01*
X98249619Y-59253362D01*
X97233619Y-59253362D01*
X97233619Y-58914695D01*
X97282000Y-58817933D01*
X97330380Y-58769552D01*
X97427142Y-58721171D01*
X97523904Y-58721171D01*
X97620666Y-58769552D01*
X97669047Y-58817933D01*
X97717428Y-58914695D01*
X97717428Y-59253362D01*
X97765809Y-58043838D02*
X98249619Y-58043838D01*
X97233619Y-58382504D02*
X97765809Y-58043838D01*
X97233619Y-57705171D01*
X97862571Y-57366504D02*
X97862571Y-56592409D01*
X98201238Y-56156981D02*
X98249619Y-56011838D01*
X98249619Y-55769933D01*
X98201238Y-55673171D01*
X98152857Y-55624790D01*
X98056095Y-55576409D01*
X97959333Y-55576409D01*
X97862571Y-55624790D01*
X97814190Y-55673171D01*
X97765809Y-55769933D01*
X97717428Y-55963457D01*
X97669047Y-56060219D01*
X97620666Y-56108600D01*
X97523904Y-56156981D01*
X97427142Y-56156981D01*
X97330380Y-56108600D01*
X97282000Y-56060219D01*
X97233619Y-55963457D01*
X97233619Y-55721552D01*
X97282000Y-55576409D01*
X97959333Y-55189362D02*
X97959333Y-54705552D01*
X98249619Y-55286124D02*
X97233619Y-54947457D01*
X98249619Y-54608790D01*
X98152857Y-54270124D02*
X98201238Y-54221743D01*
X98249619Y-54270124D01*
X98201238Y-54318504D01*
X98152857Y-54270124D01*
X98249619Y-54270124D01*
X98249619Y-53012219D02*
X97233619Y-53012219D01*
X97959333Y-52673552D01*
X97233619Y-52334885D01*
X98249619Y-52334885D01*
X98249619Y-51705933D02*
X98201238Y-51802695D01*
X98152857Y-51851076D01*
X98056095Y-51899457D01*
X97765809Y-51899457D01*
X97669047Y-51851076D01*
X97620666Y-51802695D01*
X97572285Y-51705933D01*
X97572285Y-51560790D01*
X97620666Y-51464028D01*
X97669047Y-51415647D01*
X97765809Y-51367266D01*
X98056095Y-51367266D01*
X98152857Y-51415647D01*
X98201238Y-51464028D01*
X98249619Y-51560790D01*
X98249619Y-51705933D01*
X98249619Y-50496409D02*
X97233619Y-50496409D01*
X98201238Y-50496409D02*
X98249619Y-50593171D01*
X98249619Y-50786695D01*
X98201238Y-50883457D01*
X98152857Y-50931838D01*
X98056095Y-50980219D01*
X97765809Y-50980219D01*
X97669047Y-50931838D01*
X97620666Y-50883457D01*
X97572285Y-50786695D01*
X97572285Y-50593171D01*
X97620666Y-50496409D01*
X98249619Y-50012600D02*
X97572285Y-50012600D01*
X97233619Y-50012600D02*
X97282000Y-50060981D01*
X97330380Y-50012600D01*
X97282000Y-49964219D01*
X97233619Y-50012600D01*
X97330380Y-50012600D01*
X97572285Y-49673933D02*
X97572285Y-49286885D01*
X98249619Y-49528790D02*
X97378761Y-49528790D01*
X97282000Y-49480409D01*
X97233619Y-49383647D01*
X97233619Y-49286885D01*
X98249619Y-48948219D02*
X97572285Y-48948219D01*
X97233619Y-48948219D02*
X97282000Y-48996600D01*
X97330380Y-48948219D01*
X97282000Y-48899838D01*
X97233619Y-48948219D01*
X97330380Y-48948219D01*
X98201238Y-48028981D02*
X98249619Y-48125743D01*
X98249619Y-48319266D01*
X98201238Y-48416028D01*
X98152857Y-48464409D01*
X98056095Y-48512790D01*
X97765809Y-48512790D01*
X97669047Y-48464409D01*
X97620666Y-48416028D01*
X97572285Y-48319266D01*
X97572285Y-48125743D01*
X97620666Y-48028981D01*
X98249619Y-47158124D02*
X97717428Y-47158124D01*
X97620666Y-47206504D01*
X97572285Y-47303266D01*
X97572285Y-47496790D01*
X97620666Y-47593552D01*
X98201238Y-47158124D02*
X98249619Y-47254885D01*
X98249619Y-47496790D01*
X98201238Y-47593552D01*
X98104476Y-47641933D01*
X98007714Y-47641933D01*
X97910952Y-47593552D01*
X97862571Y-47496790D01*
X97862571Y-47254885D01*
X97814190Y-47158124D01*
X97572285Y-46819457D02*
X97572285Y-46432409D01*
X97233619Y-46674314D02*
X98104476Y-46674314D01*
X98201238Y-46625933D01*
X98249619Y-46529171D01*
X98249619Y-46432409D01*
X98249619Y-46093743D02*
X97572285Y-46093743D01*
X97233619Y-46093743D02*
X97282000Y-46142124D01*
X97330380Y-46093743D01*
X97282000Y-46045362D01*
X97233619Y-46093743D01*
X97330380Y-46093743D01*
X98249619Y-45464790D02*
X98201238Y-45561552D01*
X98152857Y-45609933D01*
X98056095Y-45658314D01*
X97765809Y-45658314D01*
X97669047Y-45609933D01*
X97620666Y-45561552D01*
X97572285Y-45464790D01*
X97572285Y-45319647D01*
X97620666Y-45222885D01*
X97669047Y-45174504D01*
X97765809Y-45126124D01*
X98056095Y-45126124D01*
X98152857Y-45174504D01*
X98201238Y-45222885D01*
X98249619Y-45319647D01*
X98249619Y-45464790D01*
X97572285Y-44690695D02*
X98249619Y-44690695D01*
X97669047Y-44690695D02*
X97620666Y-44642314D01*
X97572285Y-44545552D01*
X97572285Y-44400409D01*
X97620666Y-44303647D01*
X97717428Y-44255266D01*
X98249619Y-44255266D01*
X98201238Y-43819838D02*
X98249619Y-43723076D01*
X98249619Y-43529552D01*
X98201238Y-43432790D01*
X98104476Y-43384409D01*
X98056095Y-43384409D01*
X97959333Y-43432790D01*
X97910952Y-43529552D01*
X97910952Y-43674695D01*
X97862571Y-43771457D01*
X97765809Y-43819838D01*
X97717428Y-43819838D01*
X97620666Y-43771457D01*
X97572285Y-43674695D01*
X97572285Y-43529552D01*
X97620666Y-43432790D01*
X98249619Y-42174885D02*
X97233619Y-42174885D01*
X97620666Y-42174885D02*
X97572285Y-42078124D01*
X97572285Y-41884600D01*
X97620666Y-41787838D01*
X97669047Y-41739457D01*
X97765809Y-41691076D01*
X98056095Y-41691076D01*
X98152857Y-41739457D01*
X98201238Y-41787838D01*
X98249619Y-41884600D01*
X98249619Y-42078124D01*
X98201238Y-42174885D01*
X97572285Y-41352409D02*
X98249619Y-41110504D01*
X97572285Y-40868600D02*
X98249619Y-41110504D01*
X98491523Y-41207266D01*
X98539904Y-41255647D01*
X98588285Y-41352409D01*
X97959333Y-39755838D02*
X97959333Y-39272028D01*
X98249619Y-39852600D02*
X97233619Y-39513933D01*
X98249619Y-39175266D01*
X98249619Y-38691457D02*
X98201238Y-38788219D01*
X98104476Y-38836600D01*
X97233619Y-38836600D01*
X98201238Y-37917362D02*
X98249619Y-38014124D01*
X98249619Y-38207647D01*
X98201238Y-38304409D01*
X98104476Y-38352790D01*
X97717428Y-38352790D01*
X97620666Y-38304409D01*
X97572285Y-38207647D01*
X97572285Y-38014124D01*
X97620666Y-37917362D01*
X97717428Y-37868981D01*
X97814190Y-37868981D01*
X97910952Y-38352790D01*
X98249619Y-37530314D02*
X97572285Y-36998124D01*
X97572285Y-37530314D02*
X98249619Y-36998124D01*
X98249619Y-36611076D02*
X97572285Y-36611076D01*
X97233619Y-36611076D02*
X97282000Y-36659457D01*
X97330380Y-36611076D01*
X97282000Y-36562695D01*
X97233619Y-36611076D01*
X97330380Y-36611076D01*
X98201238Y-36175647D02*
X98249619Y-36078885D01*
X98249619Y-35885362D01*
X98201238Y-35788600D01*
X98104476Y-35740219D01*
X98056095Y-35740219D01*
X97959333Y-35788600D01*
X97910952Y-35885362D01*
X97910952Y-36030504D01*
X97862571Y-36127266D01*
X97765809Y-36175647D01*
X97717428Y-36175647D01*
X97620666Y-36127266D01*
X97572285Y-36030504D01*
X97572285Y-35885362D01*
X97620666Y-35788600D01*
X98249619Y-34046885D02*
X98249619Y-34530695D01*
X97233619Y-34530695D01*
X98249619Y-33563076D02*
X98201238Y-33659838D01*
X98152857Y-33708219D01*
X98056095Y-33756600D01*
X97765809Y-33756600D01*
X97669047Y-33708219D01*
X97620666Y-33659838D01*
X97572285Y-33563076D01*
X97572285Y-33417933D01*
X97620666Y-33321171D01*
X97669047Y-33272790D01*
X97765809Y-33224409D01*
X98056095Y-33224409D01*
X98152857Y-33272790D01*
X98201238Y-33321171D01*
X98249619Y-33417933D01*
X98249619Y-33563076D01*
X98201238Y-32353552D02*
X98249619Y-32450314D01*
X98249619Y-32643838D01*
X98201238Y-32740600D01*
X98152857Y-32788981D01*
X98056095Y-32837362D01*
X97765809Y-32837362D01*
X97669047Y-32788981D01*
X97620666Y-32740600D01*
X97572285Y-32643838D01*
X97572285Y-32450314D01*
X97620666Y-32353552D01*
X98249619Y-31918124D02*
X97233619Y-31918124D01*
X97862571Y-31821362D02*
X98249619Y-31531076D01*
X97572285Y-31531076D02*
X97959333Y-31918124D01*
X97572285Y-31192409D02*
X98249619Y-30998885D01*
X97765809Y-30805362D01*
X98249619Y-30611838D01*
X97572285Y-30418314D01*
X98249619Y-29886124D02*
X98201238Y-29982885D01*
X98152857Y-30031266D01*
X98056095Y-30079647D01*
X97765809Y-30079647D01*
X97669047Y-30031266D01*
X97620666Y-29982885D01*
X97572285Y-29886124D01*
X97572285Y-29740981D01*
X97620666Y-29644219D01*
X97669047Y-29595838D01*
X97765809Y-29547457D01*
X98056095Y-29547457D01*
X98152857Y-29595838D01*
X98201238Y-29644219D01*
X98249619Y-29740981D01*
X98249619Y-29886124D01*
X98249619Y-28966885D02*
X98201238Y-29063647D01*
X98152857Y-29112028D01*
X98056095Y-29160409D01*
X97765809Y-29160409D01*
X97669047Y-29112028D01*
X97620666Y-29063647D01*
X97572285Y-28966885D01*
X97572285Y-28821743D01*
X97620666Y-28724981D01*
X97669047Y-28676600D01*
X97765809Y-28628219D01*
X98056095Y-28628219D01*
X98152857Y-28676600D01*
X98201238Y-28724981D01*
X98249619Y-28821743D01*
X98249619Y-28966885D01*
X98249619Y-27757362D02*
X97233619Y-27757362D01*
X98201238Y-27757362D02*
X98249619Y-27854124D01*
X98249619Y-28047647D01*
X98201238Y-28144409D01*
X98152857Y-28192790D01*
X98056095Y-28241171D01*
X97765809Y-28241171D01*
X97669047Y-28192790D01*
X97620666Y-28144409D01*
X97572285Y-28047647D01*
X97572285Y-27854124D01*
X97620666Y-27757362D01*
X98201238Y-27225171D02*
X98249619Y-27225171D01*
X98346380Y-27273552D01*
X98394761Y-27321933D01*
X97330380Y-26064028D02*
X97282000Y-26015647D01*
X97233619Y-25918885D01*
X97233619Y-25676981D01*
X97282000Y-25580219D01*
X97330380Y-25531838D01*
X97427142Y-25483457D01*
X97523904Y-25483457D01*
X97669047Y-25531838D01*
X98249619Y-26112409D01*
X98249619Y-25483457D01*
X97233619Y-24854504D02*
X97233619Y-24757743D01*
X97282000Y-24660981D01*
X97330380Y-24612600D01*
X97427142Y-24564219D01*
X97620666Y-24515838D01*
X97862571Y-24515838D01*
X98056095Y-24564219D01*
X98152857Y-24612600D01*
X98201238Y-24660981D01*
X98249619Y-24757743D01*
X98249619Y-24854504D01*
X98201238Y-24951266D01*
X98152857Y-24999647D01*
X98056095Y-25048028D01*
X97862571Y-25096409D01*
X97620666Y-25096409D01*
X97427142Y-25048028D01*
X97330380Y-24999647D01*
X97282000Y-24951266D01*
X97233619Y-24854504D01*
X97330380Y-24128790D02*
X97282000Y-24080409D01*
X97233619Y-23983647D01*
X97233619Y-23741743D01*
X97282000Y-23644981D01*
X97330380Y-23596600D01*
X97427142Y-23548219D01*
X97523904Y-23548219D01*
X97669047Y-23596600D01*
X98249619Y-24177171D01*
X98249619Y-23548219D01*
X97233619Y-22919266D02*
X97233619Y-22822504D01*
X97282000Y-22725743D01*
X97330380Y-22677362D01*
X97427142Y-22628981D01*
X97620666Y-22580600D01*
X97862571Y-22580600D01*
X98056095Y-22628981D01*
X98152857Y-22677362D01*
X98201238Y-22725743D01*
X98249619Y-22822504D01*
X98249619Y-22919266D01*
X98201238Y-23016028D01*
X98152857Y-23064409D01*
X98056095Y-23112790D01*
X97862571Y-23161171D01*
X97620666Y-23161171D01*
X97427142Y-23112790D01*
X97330380Y-23064409D01*
X97282000Y-23016028D01*
X97233619Y-22919266D01*
X98152857Y-22145171D02*
X98201238Y-22096790D01*
X98249619Y-22145171D01*
X98201238Y-22193552D01*
X98152857Y-22145171D01*
X98249619Y-22145171D01*
X1076071Y-88221428D02*
X1147500Y-88150000D01*
X1290357Y-88078571D01*
X1647500Y-88078571D01*
X1790357Y-88150000D01*
X1861785Y-88221428D01*
X1933214Y-88364285D01*
X1933214Y-88507142D01*
X1861785Y-88721428D01*
X1004642Y-89578571D01*
X1933214Y-89578571D01*
X2790357Y-88721428D02*
X2647500Y-88650000D01*
X2576071Y-88578571D01*
X2504642Y-88435714D01*
X2504642Y-88364285D01*
X2576071Y-88221428D01*
X2647500Y-88150000D01*
X2790357Y-88078571D01*
X3076071Y-88078571D01*
X3218928Y-88150000D01*
X3290357Y-88221428D01*
X3361785Y-88364285D01*
X3361785Y-88435714D01*
X3290357Y-88578571D01*
X3218928Y-88650000D01*
X3076071Y-88721428D01*
X2790357Y-88721428D01*
X2647500Y-88792857D01*
X2576071Y-88864285D01*
X2504642Y-89007142D01*
X2504642Y-89292857D01*
X2576071Y-89435714D01*
X2647500Y-89507142D01*
X2790357Y-89578571D01*
X3076071Y-89578571D01*
X3218928Y-89507142D01*
X3290357Y-89435714D01*
X3361785Y-89292857D01*
X3361785Y-89007142D01*
X3290357Y-88864285D01*
X3218928Y-88792857D01*
X3076071Y-88721428D01*
X96520000Y-16510000D02*
X96520000Y-21590000D01*
X5080000Y-16510000D02*
X5080000Y-21590000D01*
X87544124Y-94693619D02*
X87882790Y-95709619D01*
X88221457Y-94693619D01*
X88995552Y-95661238D02*
X88898790Y-95709619D01*
X88705266Y-95709619D01*
X88608504Y-95661238D01*
X88560124Y-95612857D01*
X88511743Y-95516095D01*
X88511743Y-95225809D01*
X88560124Y-95129047D01*
X88608504Y-95080666D01*
X88705266Y-95032285D01*
X88898790Y-95032285D01*
X88995552Y-95080666D01*
X89866409Y-95661238D02*
X89769647Y-95709619D01*
X89576124Y-95709619D01*
X89479362Y-95661238D01*
X89430981Y-95612857D01*
X89382600Y-95516095D01*
X89382600Y-95225809D01*
X89430981Y-95129047D01*
X89479362Y-95080666D01*
X89576124Y-95032285D01*
X89769647Y-95032285D01*
X89866409Y-95080666D01*
X9096828Y-94693619D02*
X9435495Y-95709619D01*
X9774161Y-94693619D01*
X10548256Y-95661238D02*
X10451495Y-95709619D01*
X10257971Y-95709619D01*
X10161209Y-95661238D01*
X10112828Y-95612857D01*
X10064447Y-95516095D01*
X10064447Y-95225809D01*
X10112828Y-95129047D01*
X10161209Y-95080666D01*
X10257971Y-95032285D01*
X10451495Y-95032285D01*
X10548256Y-95080666D01*
X11419114Y-95661238D02*
X11322352Y-95709619D01*
X11128828Y-95709619D01*
X11032066Y-95661238D01*
X10983685Y-95612857D01*
X10935304Y-95516095D01*
X10935304Y-95225809D01*
X10983685Y-95129047D01*
X11032066Y-95080666D01*
X11128828Y-95032285D01*
X11322352Y-95032285D01*
X11419114Y-95080666D01*
X91440000Y-92710000D02*
X7620000Y-92710000D01*
X91440000Y-97790000D02*
X91440000Y-92710000D01*
X7620000Y-97790000D02*
X91440000Y-97790000D01*
X7620000Y-92710000D02*
X7620000Y-97790000D01*
X1076071Y-83141428D02*
X1147500Y-83070000D01*
X1290357Y-82998571D01*
X1647500Y-82998571D01*
X1790357Y-83070000D01*
X1861785Y-83141428D01*
X1933214Y-83284285D01*
X1933214Y-83427142D01*
X1861785Y-83641428D01*
X1004642Y-84498571D01*
X1933214Y-84498571D01*
X3218928Y-82998571D02*
X2933214Y-82998571D01*
X2790357Y-83070000D01*
X2718928Y-83141428D01*
X2576071Y-83355714D01*
X2504642Y-83641428D01*
X2504642Y-84212857D01*
X2576071Y-84355714D01*
X2647500Y-84427142D01*
X2790357Y-84498571D01*
X3076071Y-84498571D01*
X3218928Y-84427142D01*
X3290357Y-84355714D01*
X3361785Y-84212857D01*
X3361785Y-83855714D01*
X3290357Y-83712857D01*
X3218928Y-83641428D01*
X3076071Y-83570000D01*
X2790357Y-83570000D01*
X2647500Y-83641428D01*
X2576071Y-83712857D01*
X2504642Y-83855714D01*
X1076071Y-78061428D02*
X1147500Y-77990000D01*
X1290357Y-77918571D01*
X1647500Y-77918571D01*
X1790357Y-77990000D01*
X1861785Y-78061428D01*
X1933214Y-78204285D01*
X1933214Y-78347142D01*
X1861785Y-78561428D01*
X1004642Y-79418571D01*
X1933214Y-79418571D01*
X3218928Y-78418571D02*
X3218928Y-79418571D01*
X2861785Y-77847142D02*
X2504642Y-78918571D01*
X3433214Y-78918571D01*
X1076071Y-72981428D02*
X1147500Y-72910000D01*
X1290357Y-72838571D01*
X1647500Y-72838571D01*
X1790357Y-72910000D01*
X1861785Y-72981428D01*
X1933214Y-73124285D01*
X1933214Y-73267142D01*
X1861785Y-73481428D01*
X1004642Y-74338571D01*
X1933214Y-74338571D01*
X2504642Y-72981428D02*
X2576071Y-72910000D01*
X2718928Y-72838571D01*
X3076071Y-72838571D01*
X3218928Y-72910000D01*
X3290357Y-72981428D01*
X3361785Y-73124285D01*
X3361785Y-73267142D01*
X3290357Y-73481428D01*
X2433214Y-74338571D01*
X3361785Y-74338571D01*
X1076071Y-67901428D02*
X1147500Y-67830000D01*
X1290357Y-67758571D01*
X1647500Y-67758571D01*
X1790357Y-67830000D01*
X1861785Y-67901428D01*
X1933214Y-68044285D01*
X1933214Y-68187142D01*
X1861785Y-68401428D01*
X1004642Y-69258571D01*
X1933214Y-69258571D01*
X2861785Y-67758571D02*
X3004642Y-67758571D01*
X3147500Y-67830000D01*
X3218928Y-67901428D01*
X3290357Y-68044285D01*
X3361785Y-68330000D01*
X3361785Y-68687142D01*
X3290357Y-68972857D01*
X3218928Y-69115714D01*
X3147500Y-69187142D01*
X3004642Y-69258571D01*
X2861785Y-69258571D01*
X2718928Y-69187142D01*
X2647500Y-69115714D01*
X2576071Y-68972857D01*
X2504642Y-68687142D01*
X2504642Y-68330000D01*
X2576071Y-68044285D01*
X2647500Y-67901428D01*
X2718928Y-67830000D01*
X2861785Y-67758571D01*
X1933214Y-64178571D02*
X1076071Y-64178571D01*
X1504642Y-64178571D02*
X1504642Y-62678571D01*
X1361785Y-62892857D01*
X1218928Y-63035714D01*
X1076071Y-63107142D01*
X2790357Y-63321428D02*
X2647500Y-63250000D01*
X2576071Y-63178571D01*
X2504642Y-63035714D01*
X2504642Y-62964285D01*
X2576071Y-62821428D01*
X2647500Y-62750000D01*
X2790357Y-62678571D01*
X3076071Y-62678571D01*
X3218928Y-62750000D01*
X3290357Y-62821428D01*
X3361785Y-62964285D01*
X3361785Y-63035714D01*
X3290357Y-63178571D01*
X3218928Y-63250000D01*
X3076071Y-63321428D01*
X2790357Y-63321428D01*
X2647500Y-63392857D01*
X2576071Y-63464285D01*
X2504642Y-63607142D01*
X2504642Y-63892857D01*
X2576071Y-64035714D01*
X2647500Y-64107142D01*
X2790357Y-64178571D01*
X3076071Y-64178571D01*
X3218928Y-64107142D01*
X3290357Y-64035714D01*
X3361785Y-63892857D01*
X3361785Y-63607142D01*
X3290357Y-63464285D01*
X3218928Y-63392857D01*
X3076071Y-63321428D01*
X1933214Y-59098571D02*
X1076071Y-59098571D01*
X1504642Y-59098571D02*
X1504642Y-57598571D01*
X1361785Y-57812857D01*
X1218928Y-57955714D01*
X1076071Y-58027142D01*
X3218928Y-57598571D02*
X2933214Y-57598571D01*
X2790357Y-57670000D01*
X2718928Y-57741428D01*
X2576071Y-57955714D01*
X2504642Y-58241428D01*
X2504642Y-58812857D01*
X2576071Y-58955714D01*
X2647500Y-59027142D01*
X2790357Y-59098571D01*
X3076071Y-59098571D01*
X3218928Y-59027142D01*
X3290357Y-58955714D01*
X3361785Y-58812857D01*
X3361785Y-58455714D01*
X3290357Y-58312857D01*
X3218928Y-58241428D01*
X3076071Y-58170000D01*
X2790357Y-58170000D01*
X2647500Y-58241428D01*
X2576071Y-58312857D01*
X2504642Y-58455714D01*
X1933214Y-54018571D02*
X1076071Y-54018571D01*
X1504642Y-54018571D02*
X1504642Y-52518571D01*
X1361785Y-52732857D01*
X1218928Y-52875714D01*
X1076071Y-52947142D01*
X3218928Y-53018571D02*
X3218928Y-54018571D01*
X2861785Y-52447142D02*
X2504642Y-53518571D01*
X3433214Y-53518571D01*
X1933214Y-48938571D02*
X1076071Y-48938571D01*
X1504642Y-48938571D02*
X1504642Y-47438571D01*
X1361785Y-47652857D01*
X1218928Y-47795714D01*
X1076071Y-47867142D01*
X2504642Y-47581428D02*
X2576071Y-47510000D01*
X2718928Y-47438571D01*
X3076071Y-47438571D01*
X3218928Y-47510000D01*
X3290357Y-47581428D01*
X3361785Y-47724285D01*
X3361785Y-47867142D01*
X3290357Y-48081428D01*
X2433214Y-48938571D01*
X3361785Y-48938571D01*
X1933214Y-43858571D02*
X1076071Y-43858571D01*
X1504642Y-43858571D02*
X1504642Y-42358571D01*
X1361785Y-42572857D01*
X1218928Y-42715714D01*
X1076071Y-42787142D01*
X2861785Y-42358571D02*
X3004642Y-42358571D01*
X3147500Y-42430000D01*
X3218928Y-42501428D01*
X3290357Y-42644285D01*
X3361785Y-42930000D01*
X3361785Y-43287142D01*
X3290357Y-43572857D01*
X3218928Y-43715714D01*
X3147500Y-43787142D01*
X3004642Y-43858571D01*
X2861785Y-43858571D01*
X2718928Y-43787142D01*
X2647500Y-43715714D01*
X2576071Y-43572857D01*
X2504642Y-43287142D01*
X2504642Y-42930000D01*
X2576071Y-42644285D01*
X2647500Y-42501428D01*
X2718928Y-42430000D01*
X2861785Y-42358571D01*
X2790357Y-37921428D02*
X2647500Y-37850000D01*
X2576071Y-37778571D01*
X2504642Y-37635714D01*
X2504642Y-37564285D01*
X2576071Y-37421428D01*
X2647500Y-37350000D01*
X2790357Y-37278571D01*
X3076071Y-37278571D01*
X3218928Y-37350000D01*
X3290357Y-37421428D01*
X3361785Y-37564285D01*
X3361785Y-37635714D01*
X3290357Y-37778571D01*
X3218928Y-37850000D01*
X3076071Y-37921428D01*
X2790357Y-37921428D01*
X2647500Y-37992857D01*
X2576071Y-38064285D01*
X2504642Y-38207142D01*
X2504642Y-38492857D01*
X2576071Y-38635714D01*
X2647500Y-38707142D01*
X2790357Y-38778571D01*
X3076071Y-38778571D01*
X3218928Y-38707142D01*
X3290357Y-38635714D01*
X3361785Y-38492857D01*
X3361785Y-38207142D01*
X3290357Y-38064285D01*
X3218928Y-37992857D01*
X3076071Y-37921428D01*
X3218928Y-32198571D02*
X2933214Y-32198571D01*
X2790357Y-32270000D01*
X2718928Y-32341428D01*
X2576071Y-32555714D01*
X2504642Y-32841428D01*
X2504642Y-33412857D01*
X2576071Y-33555714D01*
X2647500Y-33627142D01*
X2790357Y-33698571D01*
X3076071Y-33698571D01*
X3218928Y-33627142D01*
X3290357Y-33555714D01*
X3361785Y-33412857D01*
X3361785Y-33055714D01*
X3290357Y-32912857D01*
X3218928Y-32841428D01*
X3076071Y-32770000D01*
X2790357Y-32770000D01*
X2647500Y-32841428D01*
X2576071Y-32912857D01*
X2504642Y-33055714D01*
X3218928Y-27618571D02*
X3218928Y-28618571D01*
X2861785Y-27047142D02*
X2504642Y-28118571D01*
X3433214Y-28118571D01*
X2504642Y-22181428D02*
X2576071Y-22110000D01*
X2718928Y-22038571D01*
X3076071Y-22038571D01*
X3218928Y-22110000D01*
X3290357Y-22181428D01*
X3361785Y-22324285D01*
X3361785Y-22467142D01*
X3290357Y-22681428D01*
X2433214Y-23538571D01*
X3361785Y-23538571D01*
D11*
%TO.C,REF\u002A\u002A10*%
X73660000Y-92710000D02*
X83820000Y-92710000D01*
X73660000Y-90170000D02*
X73660000Y-92710000D01*
X83820000Y-90170000D02*
X73660000Y-90170000D01*
X83820000Y-92710000D02*
X83820000Y-90170000D01*
X96520000Y-92710000D02*
X88900000Y-92710000D01*
X96520000Y-90170000D02*
X96520000Y-92710000D01*
X88900000Y-90170000D02*
X96520000Y-90170000D01*
X88900000Y-92710000D02*
X88900000Y-90170000D01*
X27940000Y-92710000D02*
X38100000Y-92710000D01*
X27940000Y-90170000D02*
X27940000Y-92710000D01*
X38100000Y-90170000D02*
X27940000Y-90170000D01*
X38100000Y-92710000D02*
X38100000Y-90170000D01*
X50800000Y-92710000D02*
X43180000Y-92710000D01*
X50800000Y-90170000D02*
X50800000Y-92710000D01*
X43180000Y-90170000D02*
X50800000Y-90170000D01*
X43180000Y-92710000D02*
X43180000Y-90170000D01*
%TO.C,REF\u002A\u002A22*%
X63500000Y-41910000D02*
X73660000Y-41910000D01*
X63500000Y-39370000D02*
X63500000Y-41910000D01*
X73660000Y-39370000D02*
X63500000Y-39370000D01*
X73660000Y-41910000D02*
X73660000Y-39370000D01*
X58420000Y-41910000D02*
X50800000Y-41910000D01*
X58420000Y-39370000D02*
X58420000Y-41910000D01*
X50800000Y-39370000D02*
X58420000Y-39370000D01*
X50800000Y-41910000D02*
X50800000Y-39370000D01*
%TO.C,REF\u002A\u002A27*%
X17780000Y-29210000D02*
X27940000Y-29210000D01*
X17780000Y-26670000D02*
X17780000Y-29210000D01*
X27940000Y-26670000D02*
X17780000Y-26670000D01*
X27940000Y-29210000D02*
X27940000Y-26670000D01*
X12700000Y-29210000D02*
X5080000Y-29210000D01*
X12700000Y-26670000D02*
X12700000Y-29210000D01*
X5080000Y-26670000D02*
X12700000Y-26670000D01*
X5080000Y-29210000D02*
X5080000Y-26670000D01*
X17780000Y-26670000D02*
X27940000Y-26670000D01*
X17780000Y-24130000D02*
X17780000Y-26670000D01*
X27940000Y-24130000D02*
X17780000Y-24130000D01*
X27940000Y-26670000D02*
X27940000Y-24130000D01*
X12700000Y-26670000D02*
X5080000Y-26670000D01*
X12700000Y-24130000D02*
X12700000Y-26670000D01*
X5080000Y-24130000D02*
X12700000Y-24130000D01*
X5080000Y-26670000D02*
X5080000Y-24130000D01*
X17780000Y-24130000D02*
X27940000Y-24130000D01*
X17780000Y-21590000D02*
X17780000Y-24130000D01*
X27940000Y-21590000D02*
X17780000Y-21590000D01*
X27940000Y-24130000D02*
X27940000Y-21590000D01*
X12700000Y-24130000D02*
X5080000Y-24130000D01*
X12700000Y-21590000D02*
X12700000Y-24130000D01*
X5080000Y-21590000D02*
X12700000Y-21590000D01*
X5080000Y-24130000D02*
X5080000Y-21590000D01*
%TO.C,REF\u002A\u002A34*%
X27940000Y-29210000D02*
X38100000Y-29210000D01*
X27940000Y-26670000D02*
X27940000Y-29210000D01*
X38100000Y-26670000D02*
X27940000Y-26670000D01*
X38100000Y-29210000D02*
X38100000Y-26670000D01*
X50800000Y-29210000D02*
X43180000Y-29210000D01*
X50800000Y-26670000D02*
X50800000Y-29210000D01*
X43180000Y-26670000D02*
X50800000Y-26670000D01*
X43180000Y-29210000D02*
X43180000Y-26670000D01*
X27940000Y-26670000D02*
X38100000Y-26670000D01*
X27940000Y-24130000D02*
X27940000Y-26670000D01*
X38100000Y-24130000D02*
X27940000Y-24130000D01*
X38100000Y-26670000D02*
X38100000Y-24130000D01*
X50800000Y-26670000D02*
X43180000Y-26670000D01*
X50800000Y-24130000D02*
X50800000Y-26670000D01*
X43180000Y-24130000D02*
X50800000Y-24130000D01*
X43180000Y-26670000D02*
X43180000Y-24130000D01*
X27940000Y-24130000D02*
X38100000Y-24130000D01*
X27940000Y-21590000D02*
X27940000Y-24130000D01*
X38100000Y-21590000D02*
X27940000Y-21590000D01*
X38100000Y-24130000D02*
X38100000Y-21590000D01*
X50800000Y-24130000D02*
X43180000Y-24130000D01*
X50800000Y-21590000D02*
X50800000Y-24130000D01*
X43180000Y-21590000D02*
X50800000Y-21590000D01*
X43180000Y-24130000D02*
X43180000Y-21590000D01*
%TO.C,REF\u002A\u002A27*%
X63500000Y-29210000D02*
X73660000Y-29210000D01*
X63500000Y-26670000D02*
X63500000Y-29210000D01*
X73660000Y-26670000D02*
X63500000Y-26670000D01*
X73660000Y-29210000D02*
X73660000Y-26670000D01*
X58420000Y-29210000D02*
X50800000Y-29210000D01*
X58420000Y-26670000D02*
X58420000Y-29210000D01*
X50800000Y-26670000D02*
X58420000Y-26670000D01*
X50800000Y-29210000D02*
X50800000Y-26670000D01*
X63500000Y-26670000D02*
X73660000Y-26670000D01*
X63500000Y-24130000D02*
X63500000Y-26670000D01*
X73660000Y-24130000D02*
X63500000Y-24130000D01*
X73660000Y-26670000D02*
X73660000Y-24130000D01*
X58420000Y-26670000D02*
X50800000Y-26670000D01*
X58420000Y-24130000D02*
X58420000Y-26670000D01*
X50800000Y-24130000D02*
X58420000Y-24130000D01*
X50800000Y-26670000D02*
X50800000Y-24130000D01*
X63500000Y-24130000D02*
X73660000Y-24130000D01*
X63500000Y-21590000D02*
X63500000Y-24130000D01*
X73660000Y-21590000D02*
X63500000Y-21590000D01*
X73660000Y-24130000D02*
X73660000Y-21590000D01*
X58420000Y-24130000D02*
X50800000Y-24130000D01*
X58420000Y-21590000D02*
X58420000Y-24130000D01*
X50800000Y-21590000D02*
X58420000Y-21590000D01*
X50800000Y-24130000D02*
X50800000Y-21590000D01*
%TO.C,REF\u002A\u002A34*%
X73660000Y-29210000D02*
X83820000Y-29210000D01*
X73660000Y-26670000D02*
X73660000Y-29210000D01*
X83820000Y-26670000D02*
X73660000Y-26670000D01*
X83820000Y-29210000D02*
X83820000Y-26670000D01*
X96520000Y-29210000D02*
X88900000Y-29210000D01*
X96520000Y-26670000D02*
X96520000Y-29210000D01*
X88900000Y-26670000D02*
X96520000Y-26670000D01*
X88900000Y-29210000D02*
X88900000Y-26670000D01*
X73660000Y-26670000D02*
X83820000Y-26670000D01*
X73660000Y-24130000D02*
X73660000Y-26670000D01*
X83820000Y-24130000D02*
X73660000Y-24130000D01*
X83820000Y-26670000D02*
X83820000Y-24130000D01*
X96520000Y-26670000D02*
X88900000Y-26670000D01*
X96520000Y-24130000D02*
X96520000Y-26670000D01*
X88900000Y-24130000D02*
X96520000Y-24130000D01*
X88900000Y-26670000D02*
X88900000Y-24130000D01*
X73660000Y-24130000D02*
X83820000Y-24130000D01*
X73660000Y-21590000D02*
X73660000Y-24130000D01*
X83820000Y-21590000D02*
X73660000Y-21590000D01*
X83820000Y-24130000D02*
X83820000Y-21590000D01*
X96520000Y-24130000D02*
X88900000Y-24130000D01*
X96520000Y-21590000D02*
X96520000Y-24130000D01*
X88900000Y-21590000D02*
X96520000Y-21590000D01*
X88900000Y-24130000D02*
X88900000Y-21590000D01*
%TO.C,REF\u002A\u002A3*%
X17780000Y-90170000D02*
X27940000Y-90170000D01*
X17780000Y-87630000D02*
X17780000Y-90170000D01*
X27940000Y-87630000D02*
X17780000Y-87630000D01*
X27940000Y-90170000D02*
X27940000Y-87630000D01*
X12700000Y-90170000D02*
X5080000Y-90170000D01*
X12700000Y-87630000D02*
X12700000Y-90170000D01*
X5080000Y-87630000D02*
X12700000Y-87630000D01*
X5080000Y-90170000D02*
X5080000Y-87630000D01*
%TO.C,REF\u002A\u002A4*%
X17780000Y-87630000D02*
X27940000Y-87630000D01*
X17780000Y-85090000D02*
X17780000Y-87630000D01*
X27940000Y-85090000D02*
X17780000Y-85090000D01*
X27940000Y-87630000D02*
X27940000Y-85090000D01*
X12700000Y-87630000D02*
X5080000Y-87630000D01*
X12700000Y-85090000D02*
X12700000Y-87630000D01*
X5080000Y-85090000D02*
X12700000Y-85090000D01*
X5080000Y-87630000D02*
X5080000Y-85090000D01*
%TO.C,REF\u002A\u002A5*%
X17780000Y-85090000D02*
X27940000Y-85090000D01*
X17780000Y-82550000D02*
X17780000Y-85090000D01*
X27940000Y-82550000D02*
X17780000Y-82550000D01*
X27940000Y-85090000D02*
X27940000Y-82550000D01*
X12700000Y-85090000D02*
X5080000Y-85090000D01*
X12700000Y-82550000D02*
X12700000Y-85090000D01*
X5080000Y-82550000D02*
X12700000Y-82550000D01*
X5080000Y-85090000D02*
X5080000Y-82550000D01*
%TO.C,REF\u002A\u002A6*%
X17780000Y-82550000D02*
X27940000Y-82550000D01*
X17780000Y-80010000D02*
X17780000Y-82550000D01*
X27940000Y-80010000D02*
X17780000Y-80010000D01*
X27940000Y-82550000D02*
X27940000Y-80010000D01*
X12700000Y-82550000D02*
X5080000Y-82550000D01*
X12700000Y-80010000D02*
X12700000Y-82550000D01*
X5080000Y-80010000D02*
X12700000Y-80010000D01*
X5080000Y-82550000D02*
X5080000Y-80010000D01*
%TO.C,REF\u002A\u002A7*%
X17780000Y-80010000D02*
X27940000Y-80010000D01*
X17780000Y-77470000D02*
X17780000Y-80010000D01*
X27940000Y-77470000D02*
X17780000Y-77470000D01*
X27940000Y-80010000D02*
X27940000Y-77470000D01*
X12700000Y-80010000D02*
X5080000Y-80010000D01*
X12700000Y-77470000D02*
X12700000Y-80010000D01*
X5080000Y-77470000D02*
X12700000Y-77470000D01*
X5080000Y-80010000D02*
X5080000Y-77470000D01*
%TO.C,REF\u002A\u002A8*%
X17780000Y-77470000D02*
X27940000Y-77470000D01*
X17780000Y-74930000D02*
X17780000Y-77470000D01*
X27940000Y-74930000D02*
X17780000Y-74930000D01*
X27940000Y-77470000D02*
X27940000Y-74930000D01*
X12700000Y-77470000D02*
X5080000Y-77470000D01*
X12700000Y-74930000D02*
X12700000Y-77470000D01*
X5080000Y-74930000D02*
X12700000Y-74930000D01*
X5080000Y-77470000D02*
X5080000Y-74930000D01*
%TO.C,REF\u002A\u002A9*%
X17780000Y-74930000D02*
X27940000Y-74930000D01*
X17780000Y-72390000D02*
X17780000Y-74930000D01*
X27940000Y-72390000D02*
X17780000Y-72390000D01*
X27940000Y-74930000D02*
X27940000Y-72390000D01*
X12700000Y-74930000D02*
X5080000Y-74930000D01*
X12700000Y-72390000D02*
X12700000Y-74930000D01*
X5080000Y-72390000D02*
X12700000Y-72390000D01*
X5080000Y-74930000D02*
X5080000Y-72390000D01*
%TO.C,REF\u002A\u002A10*%
X17780000Y-72390000D02*
X27940000Y-72390000D01*
X17780000Y-69850000D02*
X17780000Y-72390000D01*
X27940000Y-69850000D02*
X17780000Y-69850000D01*
X27940000Y-72390000D02*
X27940000Y-69850000D01*
X12700000Y-72390000D02*
X5080000Y-72390000D01*
X12700000Y-69850000D02*
X12700000Y-72390000D01*
X5080000Y-69850000D02*
X12700000Y-69850000D01*
X5080000Y-72390000D02*
X5080000Y-69850000D01*
%TO.C,REF\u002A\u002A11*%
X17780000Y-69850000D02*
X27940000Y-69850000D01*
X17780000Y-67310000D02*
X17780000Y-69850000D01*
X27940000Y-67310000D02*
X17780000Y-67310000D01*
X27940000Y-69850000D02*
X27940000Y-67310000D01*
X12700000Y-69850000D02*
X5080000Y-69850000D01*
X12700000Y-67310000D02*
X12700000Y-69850000D01*
X5080000Y-67310000D02*
X12700000Y-67310000D01*
X5080000Y-69850000D02*
X5080000Y-67310000D01*
%TO.C,REF\u002A\u002A12*%
X17780000Y-67310000D02*
X27940000Y-67310000D01*
X17780000Y-64770000D02*
X17780000Y-67310000D01*
X27940000Y-64770000D02*
X17780000Y-64770000D01*
X27940000Y-67310000D02*
X27940000Y-64770000D01*
X12700000Y-67310000D02*
X5080000Y-67310000D01*
X12700000Y-64770000D02*
X12700000Y-67310000D01*
X5080000Y-64770000D02*
X12700000Y-64770000D01*
X5080000Y-67310000D02*
X5080000Y-64770000D01*
%TO.C,REF\u002A\u002A13*%
X17780000Y-64770000D02*
X27940000Y-64770000D01*
X17780000Y-62230000D02*
X17780000Y-64770000D01*
X27940000Y-62230000D02*
X17780000Y-62230000D01*
X27940000Y-64770000D02*
X27940000Y-62230000D01*
X12700000Y-64770000D02*
X5080000Y-64770000D01*
X12700000Y-62230000D02*
X12700000Y-64770000D01*
X5080000Y-62230000D02*
X12700000Y-62230000D01*
X5080000Y-64770000D02*
X5080000Y-62230000D01*
%TO.C,REF\u002A\u002A14*%
X17780000Y-62230000D02*
X27940000Y-62230000D01*
X17780000Y-59690000D02*
X17780000Y-62230000D01*
X27940000Y-59690000D02*
X17780000Y-59690000D01*
X27940000Y-62230000D02*
X27940000Y-59690000D01*
X12700000Y-62230000D02*
X5080000Y-62230000D01*
X12700000Y-59690000D02*
X12700000Y-62230000D01*
X5080000Y-59690000D02*
X12700000Y-59690000D01*
X5080000Y-62230000D02*
X5080000Y-59690000D01*
%TO.C,REF\u002A\u002A15*%
X17780000Y-59690000D02*
X27940000Y-59690000D01*
X17780000Y-57150000D02*
X17780000Y-59690000D01*
X27940000Y-57150000D02*
X17780000Y-57150000D01*
X27940000Y-59690000D02*
X27940000Y-57150000D01*
X12700000Y-59690000D02*
X5080000Y-59690000D01*
X12700000Y-57150000D02*
X12700000Y-59690000D01*
X5080000Y-57150000D02*
X12700000Y-57150000D01*
X5080000Y-59690000D02*
X5080000Y-57150000D01*
%TO.C,REF\u002A\u002A16*%
X17780000Y-57150000D02*
X27940000Y-57150000D01*
X17780000Y-54610000D02*
X17780000Y-57150000D01*
X27940000Y-54610000D02*
X17780000Y-54610000D01*
X27940000Y-57150000D02*
X27940000Y-54610000D01*
X12700000Y-57150000D02*
X5080000Y-57150000D01*
X12700000Y-54610000D02*
X12700000Y-57150000D01*
X5080000Y-54610000D02*
X12700000Y-54610000D01*
X5080000Y-57150000D02*
X5080000Y-54610000D01*
%TO.C,REF\u002A\u002A17*%
X17780000Y-54610000D02*
X27940000Y-54610000D01*
X17780000Y-52070000D02*
X17780000Y-54610000D01*
X27940000Y-52070000D02*
X17780000Y-52070000D01*
X27940000Y-54610000D02*
X27940000Y-52070000D01*
X12700000Y-54610000D02*
X5080000Y-54610000D01*
X12700000Y-52070000D02*
X12700000Y-54610000D01*
X5080000Y-52070000D02*
X12700000Y-52070000D01*
X5080000Y-54610000D02*
X5080000Y-52070000D01*
%TO.C,REF\u002A\u002A18*%
X17780000Y-52070000D02*
X27940000Y-52070000D01*
X17780000Y-49530000D02*
X17780000Y-52070000D01*
X27940000Y-49530000D02*
X17780000Y-49530000D01*
X27940000Y-52070000D02*
X27940000Y-49530000D01*
X12700000Y-52070000D02*
X5080000Y-52070000D01*
X12700000Y-49530000D02*
X12700000Y-52070000D01*
X5080000Y-49530000D02*
X12700000Y-49530000D01*
X5080000Y-52070000D02*
X5080000Y-49530000D01*
%TO.C,REF\u002A\u002A19*%
X17780000Y-49530000D02*
X27940000Y-49530000D01*
X17780000Y-46990000D02*
X17780000Y-49530000D01*
X27940000Y-46990000D02*
X17780000Y-46990000D01*
X27940000Y-49530000D02*
X27940000Y-46990000D01*
X12700000Y-49530000D02*
X5080000Y-49530000D01*
X12700000Y-46990000D02*
X12700000Y-49530000D01*
X5080000Y-46990000D02*
X12700000Y-46990000D01*
X5080000Y-49530000D02*
X5080000Y-46990000D01*
%TO.C,REF\u002A\u002A20*%
X17780000Y-46990000D02*
X27940000Y-46990000D01*
X17780000Y-44450000D02*
X17780000Y-46990000D01*
X27940000Y-44450000D02*
X17780000Y-44450000D01*
X27940000Y-46990000D02*
X27940000Y-44450000D01*
X12700000Y-46990000D02*
X5080000Y-46990000D01*
X12700000Y-44450000D02*
X12700000Y-46990000D01*
X5080000Y-44450000D02*
X12700000Y-44450000D01*
X5080000Y-46990000D02*
X5080000Y-44450000D01*
%TO.C,REF\u002A\u002A21*%
X17780000Y-44450000D02*
X27940000Y-44450000D01*
X17780000Y-41910000D02*
X17780000Y-44450000D01*
X27940000Y-41910000D02*
X17780000Y-41910000D01*
X27940000Y-44450000D02*
X27940000Y-41910000D01*
X12700000Y-44450000D02*
X5080000Y-44450000D01*
X12700000Y-41910000D02*
X12700000Y-44450000D01*
X5080000Y-41910000D02*
X12700000Y-41910000D01*
X5080000Y-44450000D02*
X5080000Y-41910000D01*
%TO.C,REF\u002A\u002A22*%
X17780000Y-41910000D02*
X27940000Y-41910000D01*
X17780000Y-39370000D02*
X17780000Y-41910000D01*
X27940000Y-39370000D02*
X17780000Y-39370000D01*
X27940000Y-41910000D02*
X27940000Y-39370000D01*
X12700000Y-41910000D02*
X5080000Y-41910000D01*
X12700000Y-39370000D02*
X12700000Y-41910000D01*
X5080000Y-39370000D02*
X12700000Y-39370000D01*
X5080000Y-41910000D02*
X5080000Y-39370000D01*
%TO.C,REF\u002A\u002A23*%
X17780000Y-39370000D02*
X27940000Y-39370000D01*
X17780000Y-36830000D02*
X17780000Y-39370000D01*
X27940000Y-36830000D02*
X17780000Y-36830000D01*
X27940000Y-39370000D02*
X27940000Y-36830000D01*
X12700000Y-39370000D02*
X5080000Y-39370000D01*
X12700000Y-36830000D02*
X12700000Y-39370000D01*
X5080000Y-36830000D02*
X12700000Y-36830000D01*
X5080000Y-39370000D02*
X5080000Y-36830000D01*
%TO.C,REF\u002A\u002A24*%
X17780000Y-36830000D02*
X27940000Y-36830000D01*
X17780000Y-34290000D02*
X17780000Y-36830000D01*
X27940000Y-34290000D02*
X17780000Y-34290000D01*
X27940000Y-36830000D02*
X27940000Y-34290000D01*
X12700000Y-36830000D02*
X5080000Y-36830000D01*
X12700000Y-34290000D02*
X12700000Y-36830000D01*
X5080000Y-34290000D02*
X12700000Y-34290000D01*
X5080000Y-36830000D02*
X5080000Y-34290000D01*
%TO.C,REF\u002A\u002A25*%
X17780000Y-34290000D02*
X27940000Y-34290000D01*
X17780000Y-31750000D02*
X17780000Y-34290000D01*
X27940000Y-31750000D02*
X17780000Y-31750000D01*
X27940000Y-34290000D02*
X27940000Y-31750000D01*
X12700000Y-34290000D02*
X5080000Y-34290000D01*
X12700000Y-31750000D02*
X12700000Y-34290000D01*
X5080000Y-31750000D02*
X12700000Y-31750000D01*
X5080000Y-34290000D02*
X5080000Y-31750000D01*
%TO.C,REF\u002A\u002A26*%
X17780000Y-31750000D02*
X27940000Y-31750000D01*
X17780000Y-29210000D02*
X17780000Y-31750000D01*
X27940000Y-29210000D02*
X17780000Y-29210000D01*
X27940000Y-31750000D02*
X27940000Y-29210000D01*
X12700000Y-31750000D02*
X5080000Y-31750000D01*
X12700000Y-29210000D02*
X12700000Y-31750000D01*
X5080000Y-29210000D02*
X12700000Y-29210000D01*
X5080000Y-31750000D02*
X5080000Y-29210000D01*
%TO.C,REF\u002A\u002A27*%
X17780000Y-21590000D02*
X27940000Y-21590000D01*
X17780000Y-19050000D02*
X17780000Y-21590000D01*
X27940000Y-19050000D02*
X17780000Y-19050000D01*
X27940000Y-21590000D02*
X27940000Y-19050000D01*
X12700000Y-21590000D02*
X5080000Y-21590000D01*
X12700000Y-19050000D02*
X12700000Y-21590000D01*
X5080000Y-19050000D02*
X12700000Y-19050000D01*
X5080000Y-21590000D02*
X5080000Y-19050000D01*
X17780000Y-21590000D02*
X27940000Y-21590000D01*
X17780000Y-19050000D02*
X17780000Y-21590000D01*
X27940000Y-19050000D02*
X17780000Y-19050000D01*
X27940000Y-21590000D02*
X27940000Y-19050000D01*
X12700000Y-21590000D02*
X5080000Y-21590000D01*
X12700000Y-19050000D02*
X12700000Y-21590000D01*
X5080000Y-19050000D02*
X12700000Y-19050000D01*
X5080000Y-21590000D02*
X5080000Y-19050000D01*
%TO.C,REF\u002A\u002A26*%
X17780000Y-31750000D02*
X27940000Y-31750000D01*
X17780000Y-29210000D02*
X17780000Y-31750000D01*
X27940000Y-29210000D02*
X17780000Y-29210000D01*
X27940000Y-31750000D02*
X27940000Y-29210000D01*
X12700000Y-31750000D02*
X5080000Y-31750000D01*
X12700000Y-29210000D02*
X12700000Y-31750000D01*
X5080000Y-29210000D02*
X12700000Y-29210000D01*
X5080000Y-31750000D02*
X5080000Y-29210000D01*
%TO.C,REF\u002A\u002A25*%
X17780000Y-34290000D02*
X27940000Y-34290000D01*
X17780000Y-31750000D02*
X17780000Y-34290000D01*
X27940000Y-31750000D02*
X17780000Y-31750000D01*
X27940000Y-34290000D02*
X27940000Y-31750000D01*
X12700000Y-34290000D02*
X5080000Y-34290000D01*
X12700000Y-31750000D02*
X12700000Y-34290000D01*
X5080000Y-31750000D02*
X12700000Y-31750000D01*
X5080000Y-34290000D02*
X5080000Y-31750000D01*
%TO.C,REF\u002A\u002A24*%
X17780000Y-36830000D02*
X27940000Y-36830000D01*
X17780000Y-34290000D02*
X17780000Y-36830000D01*
X27940000Y-34290000D02*
X17780000Y-34290000D01*
X27940000Y-36830000D02*
X27940000Y-34290000D01*
X12700000Y-36830000D02*
X5080000Y-36830000D01*
X12700000Y-34290000D02*
X12700000Y-36830000D01*
X5080000Y-34290000D02*
X12700000Y-34290000D01*
X5080000Y-36830000D02*
X5080000Y-34290000D01*
%TO.C,REF\u002A\u002A23*%
X17780000Y-39370000D02*
X27940000Y-39370000D01*
X17780000Y-36830000D02*
X17780000Y-39370000D01*
X27940000Y-36830000D02*
X17780000Y-36830000D01*
X27940000Y-39370000D02*
X27940000Y-36830000D01*
X12700000Y-39370000D02*
X5080000Y-39370000D01*
X12700000Y-36830000D02*
X12700000Y-39370000D01*
X5080000Y-36830000D02*
X12700000Y-36830000D01*
X5080000Y-39370000D02*
X5080000Y-36830000D01*
%TO.C,REF\u002A\u002A22*%
X17780000Y-41910000D02*
X27940000Y-41910000D01*
X17780000Y-39370000D02*
X17780000Y-41910000D01*
X27940000Y-39370000D02*
X17780000Y-39370000D01*
X27940000Y-41910000D02*
X27940000Y-39370000D01*
X12700000Y-41910000D02*
X5080000Y-41910000D01*
X12700000Y-39370000D02*
X12700000Y-41910000D01*
X5080000Y-39370000D02*
X12700000Y-39370000D01*
X5080000Y-41910000D02*
X5080000Y-39370000D01*
%TO.C,REF\u002A\u002A21*%
X17780000Y-44450000D02*
X27940000Y-44450000D01*
X17780000Y-41910000D02*
X17780000Y-44450000D01*
X27940000Y-41910000D02*
X17780000Y-41910000D01*
X27940000Y-44450000D02*
X27940000Y-41910000D01*
X12700000Y-44450000D02*
X5080000Y-44450000D01*
X12700000Y-41910000D02*
X12700000Y-44450000D01*
X5080000Y-41910000D02*
X12700000Y-41910000D01*
X5080000Y-44450000D02*
X5080000Y-41910000D01*
%TO.C,REF\u002A\u002A20*%
X17780000Y-46990000D02*
X27940000Y-46990000D01*
X17780000Y-44450000D02*
X17780000Y-46990000D01*
X27940000Y-44450000D02*
X17780000Y-44450000D01*
X27940000Y-46990000D02*
X27940000Y-44450000D01*
X12700000Y-46990000D02*
X5080000Y-46990000D01*
X12700000Y-44450000D02*
X12700000Y-46990000D01*
X5080000Y-44450000D02*
X12700000Y-44450000D01*
X5080000Y-46990000D02*
X5080000Y-44450000D01*
%TO.C,REF\u002A\u002A19*%
X17780000Y-49530000D02*
X27940000Y-49530000D01*
X17780000Y-46990000D02*
X17780000Y-49530000D01*
X27940000Y-46990000D02*
X17780000Y-46990000D01*
X27940000Y-49530000D02*
X27940000Y-46990000D01*
X12700000Y-49530000D02*
X5080000Y-49530000D01*
X12700000Y-46990000D02*
X12700000Y-49530000D01*
X5080000Y-46990000D02*
X12700000Y-46990000D01*
X5080000Y-49530000D02*
X5080000Y-46990000D01*
%TO.C,REF\u002A\u002A18*%
X17780000Y-52070000D02*
X27940000Y-52070000D01*
X17780000Y-49530000D02*
X17780000Y-52070000D01*
X27940000Y-49530000D02*
X17780000Y-49530000D01*
X27940000Y-52070000D02*
X27940000Y-49530000D01*
X12700000Y-52070000D02*
X5080000Y-52070000D01*
X12700000Y-49530000D02*
X12700000Y-52070000D01*
X5080000Y-49530000D02*
X12700000Y-49530000D01*
X5080000Y-52070000D02*
X5080000Y-49530000D01*
%TO.C,REF\u002A\u002A17*%
X17780000Y-54610000D02*
X27940000Y-54610000D01*
X17780000Y-52070000D02*
X17780000Y-54610000D01*
X27940000Y-52070000D02*
X17780000Y-52070000D01*
X27940000Y-54610000D02*
X27940000Y-52070000D01*
X12700000Y-54610000D02*
X5080000Y-54610000D01*
X12700000Y-52070000D02*
X12700000Y-54610000D01*
X5080000Y-52070000D02*
X12700000Y-52070000D01*
X5080000Y-54610000D02*
X5080000Y-52070000D01*
%TO.C,REF\u002A\u002A16*%
X17780000Y-57150000D02*
X27940000Y-57150000D01*
X17780000Y-54610000D02*
X17780000Y-57150000D01*
X27940000Y-54610000D02*
X17780000Y-54610000D01*
X27940000Y-57150000D02*
X27940000Y-54610000D01*
X12700000Y-57150000D02*
X5080000Y-57150000D01*
X12700000Y-54610000D02*
X12700000Y-57150000D01*
X5080000Y-54610000D02*
X12700000Y-54610000D01*
X5080000Y-57150000D02*
X5080000Y-54610000D01*
%TO.C,REF\u002A\u002A15*%
X17780000Y-59690000D02*
X27940000Y-59690000D01*
X17780000Y-57150000D02*
X17780000Y-59690000D01*
X27940000Y-57150000D02*
X17780000Y-57150000D01*
X27940000Y-59690000D02*
X27940000Y-57150000D01*
X12700000Y-59690000D02*
X5080000Y-59690000D01*
X12700000Y-57150000D02*
X12700000Y-59690000D01*
X5080000Y-57150000D02*
X12700000Y-57150000D01*
X5080000Y-59690000D02*
X5080000Y-57150000D01*
%TO.C,REF\u002A\u002A14*%
X17780000Y-62230000D02*
X27940000Y-62230000D01*
X17780000Y-59690000D02*
X17780000Y-62230000D01*
X27940000Y-59690000D02*
X17780000Y-59690000D01*
X27940000Y-62230000D02*
X27940000Y-59690000D01*
X12700000Y-62230000D02*
X5080000Y-62230000D01*
X12700000Y-59690000D02*
X12700000Y-62230000D01*
X5080000Y-59690000D02*
X12700000Y-59690000D01*
X5080000Y-62230000D02*
X5080000Y-59690000D01*
%TO.C,REF\u002A\u002A13*%
X17780000Y-64770000D02*
X27940000Y-64770000D01*
X17780000Y-62230000D02*
X17780000Y-64770000D01*
X27940000Y-62230000D02*
X17780000Y-62230000D01*
X27940000Y-64770000D02*
X27940000Y-62230000D01*
X12700000Y-64770000D02*
X5080000Y-64770000D01*
X12700000Y-62230000D02*
X12700000Y-64770000D01*
X5080000Y-62230000D02*
X12700000Y-62230000D01*
X5080000Y-64770000D02*
X5080000Y-62230000D01*
%TO.C,REF\u002A\u002A12*%
X17780000Y-67310000D02*
X27940000Y-67310000D01*
X17780000Y-64770000D02*
X17780000Y-67310000D01*
X27940000Y-64770000D02*
X17780000Y-64770000D01*
X27940000Y-67310000D02*
X27940000Y-64770000D01*
X12700000Y-67310000D02*
X5080000Y-67310000D01*
X12700000Y-64770000D02*
X12700000Y-67310000D01*
X5080000Y-64770000D02*
X12700000Y-64770000D01*
X5080000Y-67310000D02*
X5080000Y-64770000D01*
%TO.C,REF\u002A\u002A11*%
X17780000Y-69850000D02*
X27940000Y-69850000D01*
X17780000Y-67310000D02*
X17780000Y-69850000D01*
X27940000Y-67310000D02*
X17780000Y-67310000D01*
X27940000Y-69850000D02*
X27940000Y-67310000D01*
X12700000Y-69850000D02*
X5080000Y-69850000D01*
X12700000Y-67310000D02*
X12700000Y-69850000D01*
X5080000Y-67310000D02*
X12700000Y-67310000D01*
X5080000Y-69850000D02*
X5080000Y-67310000D01*
%TO.C,REF\u002A\u002A10*%
X17780000Y-72390000D02*
X27940000Y-72390000D01*
X17780000Y-69850000D02*
X17780000Y-72390000D01*
X27940000Y-69850000D02*
X17780000Y-69850000D01*
X27940000Y-72390000D02*
X27940000Y-69850000D01*
X12700000Y-72390000D02*
X5080000Y-72390000D01*
X12700000Y-69850000D02*
X12700000Y-72390000D01*
X5080000Y-69850000D02*
X12700000Y-69850000D01*
X5080000Y-72390000D02*
X5080000Y-69850000D01*
%TO.C,REF\u002A\u002A9*%
X17780000Y-74930000D02*
X27940000Y-74930000D01*
X17780000Y-72390000D02*
X17780000Y-74930000D01*
X27940000Y-72390000D02*
X17780000Y-72390000D01*
X27940000Y-74930000D02*
X27940000Y-72390000D01*
X12700000Y-74930000D02*
X5080000Y-74930000D01*
X12700000Y-72390000D02*
X12700000Y-74930000D01*
X5080000Y-72390000D02*
X12700000Y-72390000D01*
X5080000Y-74930000D02*
X5080000Y-72390000D01*
%TO.C,REF\u002A\u002A8*%
X17780000Y-77470000D02*
X27940000Y-77470000D01*
X17780000Y-74930000D02*
X17780000Y-77470000D01*
X27940000Y-74930000D02*
X17780000Y-74930000D01*
X27940000Y-77470000D02*
X27940000Y-74930000D01*
X12700000Y-77470000D02*
X5080000Y-77470000D01*
X12700000Y-74930000D02*
X12700000Y-77470000D01*
X5080000Y-74930000D02*
X12700000Y-74930000D01*
X5080000Y-77470000D02*
X5080000Y-74930000D01*
%TO.C,REF\u002A\u002A7*%
X17780000Y-80010000D02*
X27940000Y-80010000D01*
X17780000Y-77470000D02*
X17780000Y-80010000D01*
X27940000Y-77470000D02*
X17780000Y-77470000D01*
X27940000Y-80010000D02*
X27940000Y-77470000D01*
X12700000Y-80010000D02*
X5080000Y-80010000D01*
X12700000Y-77470000D02*
X12700000Y-80010000D01*
X5080000Y-77470000D02*
X12700000Y-77470000D01*
X5080000Y-80010000D02*
X5080000Y-77470000D01*
%TO.C,REF\u002A\u002A6*%
X17780000Y-82550000D02*
X27940000Y-82550000D01*
X17780000Y-80010000D02*
X17780000Y-82550000D01*
X27940000Y-80010000D02*
X17780000Y-80010000D01*
X27940000Y-82550000D02*
X27940000Y-80010000D01*
X12700000Y-82550000D02*
X5080000Y-82550000D01*
X12700000Y-80010000D02*
X12700000Y-82550000D01*
X5080000Y-80010000D02*
X12700000Y-80010000D01*
X5080000Y-82550000D02*
X5080000Y-80010000D01*
%TO.C,REF\u002A\u002A5*%
X17780000Y-85090000D02*
X27940000Y-85090000D01*
X17780000Y-82550000D02*
X17780000Y-85090000D01*
X27940000Y-82550000D02*
X17780000Y-82550000D01*
X27940000Y-85090000D02*
X27940000Y-82550000D01*
X12700000Y-85090000D02*
X5080000Y-85090000D01*
X12700000Y-82550000D02*
X12700000Y-85090000D01*
X5080000Y-82550000D02*
X12700000Y-82550000D01*
X5080000Y-85090000D02*
X5080000Y-82550000D01*
%TO.C,REF\u002A\u002A4*%
X17780000Y-87630000D02*
X27940000Y-87630000D01*
X17780000Y-85090000D02*
X17780000Y-87630000D01*
X27940000Y-85090000D02*
X17780000Y-85090000D01*
X27940000Y-87630000D02*
X27940000Y-85090000D01*
X12700000Y-87630000D02*
X5080000Y-87630000D01*
X12700000Y-85090000D02*
X12700000Y-87630000D01*
X5080000Y-85090000D02*
X12700000Y-85090000D01*
X5080000Y-87630000D02*
X5080000Y-85090000D01*
%TO.C,REF\u002A\u002A3*%
X17780000Y-92710000D02*
X27940000Y-92710000D01*
X17780000Y-90170000D02*
X17780000Y-92710000D01*
X27940000Y-90170000D02*
X17780000Y-90170000D01*
X27940000Y-92710000D02*
X27940000Y-90170000D01*
X12700000Y-92710000D02*
X5080000Y-92710000D01*
X12700000Y-90170000D02*
X12700000Y-92710000D01*
X5080000Y-90170000D02*
X12700000Y-90170000D01*
X5080000Y-92710000D02*
X5080000Y-90170000D01*
X63500000Y-90170000D02*
X73660000Y-90170000D01*
X63500000Y-87630000D02*
X63500000Y-90170000D01*
X73660000Y-87630000D02*
X63500000Y-87630000D01*
X73660000Y-90170000D02*
X73660000Y-87630000D01*
X58420000Y-90170000D02*
X50800000Y-90170000D01*
X58420000Y-87630000D02*
X58420000Y-90170000D01*
X50800000Y-87630000D02*
X58420000Y-87630000D01*
X50800000Y-90170000D02*
X50800000Y-87630000D01*
%TO.C,REF\u002A\u002A4*%
X63500000Y-87630000D02*
X73660000Y-87630000D01*
X63500000Y-85090000D02*
X63500000Y-87630000D01*
X73660000Y-85090000D02*
X63500000Y-85090000D01*
X73660000Y-87630000D02*
X73660000Y-85090000D01*
X58420000Y-87630000D02*
X50800000Y-87630000D01*
X58420000Y-85090000D02*
X58420000Y-87630000D01*
X50800000Y-85090000D02*
X58420000Y-85090000D01*
X50800000Y-87630000D02*
X50800000Y-85090000D01*
%TO.C,REF\u002A\u002A5*%
X63500000Y-85090000D02*
X73660000Y-85090000D01*
X63500000Y-82550000D02*
X63500000Y-85090000D01*
X73660000Y-82550000D02*
X63500000Y-82550000D01*
X73660000Y-85090000D02*
X73660000Y-82550000D01*
X58420000Y-85090000D02*
X50800000Y-85090000D01*
X58420000Y-82550000D02*
X58420000Y-85090000D01*
X50800000Y-82550000D02*
X58420000Y-82550000D01*
X50800000Y-85090000D02*
X50800000Y-82550000D01*
%TO.C,REF\u002A\u002A6*%
X63500000Y-82550000D02*
X73660000Y-82550000D01*
X63500000Y-80010000D02*
X63500000Y-82550000D01*
X73660000Y-80010000D02*
X63500000Y-80010000D01*
X73660000Y-82550000D02*
X73660000Y-80010000D01*
X58420000Y-82550000D02*
X50800000Y-82550000D01*
X58420000Y-80010000D02*
X58420000Y-82550000D01*
X50800000Y-80010000D02*
X58420000Y-80010000D01*
X50800000Y-82550000D02*
X50800000Y-80010000D01*
%TO.C,REF\u002A\u002A7*%
X63500000Y-80010000D02*
X73660000Y-80010000D01*
X63500000Y-77470000D02*
X63500000Y-80010000D01*
X73660000Y-77470000D02*
X63500000Y-77470000D01*
X73660000Y-80010000D02*
X73660000Y-77470000D01*
X58420000Y-80010000D02*
X50800000Y-80010000D01*
X58420000Y-77470000D02*
X58420000Y-80010000D01*
X50800000Y-77470000D02*
X58420000Y-77470000D01*
X50800000Y-80010000D02*
X50800000Y-77470000D01*
%TO.C,REF\u002A\u002A8*%
X63500000Y-77470000D02*
X73660000Y-77470000D01*
X63500000Y-74930000D02*
X63500000Y-77470000D01*
X73660000Y-74930000D02*
X63500000Y-74930000D01*
X73660000Y-77470000D02*
X73660000Y-74930000D01*
X58420000Y-77470000D02*
X50800000Y-77470000D01*
X58420000Y-74930000D02*
X58420000Y-77470000D01*
X50800000Y-74930000D02*
X58420000Y-74930000D01*
X50800000Y-77470000D02*
X50800000Y-74930000D01*
%TO.C,REF\u002A\u002A9*%
X63500000Y-74930000D02*
X73660000Y-74930000D01*
X63500000Y-72390000D02*
X63500000Y-74930000D01*
X73660000Y-72390000D02*
X63500000Y-72390000D01*
X73660000Y-74930000D02*
X73660000Y-72390000D01*
X58420000Y-74930000D02*
X50800000Y-74930000D01*
X58420000Y-72390000D02*
X58420000Y-74930000D01*
X50800000Y-72390000D02*
X58420000Y-72390000D01*
X50800000Y-74930000D02*
X50800000Y-72390000D01*
%TO.C,REF\u002A\u002A10*%
X63500000Y-72390000D02*
X73660000Y-72390000D01*
X63500000Y-69850000D02*
X63500000Y-72390000D01*
X73660000Y-69850000D02*
X63500000Y-69850000D01*
X73660000Y-72390000D02*
X73660000Y-69850000D01*
X58420000Y-72390000D02*
X50800000Y-72390000D01*
X58420000Y-69850000D02*
X58420000Y-72390000D01*
X50800000Y-69850000D02*
X58420000Y-69850000D01*
X50800000Y-72390000D02*
X50800000Y-69850000D01*
%TO.C,REF\u002A\u002A11*%
X63500000Y-69850000D02*
X73660000Y-69850000D01*
X63500000Y-67310000D02*
X63500000Y-69850000D01*
X73660000Y-67310000D02*
X63500000Y-67310000D01*
X73660000Y-69850000D02*
X73660000Y-67310000D01*
X58420000Y-69850000D02*
X50800000Y-69850000D01*
X58420000Y-67310000D02*
X58420000Y-69850000D01*
X50800000Y-67310000D02*
X58420000Y-67310000D01*
X50800000Y-69850000D02*
X50800000Y-67310000D01*
%TO.C,REF\u002A\u002A12*%
X63500000Y-67310000D02*
X73660000Y-67310000D01*
X63500000Y-64770000D02*
X63500000Y-67310000D01*
X73660000Y-64770000D02*
X63500000Y-64770000D01*
X73660000Y-67310000D02*
X73660000Y-64770000D01*
X58420000Y-67310000D02*
X50800000Y-67310000D01*
X58420000Y-64770000D02*
X58420000Y-67310000D01*
X50800000Y-64770000D02*
X58420000Y-64770000D01*
X50800000Y-67310000D02*
X50800000Y-64770000D01*
%TO.C,REF\u002A\u002A13*%
X63500000Y-64770000D02*
X73660000Y-64770000D01*
X63500000Y-62230000D02*
X63500000Y-64770000D01*
X73660000Y-62230000D02*
X63500000Y-62230000D01*
X73660000Y-64770000D02*
X73660000Y-62230000D01*
X58420000Y-64770000D02*
X50800000Y-64770000D01*
X58420000Y-62230000D02*
X58420000Y-64770000D01*
X50800000Y-62230000D02*
X58420000Y-62230000D01*
X50800000Y-64770000D02*
X50800000Y-62230000D01*
%TO.C,REF\u002A\u002A14*%
X63500000Y-62230000D02*
X73660000Y-62230000D01*
X63500000Y-59690000D02*
X63500000Y-62230000D01*
X73660000Y-59690000D02*
X63500000Y-59690000D01*
X73660000Y-62230000D02*
X73660000Y-59690000D01*
X58420000Y-62230000D02*
X50800000Y-62230000D01*
X58420000Y-59690000D02*
X58420000Y-62230000D01*
X50800000Y-59690000D02*
X58420000Y-59690000D01*
X50800000Y-62230000D02*
X50800000Y-59690000D01*
%TO.C,REF\u002A\u002A15*%
X63500000Y-59690000D02*
X73660000Y-59690000D01*
X63500000Y-57150000D02*
X63500000Y-59690000D01*
X73660000Y-57150000D02*
X63500000Y-57150000D01*
X73660000Y-59690000D02*
X73660000Y-57150000D01*
X58420000Y-59690000D02*
X50800000Y-59690000D01*
X58420000Y-57150000D02*
X58420000Y-59690000D01*
X50800000Y-57150000D02*
X58420000Y-57150000D01*
X50800000Y-59690000D02*
X50800000Y-57150000D01*
%TO.C,REF\u002A\u002A16*%
X63500000Y-57150000D02*
X73660000Y-57150000D01*
X63500000Y-54610000D02*
X63500000Y-57150000D01*
X73660000Y-54610000D02*
X63500000Y-54610000D01*
X73660000Y-57150000D02*
X73660000Y-54610000D01*
X58420000Y-57150000D02*
X50800000Y-57150000D01*
X58420000Y-54610000D02*
X58420000Y-57150000D01*
X50800000Y-54610000D02*
X58420000Y-54610000D01*
X50800000Y-57150000D02*
X50800000Y-54610000D01*
%TO.C,REF\u002A\u002A17*%
X63500000Y-54610000D02*
X73660000Y-54610000D01*
X63500000Y-52070000D02*
X63500000Y-54610000D01*
X73660000Y-52070000D02*
X63500000Y-52070000D01*
X73660000Y-54610000D02*
X73660000Y-52070000D01*
X58420000Y-54610000D02*
X50800000Y-54610000D01*
X58420000Y-52070000D02*
X58420000Y-54610000D01*
X50800000Y-52070000D02*
X58420000Y-52070000D01*
X50800000Y-54610000D02*
X50800000Y-52070000D01*
%TO.C,REF\u002A\u002A18*%
X63500000Y-52070000D02*
X73660000Y-52070000D01*
X63500000Y-49530000D02*
X63500000Y-52070000D01*
X73660000Y-49530000D02*
X63500000Y-49530000D01*
X73660000Y-52070000D02*
X73660000Y-49530000D01*
X58420000Y-52070000D02*
X50800000Y-52070000D01*
X58420000Y-49530000D02*
X58420000Y-52070000D01*
X50800000Y-49530000D02*
X58420000Y-49530000D01*
X50800000Y-52070000D02*
X50800000Y-49530000D01*
%TO.C,REF\u002A\u002A19*%
X63500000Y-49530000D02*
X73660000Y-49530000D01*
X63500000Y-46990000D02*
X63500000Y-49530000D01*
X73660000Y-46990000D02*
X63500000Y-46990000D01*
X73660000Y-49530000D02*
X73660000Y-46990000D01*
X58420000Y-49530000D02*
X50800000Y-49530000D01*
X58420000Y-46990000D02*
X58420000Y-49530000D01*
X50800000Y-46990000D02*
X58420000Y-46990000D01*
X50800000Y-49530000D02*
X50800000Y-46990000D01*
%TO.C,REF\u002A\u002A20*%
X63500000Y-46990000D02*
X73660000Y-46990000D01*
X63500000Y-44450000D02*
X63500000Y-46990000D01*
X73660000Y-44450000D02*
X63500000Y-44450000D01*
X73660000Y-46990000D02*
X73660000Y-44450000D01*
X58420000Y-46990000D02*
X50800000Y-46990000D01*
X58420000Y-44450000D02*
X58420000Y-46990000D01*
X50800000Y-44450000D02*
X58420000Y-44450000D01*
X50800000Y-46990000D02*
X50800000Y-44450000D01*
%TO.C,REF\u002A\u002A21*%
X63500000Y-44450000D02*
X73660000Y-44450000D01*
X63500000Y-41910000D02*
X63500000Y-44450000D01*
X73660000Y-41910000D02*
X63500000Y-41910000D01*
X73660000Y-44450000D02*
X73660000Y-41910000D01*
X58420000Y-44450000D02*
X50800000Y-44450000D01*
X58420000Y-41910000D02*
X58420000Y-44450000D01*
X50800000Y-41910000D02*
X58420000Y-41910000D01*
X50800000Y-44450000D02*
X50800000Y-41910000D01*
%TO.C,REF\u002A\u002A22*%
X63500000Y-41910000D02*
X73660000Y-41910000D01*
X63500000Y-39370000D02*
X63500000Y-41910000D01*
X73660000Y-39370000D02*
X63500000Y-39370000D01*
X73660000Y-41910000D02*
X73660000Y-39370000D01*
X58420000Y-41910000D02*
X50800000Y-41910000D01*
X58420000Y-39370000D02*
X58420000Y-41910000D01*
X50800000Y-39370000D02*
X58420000Y-39370000D01*
X50800000Y-41910000D02*
X50800000Y-39370000D01*
%TO.C,REF\u002A\u002A23*%
X63500000Y-39370000D02*
X73660000Y-39370000D01*
X63500000Y-36830000D02*
X63500000Y-39370000D01*
X73660000Y-36830000D02*
X63500000Y-36830000D01*
X73660000Y-39370000D02*
X73660000Y-36830000D01*
X58420000Y-39370000D02*
X50800000Y-39370000D01*
X58420000Y-36830000D02*
X58420000Y-39370000D01*
X50800000Y-36830000D02*
X58420000Y-36830000D01*
X50800000Y-39370000D02*
X50800000Y-36830000D01*
%TO.C,REF\u002A\u002A24*%
X63500000Y-36830000D02*
X73660000Y-36830000D01*
X63500000Y-34290000D02*
X63500000Y-36830000D01*
X73660000Y-34290000D02*
X63500000Y-34290000D01*
X73660000Y-36830000D02*
X73660000Y-34290000D01*
X58420000Y-36830000D02*
X50800000Y-36830000D01*
X58420000Y-34290000D02*
X58420000Y-36830000D01*
X50800000Y-34290000D02*
X58420000Y-34290000D01*
X50800000Y-36830000D02*
X50800000Y-34290000D01*
%TO.C,REF\u002A\u002A25*%
X63500000Y-34290000D02*
X73660000Y-34290000D01*
X63500000Y-31750000D02*
X63500000Y-34290000D01*
X73660000Y-31750000D02*
X63500000Y-31750000D01*
X73660000Y-34290000D02*
X73660000Y-31750000D01*
X58420000Y-34290000D02*
X50800000Y-34290000D01*
X58420000Y-31750000D02*
X58420000Y-34290000D01*
X50800000Y-31750000D02*
X58420000Y-31750000D01*
X50800000Y-34290000D02*
X50800000Y-31750000D01*
%TO.C,REF\u002A\u002A26*%
X63500000Y-31750000D02*
X73660000Y-31750000D01*
X63500000Y-29210000D02*
X63500000Y-31750000D01*
X73660000Y-29210000D02*
X63500000Y-29210000D01*
X73660000Y-31750000D02*
X73660000Y-29210000D01*
X58420000Y-31750000D02*
X50800000Y-31750000D01*
X58420000Y-29210000D02*
X58420000Y-31750000D01*
X50800000Y-29210000D02*
X58420000Y-29210000D01*
X50800000Y-31750000D02*
X50800000Y-29210000D01*
%TO.C,REF\u002A\u002A27*%
X63500000Y-21590000D02*
X73660000Y-21590000D01*
X63500000Y-19050000D02*
X63500000Y-21590000D01*
X73660000Y-19050000D02*
X63500000Y-19050000D01*
X73660000Y-21590000D02*
X73660000Y-19050000D01*
X58420000Y-21590000D02*
X50800000Y-21590000D01*
X58420000Y-19050000D02*
X58420000Y-21590000D01*
X50800000Y-19050000D02*
X58420000Y-19050000D01*
X50800000Y-21590000D02*
X50800000Y-19050000D01*
X63500000Y-21590000D02*
X73660000Y-21590000D01*
X63500000Y-19050000D02*
X63500000Y-21590000D01*
X73660000Y-19050000D02*
X63500000Y-19050000D01*
X73660000Y-21590000D02*
X73660000Y-19050000D01*
X58420000Y-21590000D02*
X50800000Y-21590000D01*
X58420000Y-19050000D02*
X58420000Y-21590000D01*
X50800000Y-19050000D02*
X58420000Y-19050000D01*
X50800000Y-21590000D02*
X50800000Y-19050000D01*
%TO.C,REF\u002A\u002A26*%
X63500000Y-31750000D02*
X73660000Y-31750000D01*
X63500000Y-29210000D02*
X63500000Y-31750000D01*
X73660000Y-29210000D02*
X63500000Y-29210000D01*
X73660000Y-31750000D02*
X73660000Y-29210000D01*
X58420000Y-31750000D02*
X50800000Y-31750000D01*
X58420000Y-29210000D02*
X58420000Y-31750000D01*
X50800000Y-29210000D02*
X58420000Y-29210000D01*
X50800000Y-31750000D02*
X50800000Y-29210000D01*
%TO.C,REF\u002A\u002A25*%
X63500000Y-34290000D02*
X73660000Y-34290000D01*
X63500000Y-31750000D02*
X63500000Y-34290000D01*
X73660000Y-31750000D02*
X63500000Y-31750000D01*
X73660000Y-34290000D02*
X73660000Y-31750000D01*
X58420000Y-34290000D02*
X50800000Y-34290000D01*
X58420000Y-31750000D02*
X58420000Y-34290000D01*
X50800000Y-31750000D02*
X58420000Y-31750000D01*
X50800000Y-34290000D02*
X50800000Y-31750000D01*
%TO.C,REF\u002A\u002A24*%
X63500000Y-36830000D02*
X73660000Y-36830000D01*
X63500000Y-34290000D02*
X63500000Y-36830000D01*
X73660000Y-34290000D02*
X63500000Y-34290000D01*
X73660000Y-36830000D02*
X73660000Y-34290000D01*
X58420000Y-36830000D02*
X50800000Y-36830000D01*
X58420000Y-34290000D02*
X58420000Y-36830000D01*
X50800000Y-34290000D02*
X58420000Y-34290000D01*
X50800000Y-36830000D02*
X50800000Y-34290000D01*
%TO.C,REF\u002A\u002A23*%
X63500000Y-39370000D02*
X73660000Y-39370000D01*
X63500000Y-36830000D02*
X63500000Y-39370000D01*
X73660000Y-36830000D02*
X63500000Y-36830000D01*
X73660000Y-39370000D02*
X73660000Y-36830000D01*
X58420000Y-39370000D02*
X50800000Y-39370000D01*
X58420000Y-36830000D02*
X58420000Y-39370000D01*
X50800000Y-36830000D02*
X58420000Y-36830000D01*
X50800000Y-39370000D02*
X50800000Y-36830000D01*
%TO.C,REF\u002A\u002A22*%
X63500000Y-41910000D02*
X73660000Y-41910000D01*
X63500000Y-39370000D02*
X63500000Y-41910000D01*
X73660000Y-39370000D02*
X63500000Y-39370000D01*
X73660000Y-41910000D02*
X73660000Y-39370000D01*
X58420000Y-41910000D02*
X50800000Y-41910000D01*
X58420000Y-39370000D02*
X58420000Y-41910000D01*
X50800000Y-39370000D02*
X58420000Y-39370000D01*
X50800000Y-41910000D02*
X50800000Y-39370000D01*
%TO.C,REF\u002A\u002A21*%
X63500000Y-44450000D02*
X73660000Y-44450000D01*
X63500000Y-41910000D02*
X63500000Y-44450000D01*
X73660000Y-41910000D02*
X63500000Y-41910000D01*
X73660000Y-44450000D02*
X73660000Y-41910000D01*
X58420000Y-44450000D02*
X50800000Y-44450000D01*
X58420000Y-41910000D02*
X58420000Y-44450000D01*
X50800000Y-41910000D02*
X58420000Y-41910000D01*
X50800000Y-44450000D02*
X50800000Y-41910000D01*
%TO.C,REF\u002A\u002A20*%
X63500000Y-46990000D02*
X73660000Y-46990000D01*
X63500000Y-44450000D02*
X63500000Y-46990000D01*
X73660000Y-44450000D02*
X63500000Y-44450000D01*
X73660000Y-46990000D02*
X73660000Y-44450000D01*
X58420000Y-46990000D02*
X50800000Y-46990000D01*
X58420000Y-44450000D02*
X58420000Y-46990000D01*
X50800000Y-44450000D02*
X58420000Y-44450000D01*
X50800000Y-46990000D02*
X50800000Y-44450000D01*
%TO.C,REF\u002A\u002A19*%
X63500000Y-49530000D02*
X73660000Y-49530000D01*
X63500000Y-46990000D02*
X63500000Y-49530000D01*
X73660000Y-46990000D02*
X63500000Y-46990000D01*
X73660000Y-49530000D02*
X73660000Y-46990000D01*
X58420000Y-49530000D02*
X50800000Y-49530000D01*
X58420000Y-46990000D02*
X58420000Y-49530000D01*
X50800000Y-46990000D02*
X58420000Y-46990000D01*
X50800000Y-49530000D02*
X50800000Y-46990000D01*
%TO.C,REF\u002A\u002A18*%
X63500000Y-52070000D02*
X73660000Y-52070000D01*
X63500000Y-49530000D02*
X63500000Y-52070000D01*
X73660000Y-49530000D02*
X63500000Y-49530000D01*
X73660000Y-52070000D02*
X73660000Y-49530000D01*
X58420000Y-52070000D02*
X50800000Y-52070000D01*
X58420000Y-49530000D02*
X58420000Y-52070000D01*
X50800000Y-49530000D02*
X58420000Y-49530000D01*
X50800000Y-52070000D02*
X50800000Y-49530000D01*
%TO.C,REF\u002A\u002A17*%
X63500000Y-54610000D02*
X73660000Y-54610000D01*
X63500000Y-52070000D02*
X63500000Y-54610000D01*
X73660000Y-52070000D02*
X63500000Y-52070000D01*
X73660000Y-54610000D02*
X73660000Y-52070000D01*
X58420000Y-54610000D02*
X50800000Y-54610000D01*
X58420000Y-52070000D02*
X58420000Y-54610000D01*
X50800000Y-52070000D02*
X58420000Y-52070000D01*
X50800000Y-54610000D02*
X50800000Y-52070000D01*
%TO.C,REF\u002A\u002A16*%
X63500000Y-57150000D02*
X73660000Y-57150000D01*
X63500000Y-54610000D02*
X63500000Y-57150000D01*
X73660000Y-54610000D02*
X63500000Y-54610000D01*
X73660000Y-57150000D02*
X73660000Y-54610000D01*
X58420000Y-57150000D02*
X50800000Y-57150000D01*
X58420000Y-54610000D02*
X58420000Y-57150000D01*
X50800000Y-54610000D02*
X58420000Y-54610000D01*
X50800000Y-57150000D02*
X50800000Y-54610000D01*
%TO.C,REF\u002A\u002A15*%
X63500000Y-59690000D02*
X73660000Y-59690000D01*
X63500000Y-57150000D02*
X63500000Y-59690000D01*
X73660000Y-57150000D02*
X63500000Y-57150000D01*
X73660000Y-59690000D02*
X73660000Y-57150000D01*
X58420000Y-59690000D02*
X50800000Y-59690000D01*
X58420000Y-57150000D02*
X58420000Y-59690000D01*
X50800000Y-57150000D02*
X58420000Y-57150000D01*
X50800000Y-59690000D02*
X50800000Y-57150000D01*
%TO.C,REF\u002A\u002A14*%
X63500000Y-62230000D02*
X73660000Y-62230000D01*
X63500000Y-59690000D02*
X63500000Y-62230000D01*
X73660000Y-59690000D02*
X63500000Y-59690000D01*
X73660000Y-62230000D02*
X73660000Y-59690000D01*
X58420000Y-62230000D02*
X50800000Y-62230000D01*
X58420000Y-59690000D02*
X58420000Y-62230000D01*
X50800000Y-59690000D02*
X58420000Y-59690000D01*
X50800000Y-62230000D02*
X50800000Y-59690000D01*
%TO.C,REF\u002A\u002A13*%
X63500000Y-64770000D02*
X73660000Y-64770000D01*
X63500000Y-62230000D02*
X63500000Y-64770000D01*
X73660000Y-62230000D02*
X63500000Y-62230000D01*
X73660000Y-64770000D02*
X73660000Y-62230000D01*
X58420000Y-64770000D02*
X50800000Y-64770000D01*
X58420000Y-62230000D02*
X58420000Y-64770000D01*
X50800000Y-62230000D02*
X58420000Y-62230000D01*
X50800000Y-64770000D02*
X50800000Y-62230000D01*
%TO.C,REF\u002A\u002A12*%
X63500000Y-67310000D02*
X73660000Y-67310000D01*
X63500000Y-64770000D02*
X63500000Y-67310000D01*
X73660000Y-64770000D02*
X63500000Y-64770000D01*
X73660000Y-67310000D02*
X73660000Y-64770000D01*
X58420000Y-67310000D02*
X50800000Y-67310000D01*
X58420000Y-64770000D02*
X58420000Y-67310000D01*
X50800000Y-64770000D02*
X58420000Y-64770000D01*
X50800000Y-67310000D02*
X50800000Y-64770000D01*
%TO.C,REF\u002A\u002A11*%
X63500000Y-69850000D02*
X73660000Y-69850000D01*
X63500000Y-67310000D02*
X63500000Y-69850000D01*
X73660000Y-67310000D02*
X63500000Y-67310000D01*
X73660000Y-69850000D02*
X73660000Y-67310000D01*
X58420000Y-69850000D02*
X50800000Y-69850000D01*
X58420000Y-67310000D02*
X58420000Y-69850000D01*
X50800000Y-67310000D02*
X58420000Y-67310000D01*
X50800000Y-69850000D02*
X50800000Y-67310000D01*
%TO.C,REF\u002A\u002A10*%
X63500000Y-72390000D02*
X73660000Y-72390000D01*
X63500000Y-69850000D02*
X63500000Y-72390000D01*
X73660000Y-69850000D02*
X63500000Y-69850000D01*
X73660000Y-72390000D02*
X73660000Y-69850000D01*
X58420000Y-72390000D02*
X50800000Y-72390000D01*
X58420000Y-69850000D02*
X58420000Y-72390000D01*
X50800000Y-69850000D02*
X58420000Y-69850000D01*
X50800000Y-72390000D02*
X50800000Y-69850000D01*
%TO.C,REF\u002A\u002A9*%
X63500000Y-74930000D02*
X73660000Y-74930000D01*
X63500000Y-72390000D02*
X63500000Y-74930000D01*
X73660000Y-72390000D02*
X63500000Y-72390000D01*
X73660000Y-74930000D02*
X73660000Y-72390000D01*
X58420000Y-74930000D02*
X50800000Y-74930000D01*
X58420000Y-72390000D02*
X58420000Y-74930000D01*
X50800000Y-72390000D02*
X58420000Y-72390000D01*
X50800000Y-74930000D02*
X50800000Y-72390000D01*
%TO.C,REF\u002A\u002A8*%
X63500000Y-77470000D02*
X73660000Y-77470000D01*
X63500000Y-74930000D02*
X63500000Y-77470000D01*
X73660000Y-74930000D02*
X63500000Y-74930000D01*
X73660000Y-77470000D02*
X73660000Y-74930000D01*
X58420000Y-77470000D02*
X50800000Y-77470000D01*
X58420000Y-74930000D02*
X58420000Y-77470000D01*
X50800000Y-74930000D02*
X58420000Y-74930000D01*
X50800000Y-77470000D02*
X50800000Y-74930000D01*
%TO.C,REF\u002A\u002A7*%
X63500000Y-80010000D02*
X73660000Y-80010000D01*
X63500000Y-77470000D02*
X63500000Y-80010000D01*
X73660000Y-77470000D02*
X63500000Y-77470000D01*
X73660000Y-80010000D02*
X73660000Y-77470000D01*
X58420000Y-80010000D02*
X50800000Y-80010000D01*
X58420000Y-77470000D02*
X58420000Y-80010000D01*
X50800000Y-77470000D02*
X58420000Y-77470000D01*
X50800000Y-80010000D02*
X50800000Y-77470000D01*
%TO.C,REF\u002A\u002A6*%
X63500000Y-82550000D02*
X73660000Y-82550000D01*
X63500000Y-80010000D02*
X63500000Y-82550000D01*
X73660000Y-80010000D02*
X63500000Y-80010000D01*
X73660000Y-82550000D02*
X73660000Y-80010000D01*
X58420000Y-82550000D02*
X50800000Y-82550000D01*
X58420000Y-80010000D02*
X58420000Y-82550000D01*
X50800000Y-80010000D02*
X58420000Y-80010000D01*
X50800000Y-82550000D02*
X50800000Y-80010000D01*
%TO.C,REF\u002A\u002A5*%
X63500000Y-85090000D02*
X73660000Y-85090000D01*
X63500000Y-82550000D02*
X63500000Y-85090000D01*
X73660000Y-82550000D02*
X63500000Y-82550000D01*
X73660000Y-85090000D02*
X73660000Y-82550000D01*
X58420000Y-85090000D02*
X50800000Y-85090000D01*
X58420000Y-82550000D02*
X58420000Y-85090000D01*
X50800000Y-82550000D02*
X58420000Y-82550000D01*
X50800000Y-85090000D02*
X50800000Y-82550000D01*
%TO.C,REF\u002A\u002A4*%
X63500000Y-87630000D02*
X73660000Y-87630000D01*
X63500000Y-85090000D02*
X63500000Y-87630000D01*
X73660000Y-85090000D02*
X63500000Y-85090000D01*
X73660000Y-87630000D02*
X73660000Y-85090000D01*
X58420000Y-87630000D02*
X50800000Y-87630000D01*
X58420000Y-85090000D02*
X58420000Y-87630000D01*
X50800000Y-85090000D02*
X58420000Y-85090000D01*
X50800000Y-87630000D02*
X50800000Y-85090000D01*
%TO.C,REF\u002A\u002A3*%
X63500000Y-92710000D02*
X73660000Y-92710000D01*
X63500000Y-90170000D02*
X63500000Y-92710000D01*
X73660000Y-90170000D02*
X63500000Y-90170000D01*
X73660000Y-92710000D02*
X73660000Y-90170000D01*
X58420000Y-92710000D02*
X50800000Y-92710000D01*
X58420000Y-90170000D02*
X58420000Y-92710000D01*
X50800000Y-90170000D02*
X58420000Y-90170000D01*
X50800000Y-92710000D02*
X50800000Y-90170000D01*
%TO.C,REF\u002A\u002A10*%
X27940000Y-90170000D02*
X38100000Y-90170000D01*
X27940000Y-87630000D02*
X27940000Y-90170000D01*
X38100000Y-87630000D02*
X27940000Y-87630000D01*
X38100000Y-90170000D02*
X38100000Y-87630000D01*
X50800000Y-90170000D02*
X43180000Y-90170000D01*
X50800000Y-87630000D02*
X50800000Y-90170000D01*
X43180000Y-87630000D02*
X50800000Y-87630000D01*
X43180000Y-90170000D02*
X43180000Y-87630000D01*
%TO.C,REF\u002A\u002A11*%
X27940000Y-87630000D02*
X38100000Y-87630000D01*
X27940000Y-85090000D02*
X27940000Y-87630000D01*
X38100000Y-85090000D02*
X27940000Y-85090000D01*
X38100000Y-87630000D02*
X38100000Y-85090000D01*
X50800000Y-87630000D02*
X43180000Y-87630000D01*
X50800000Y-85090000D02*
X50800000Y-87630000D01*
X43180000Y-85090000D02*
X50800000Y-85090000D01*
X43180000Y-87630000D02*
X43180000Y-85090000D01*
%TO.C,REF\u002A\u002A12*%
X27940000Y-85090000D02*
X38100000Y-85090000D01*
X27940000Y-82550000D02*
X27940000Y-85090000D01*
X38100000Y-82550000D02*
X27940000Y-82550000D01*
X38100000Y-85090000D02*
X38100000Y-82550000D01*
X50800000Y-85090000D02*
X43180000Y-85090000D01*
X50800000Y-82550000D02*
X50800000Y-85090000D01*
X43180000Y-82550000D02*
X50800000Y-82550000D01*
X43180000Y-85090000D02*
X43180000Y-82550000D01*
%TO.C,REF\u002A\u002A13*%
X27940000Y-82550000D02*
X38100000Y-82550000D01*
X27940000Y-80010000D02*
X27940000Y-82550000D01*
X38100000Y-80010000D02*
X27940000Y-80010000D01*
X38100000Y-82550000D02*
X38100000Y-80010000D01*
X50800000Y-82550000D02*
X43180000Y-82550000D01*
X50800000Y-80010000D02*
X50800000Y-82550000D01*
X43180000Y-80010000D02*
X50800000Y-80010000D01*
X43180000Y-82550000D02*
X43180000Y-80010000D01*
%TO.C,REF\u002A\u002A14*%
X27940000Y-80010000D02*
X38100000Y-80010000D01*
X27940000Y-77470000D02*
X27940000Y-80010000D01*
X38100000Y-77470000D02*
X27940000Y-77470000D01*
X38100000Y-80010000D02*
X38100000Y-77470000D01*
X50800000Y-80010000D02*
X43180000Y-80010000D01*
X50800000Y-77470000D02*
X50800000Y-80010000D01*
X43180000Y-77470000D02*
X50800000Y-77470000D01*
X43180000Y-80010000D02*
X43180000Y-77470000D01*
%TO.C,REF\u002A\u002A15*%
X27940000Y-77470000D02*
X38100000Y-77470000D01*
X27940000Y-74930000D02*
X27940000Y-77470000D01*
X38100000Y-74930000D02*
X27940000Y-74930000D01*
X38100000Y-77470000D02*
X38100000Y-74930000D01*
X50800000Y-77470000D02*
X43180000Y-77470000D01*
X50800000Y-74930000D02*
X50800000Y-77470000D01*
X43180000Y-74930000D02*
X50800000Y-74930000D01*
X43180000Y-77470000D02*
X43180000Y-74930000D01*
%TO.C,REF\u002A\u002A16*%
X27940000Y-74930000D02*
X38100000Y-74930000D01*
X27940000Y-72390000D02*
X27940000Y-74930000D01*
X38100000Y-72390000D02*
X27940000Y-72390000D01*
X38100000Y-74930000D02*
X38100000Y-72390000D01*
X50800000Y-74930000D02*
X43180000Y-74930000D01*
X50800000Y-72390000D02*
X50800000Y-74930000D01*
X43180000Y-72390000D02*
X50800000Y-72390000D01*
X43180000Y-74930000D02*
X43180000Y-72390000D01*
%TO.C,REF\u002A\u002A17*%
X27940000Y-72390000D02*
X38100000Y-72390000D01*
X27940000Y-69850000D02*
X27940000Y-72390000D01*
X38100000Y-69850000D02*
X27940000Y-69850000D01*
X38100000Y-72390000D02*
X38100000Y-69850000D01*
X50800000Y-72390000D02*
X43180000Y-72390000D01*
X50800000Y-69850000D02*
X50800000Y-72390000D01*
X43180000Y-69850000D02*
X50800000Y-69850000D01*
X43180000Y-72390000D02*
X43180000Y-69850000D01*
%TO.C,REF\u002A\u002A18*%
X27940000Y-69850000D02*
X38100000Y-69850000D01*
X27940000Y-67310000D02*
X27940000Y-69850000D01*
X38100000Y-67310000D02*
X27940000Y-67310000D01*
X38100000Y-69850000D02*
X38100000Y-67310000D01*
X50800000Y-69850000D02*
X43180000Y-69850000D01*
X50800000Y-67310000D02*
X50800000Y-69850000D01*
X43180000Y-67310000D02*
X50800000Y-67310000D01*
X43180000Y-69850000D02*
X43180000Y-67310000D01*
%TO.C,REF\u002A\u002A19*%
X27940000Y-67310000D02*
X38100000Y-67310000D01*
X27940000Y-64770000D02*
X27940000Y-67310000D01*
X38100000Y-64770000D02*
X27940000Y-64770000D01*
X38100000Y-67310000D02*
X38100000Y-64770000D01*
X50800000Y-67310000D02*
X43180000Y-67310000D01*
X50800000Y-64770000D02*
X50800000Y-67310000D01*
X43180000Y-64770000D02*
X50800000Y-64770000D01*
X43180000Y-67310000D02*
X43180000Y-64770000D01*
%TO.C,REF\u002A\u002A20*%
X27940000Y-64770000D02*
X38100000Y-64770000D01*
X27940000Y-62230000D02*
X27940000Y-64770000D01*
X38100000Y-62230000D02*
X27940000Y-62230000D01*
X38100000Y-64770000D02*
X38100000Y-62230000D01*
X50800000Y-64770000D02*
X43180000Y-64770000D01*
X50800000Y-62230000D02*
X50800000Y-64770000D01*
X43180000Y-62230000D02*
X50800000Y-62230000D01*
X43180000Y-64770000D02*
X43180000Y-62230000D01*
%TO.C,REF\u002A\u002A21*%
X27940000Y-62230000D02*
X38100000Y-62230000D01*
X27940000Y-59690000D02*
X27940000Y-62230000D01*
X38100000Y-59690000D02*
X27940000Y-59690000D01*
X38100000Y-62230000D02*
X38100000Y-59690000D01*
X50800000Y-62230000D02*
X43180000Y-62230000D01*
X50800000Y-59690000D02*
X50800000Y-62230000D01*
X43180000Y-59690000D02*
X50800000Y-59690000D01*
X43180000Y-62230000D02*
X43180000Y-59690000D01*
%TO.C,REF\u002A\u002A22*%
X27940000Y-59690000D02*
X38100000Y-59690000D01*
X27940000Y-57150000D02*
X27940000Y-59690000D01*
X38100000Y-57150000D02*
X27940000Y-57150000D01*
X38100000Y-59690000D02*
X38100000Y-57150000D01*
X50800000Y-59690000D02*
X43180000Y-59690000D01*
X50800000Y-57150000D02*
X50800000Y-59690000D01*
X43180000Y-57150000D02*
X50800000Y-57150000D01*
X43180000Y-59690000D02*
X43180000Y-57150000D01*
%TO.C,REF\u002A\u002A23*%
X27940000Y-57150000D02*
X38100000Y-57150000D01*
X27940000Y-54610000D02*
X27940000Y-57150000D01*
X38100000Y-54610000D02*
X27940000Y-54610000D01*
X38100000Y-57150000D02*
X38100000Y-54610000D01*
X50800000Y-57150000D02*
X43180000Y-57150000D01*
X50800000Y-54610000D02*
X50800000Y-57150000D01*
X43180000Y-54610000D02*
X50800000Y-54610000D01*
X43180000Y-57150000D02*
X43180000Y-54610000D01*
%TO.C,REF\u002A\u002A24*%
X27940000Y-54610000D02*
X38100000Y-54610000D01*
X27940000Y-52070000D02*
X27940000Y-54610000D01*
X38100000Y-52070000D02*
X27940000Y-52070000D01*
X38100000Y-54610000D02*
X38100000Y-52070000D01*
X50800000Y-54610000D02*
X43180000Y-54610000D01*
X50800000Y-52070000D02*
X50800000Y-54610000D01*
X43180000Y-52070000D02*
X50800000Y-52070000D01*
X43180000Y-54610000D02*
X43180000Y-52070000D01*
%TO.C,REF\u002A\u002A25*%
X27940000Y-52070000D02*
X38100000Y-52070000D01*
X27940000Y-49530000D02*
X27940000Y-52070000D01*
X38100000Y-49530000D02*
X27940000Y-49530000D01*
X38100000Y-52070000D02*
X38100000Y-49530000D01*
X50800000Y-52070000D02*
X43180000Y-52070000D01*
X50800000Y-49530000D02*
X50800000Y-52070000D01*
X43180000Y-49530000D02*
X50800000Y-49530000D01*
X43180000Y-52070000D02*
X43180000Y-49530000D01*
%TO.C,REF\u002A\u002A26*%
X27940000Y-49530000D02*
X38100000Y-49530000D01*
X27940000Y-46990000D02*
X27940000Y-49530000D01*
X38100000Y-46990000D02*
X27940000Y-46990000D01*
X38100000Y-49530000D02*
X38100000Y-46990000D01*
X50800000Y-49530000D02*
X43180000Y-49530000D01*
X50800000Y-46990000D02*
X50800000Y-49530000D01*
X43180000Y-46990000D02*
X50800000Y-46990000D01*
X43180000Y-49530000D02*
X43180000Y-46990000D01*
%TO.C,REF\u002A\u002A27*%
X27940000Y-46990000D02*
X38100000Y-46990000D01*
X27940000Y-44450000D02*
X27940000Y-46990000D01*
X38100000Y-44450000D02*
X27940000Y-44450000D01*
X38100000Y-46990000D02*
X38100000Y-44450000D01*
X50800000Y-46990000D02*
X43180000Y-46990000D01*
X50800000Y-44450000D02*
X50800000Y-46990000D01*
X43180000Y-44450000D02*
X50800000Y-44450000D01*
X43180000Y-46990000D02*
X43180000Y-44450000D01*
%TO.C,REF\u002A\u002A28*%
X27940000Y-44450000D02*
X38100000Y-44450000D01*
X27940000Y-41910000D02*
X27940000Y-44450000D01*
X38100000Y-41910000D02*
X27940000Y-41910000D01*
X38100000Y-44450000D02*
X38100000Y-41910000D01*
X50800000Y-44450000D02*
X43180000Y-44450000D01*
X50800000Y-41910000D02*
X50800000Y-44450000D01*
X43180000Y-41910000D02*
X50800000Y-41910000D01*
X43180000Y-44450000D02*
X43180000Y-41910000D01*
%TO.C,REF\u002A\u002A29*%
X27940000Y-41910000D02*
X38100000Y-41910000D01*
X27940000Y-39370000D02*
X27940000Y-41910000D01*
X38100000Y-39370000D02*
X27940000Y-39370000D01*
X38100000Y-41910000D02*
X38100000Y-39370000D01*
X50800000Y-41910000D02*
X43180000Y-41910000D01*
X50800000Y-39370000D02*
X50800000Y-41910000D01*
X43180000Y-39370000D02*
X50800000Y-39370000D01*
X43180000Y-41910000D02*
X43180000Y-39370000D01*
%TO.C,REF\u002A\u002A30*%
X27940000Y-39370000D02*
X38100000Y-39370000D01*
X27940000Y-36830000D02*
X27940000Y-39370000D01*
X38100000Y-36830000D02*
X27940000Y-36830000D01*
X38100000Y-39370000D02*
X38100000Y-36830000D01*
X50800000Y-39370000D02*
X43180000Y-39370000D01*
X50800000Y-36830000D02*
X50800000Y-39370000D01*
X43180000Y-36830000D02*
X50800000Y-36830000D01*
X43180000Y-39370000D02*
X43180000Y-36830000D01*
%TO.C,REF\u002A\u002A31*%
X27940000Y-36830000D02*
X38100000Y-36830000D01*
X27940000Y-34290000D02*
X27940000Y-36830000D01*
X38100000Y-34290000D02*
X27940000Y-34290000D01*
X38100000Y-36830000D02*
X38100000Y-34290000D01*
X50800000Y-36830000D02*
X43180000Y-36830000D01*
X50800000Y-34290000D02*
X50800000Y-36830000D01*
X43180000Y-34290000D02*
X50800000Y-34290000D01*
X43180000Y-36830000D02*
X43180000Y-34290000D01*
%TO.C,REF\u002A\u002A32*%
X27940000Y-34290000D02*
X38100000Y-34290000D01*
X27940000Y-31750000D02*
X27940000Y-34290000D01*
X38100000Y-31750000D02*
X27940000Y-31750000D01*
X38100000Y-34290000D02*
X38100000Y-31750000D01*
X50800000Y-34290000D02*
X43180000Y-34290000D01*
X50800000Y-31750000D02*
X50800000Y-34290000D01*
X43180000Y-31750000D02*
X50800000Y-31750000D01*
X43180000Y-34290000D02*
X43180000Y-31750000D01*
%TO.C,REF\u002A\u002A33*%
X27940000Y-31750000D02*
X38100000Y-31750000D01*
X27940000Y-29210000D02*
X27940000Y-31750000D01*
X38100000Y-29210000D02*
X27940000Y-29210000D01*
X38100000Y-31750000D02*
X38100000Y-29210000D01*
X50800000Y-31750000D02*
X43180000Y-31750000D01*
X50800000Y-29210000D02*
X50800000Y-31750000D01*
X43180000Y-29210000D02*
X50800000Y-29210000D01*
X43180000Y-31750000D02*
X43180000Y-29210000D01*
%TO.C,REF\u002A\u002A34*%
X27940000Y-21590000D02*
X38100000Y-21590000D01*
X27940000Y-19050000D02*
X27940000Y-21590000D01*
X38100000Y-19050000D02*
X27940000Y-19050000D01*
X38100000Y-21590000D02*
X38100000Y-19050000D01*
X50800000Y-21590000D02*
X43180000Y-21590000D01*
X50800000Y-19050000D02*
X50800000Y-21590000D01*
X43180000Y-19050000D02*
X50800000Y-19050000D01*
X43180000Y-21590000D02*
X43180000Y-19050000D01*
X73660000Y-21590000D02*
X83820000Y-21590000D01*
X73660000Y-19050000D02*
X73660000Y-21590000D01*
X83820000Y-19050000D02*
X73660000Y-19050000D01*
X83820000Y-21590000D02*
X83820000Y-19050000D01*
X96520000Y-21590000D02*
X88900000Y-21590000D01*
X96520000Y-19050000D02*
X96520000Y-21590000D01*
X88900000Y-19050000D02*
X96520000Y-19050000D01*
X88900000Y-21590000D02*
X88900000Y-19050000D01*
%TO.C,REF\u002A\u002A33*%
X73660000Y-31750000D02*
X83820000Y-31750000D01*
X73660000Y-29210000D02*
X73660000Y-31750000D01*
X83820000Y-29210000D02*
X73660000Y-29210000D01*
X83820000Y-31750000D02*
X83820000Y-29210000D01*
X96520000Y-31750000D02*
X88900000Y-31750000D01*
X96520000Y-29210000D02*
X96520000Y-31750000D01*
X88900000Y-29210000D02*
X96520000Y-29210000D01*
X88900000Y-31750000D02*
X88900000Y-29210000D01*
%TO.C,REF\u002A\u002A32*%
X73660000Y-34290000D02*
X83820000Y-34290000D01*
X73660000Y-31750000D02*
X73660000Y-34290000D01*
X83820000Y-31750000D02*
X73660000Y-31750000D01*
X83820000Y-34290000D02*
X83820000Y-31750000D01*
X96520000Y-34290000D02*
X88900000Y-34290000D01*
X96520000Y-31750000D02*
X96520000Y-34290000D01*
X88900000Y-31750000D02*
X96520000Y-31750000D01*
X88900000Y-34290000D02*
X88900000Y-31750000D01*
%TO.C,REF\u002A\u002A31*%
X73660000Y-36830000D02*
X83820000Y-36830000D01*
X73660000Y-34290000D02*
X73660000Y-36830000D01*
X83820000Y-34290000D02*
X73660000Y-34290000D01*
X83820000Y-36830000D02*
X83820000Y-34290000D01*
X96520000Y-36830000D02*
X88900000Y-36830000D01*
X96520000Y-34290000D02*
X96520000Y-36830000D01*
X88900000Y-34290000D02*
X96520000Y-34290000D01*
X88900000Y-36830000D02*
X88900000Y-34290000D01*
%TO.C,REF\u002A\u002A30*%
X73660000Y-39370000D02*
X83820000Y-39370000D01*
X73660000Y-36830000D02*
X73660000Y-39370000D01*
X83820000Y-36830000D02*
X73660000Y-36830000D01*
X83820000Y-39370000D02*
X83820000Y-36830000D01*
X96520000Y-39370000D02*
X88900000Y-39370000D01*
X96520000Y-36830000D02*
X96520000Y-39370000D01*
X88900000Y-36830000D02*
X96520000Y-36830000D01*
X88900000Y-39370000D02*
X88900000Y-36830000D01*
%TO.C,REF\u002A\u002A29*%
X73660000Y-41910000D02*
X83820000Y-41910000D01*
X73660000Y-39370000D02*
X73660000Y-41910000D01*
X83820000Y-39370000D02*
X73660000Y-39370000D01*
X83820000Y-41910000D02*
X83820000Y-39370000D01*
X96520000Y-41910000D02*
X88900000Y-41910000D01*
X96520000Y-39370000D02*
X96520000Y-41910000D01*
X88900000Y-39370000D02*
X96520000Y-39370000D01*
X88900000Y-41910000D02*
X88900000Y-39370000D01*
%TO.C,REF\u002A\u002A28*%
X73660000Y-44450000D02*
X83820000Y-44450000D01*
X73660000Y-41910000D02*
X73660000Y-44450000D01*
X83820000Y-41910000D02*
X73660000Y-41910000D01*
X83820000Y-44450000D02*
X83820000Y-41910000D01*
X96520000Y-44450000D02*
X88900000Y-44450000D01*
X96520000Y-41910000D02*
X96520000Y-44450000D01*
X88900000Y-41910000D02*
X96520000Y-41910000D01*
X88900000Y-44450000D02*
X88900000Y-41910000D01*
%TO.C,REF\u002A\u002A27*%
X73660000Y-46990000D02*
X83820000Y-46990000D01*
X73660000Y-44450000D02*
X73660000Y-46990000D01*
X83820000Y-44450000D02*
X73660000Y-44450000D01*
X83820000Y-46990000D02*
X83820000Y-44450000D01*
X96520000Y-46990000D02*
X88900000Y-46990000D01*
X96520000Y-44450000D02*
X96520000Y-46990000D01*
X88900000Y-44450000D02*
X96520000Y-44450000D01*
X88900000Y-46990000D02*
X88900000Y-44450000D01*
%TO.C,REF\u002A\u002A26*%
X73660000Y-49530000D02*
X83820000Y-49530000D01*
X73660000Y-46990000D02*
X73660000Y-49530000D01*
X83820000Y-46990000D02*
X73660000Y-46990000D01*
X83820000Y-49530000D02*
X83820000Y-46990000D01*
X96520000Y-49530000D02*
X88900000Y-49530000D01*
X96520000Y-46990000D02*
X96520000Y-49530000D01*
X88900000Y-46990000D02*
X96520000Y-46990000D01*
X88900000Y-49530000D02*
X88900000Y-46990000D01*
%TO.C,REF\u002A\u002A25*%
X73660000Y-52070000D02*
X83820000Y-52070000D01*
X73660000Y-49530000D02*
X73660000Y-52070000D01*
X83820000Y-49530000D02*
X73660000Y-49530000D01*
X83820000Y-52070000D02*
X83820000Y-49530000D01*
X96520000Y-52070000D02*
X88900000Y-52070000D01*
X96520000Y-49530000D02*
X96520000Y-52070000D01*
X88900000Y-49530000D02*
X96520000Y-49530000D01*
X88900000Y-52070000D02*
X88900000Y-49530000D01*
%TO.C,REF\u002A\u002A24*%
X73660000Y-54610000D02*
X83820000Y-54610000D01*
X73660000Y-52070000D02*
X73660000Y-54610000D01*
X83820000Y-52070000D02*
X73660000Y-52070000D01*
X83820000Y-54610000D02*
X83820000Y-52070000D01*
X96520000Y-54610000D02*
X88900000Y-54610000D01*
X96520000Y-52070000D02*
X96520000Y-54610000D01*
X88900000Y-52070000D02*
X96520000Y-52070000D01*
X88900000Y-54610000D02*
X88900000Y-52070000D01*
%TO.C,REF\u002A\u002A23*%
X73660000Y-57150000D02*
X83820000Y-57150000D01*
X73660000Y-54610000D02*
X73660000Y-57150000D01*
X83820000Y-54610000D02*
X73660000Y-54610000D01*
X83820000Y-57150000D02*
X83820000Y-54610000D01*
X96520000Y-57150000D02*
X88900000Y-57150000D01*
X96520000Y-54610000D02*
X96520000Y-57150000D01*
X88900000Y-54610000D02*
X96520000Y-54610000D01*
X88900000Y-57150000D02*
X88900000Y-54610000D01*
%TO.C,REF\u002A\u002A22*%
X73660000Y-59690000D02*
X83820000Y-59690000D01*
X73660000Y-57150000D02*
X73660000Y-59690000D01*
X83820000Y-57150000D02*
X73660000Y-57150000D01*
X83820000Y-59690000D02*
X83820000Y-57150000D01*
X96520000Y-59690000D02*
X88900000Y-59690000D01*
X96520000Y-57150000D02*
X96520000Y-59690000D01*
X88900000Y-57150000D02*
X96520000Y-57150000D01*
X88900000Y-59690000D02*
X88900000Y-57150000D01*
%TO.C,REF\u002A\u002A21*%
X73660000Y-62230000D02*
X83820000Y-62230000D01*
X73660000Y-59690000D02*
X73660000Y-62230000D01*
X83820000Y-59690000D02*
X73660000Y-59690000D01*
X83820000Y-62230000D02*
X83820000Y-59690000D01*
X96520000Y-62230000D02*
X88900000Y-62230000D01*
X96520000Y-59690000D02*
X96520000Y-62230000D01*
X88900000Y-59690000D02*
X96520000Y-59690000D01*
X88900000Y-62230000D02*
X88900000Y-59690000D01*
%TO.C,REF\u002A\u002A20*%
X73660000Y-64770000D02*
X83820000Y-64770000D01*
X73660000Y-62230000D02*
X73660000Y-64770000D01*
X83820000Y-62230000D02*
X73660000Y-62230000D01*
X83820000Y-64770000D02*
X83820000Y-62230000D01*
X96520000Y-64770000D02*
X88900000Y-64770000D01*
X96520000Y-62230000D02*
X96520000Y-64770000D01*
X88900000Y-62230000D02*
X96520000Y-62230000D01*
X88900000Y-64770000D02*
X88900000Y-62230000D01*
%TO.C,REF\u002A\u002A19*%
X73660000Y-67310000D02*
X83820000Y-67310000D01*
X73660000Y-64770000D02*
X73660000Y-67310000D01*
X83820000Y-64770000D02*
X73660000Y-64770000D01*
X83820000Y-67310000D02*
X83820000Y-64770000D01*
X96520000Y-67310000D02*
X88900000Y-67310000D01*
X96520000Y-64770000D02*
X96520000Y-67310000D01*
X88900000Y-64770000D02*
X96520000Y-64770000D01*
X88900000Y-67310000D02*
X88900000Y-64770000D01*
%TO.C,REF\u002A\u002A18*%
X73660000Y-69850000D02*
X83820000Y-69850000D01*
X73660000Y-67310000D02*
X73660000Y-69850000D01*
X83820000Y-67310000D02*
X73660000Y-67310000D01*
X83820000Y-69850000D02*
X83820000Y-67310000D01*
X96520000Y-69850000D02*
X88900000Y-69850000D01*
X96520000Y-67310000D02*
X96520000Y-69850000D01*
X88900000Y-67310000D02*
X96520000Y-67310000D01*
X88900000Y-69850000D02*
X88900000Y-67310000D01*
%TO.C,REF\u002A\u002A17*%
X73660000Y-72390000D02*
X83820000Y-72390000D01*
X73660000Y-69850000D02*
X73660000Y-72390000D01*
X83820000Y-69850000D02*
X73660000Y-69850000D01*
X83820000Y-72390000D02*
X83820000Y-69850000D01*
X96520000Y-72390000D02*
X88900000Y-72390000D01*
X96520000Y-69850000D02*
X96520000Y-72390000D01*
X88900000Y-69850000D02*
X96520000Y-69850000D01*
X88900000Y-72390000D02*
X88900000Y-69850000D01*
%TO.C,REF\u002A\u002A16*%
X73660000Y-74930000D02*
X83820000Y-74930000D01*
X73660000Y-72390000D02*
X73660000Y-74930000D01*
X83820000Y-72390000D02*
X73660000Y-72390000D01*
X83820000Y-74930000D02*
X83820000Y-72390000D01*
X96520000Y-74930000D02*
X88900000Y-74930000D01*
X96520000Y-72390000D02*
X96520000Y-74930000D01*
X88900000Y-72390000D02*
X96520000Y-72390000D01*
X88900000Y-74930000D02*
X88900000Y-72390000D01*
%TO.C,REF\u002A\u002A15*%
X73660000Y-77470000D02*
X83820000Y-77470000D01*
X73660000Y-74930000D02*
X73660000Y-77470000D01*
X83820000Y-74930000D02*
X73660000Y-74930000D01*
X83820000Y-77470000D02*
X83820000Y-74930000D01*
X96520000Y-77470000D02*
X88900000Y-77470000D01*
X96520000Y-74930000D02*
X96520000Y-77470000D01*
X88900000Y-74930000D02*
X96520000Y-74930000D01*
X88900000Y-77470000D02*
X88900000Y-74930000D01*
%TO.C,REF\u002A\u002A14*%
X73660000Y-80010000D02*
X83820000Y-80010000D01*
X73660000Y-77470000D02*
X73660000Y-80010000D01*
X83820000Y-77470000D02*
X73660000Y-77470000D01*
X83820000Y-80010000D02*
X83820000Y-77470000D01*
X96520000Y-80010000D02*
X88900000Y-80010000D01*
X96520000Y-77470000D02*
X96520000Y-80010000D01*
X88900000Y-77470000D02*
X96520000Y-77470000D01*
X88900000Y-80010000D02*
X88900000Y-77470000D01*
%TO.C,REF\u002A\u002A13*%
X73660000Y-82550000D02*
X83820000Y-82550000D01*
X73660000Y-80010000D02*
X73660000Y-82550000D01*
X83820000Y-80010000D02*
X73660000Y-80010000D01*
X83820000Y-82550000D02*
X83820000Y-80010000D01*
X96520000Y-82550000D02*
X88900000Y-82550000D01*
X96520000Y-80010000D02*
X96520000Y-82550000D01*
X88900000Y-80010000D02*
X96520000Y-80010000D01*
X88900000Y-82550000D02*
X88900000Y-80010000D01*
%TO.C,REF\u002A\u002A12*%
X73660000Y-85090000D02*
X83820000Y-85090000D01*
X73660000Y-82550000D02*
X73660000Y-85090000D01*
X83820000Y-82550000D02*
X73660000Y-82550000D01*
X83820000Y-85090000D02*
X83820000Y-82550000D01*
X96520000Y-85090000D02*
X88900000Y-85090000D01*
X96520000Y-82550000D02*
X96520000Y-85090000D01*
X88900000Y-82550000D02*
X96520000Y-82550000D01*
X88900000Y-85090000D02*
X88900000Y-82550000D01*
%TO.C,REF\u002A\u002A11*%
X73660000Y-87630000D02*
X83820000Y-87630000D01*
X73660000Y-85090000D02*
X73660000Y-87630000D01*
X83820000Y-85090000D02*
X73660000Y-85090000D01*
X83820000Y-87630000D02*
X83820000Y-85090000D01*
X96520000Y-87630000D02*
X88900000Y-87630000D01*
X96520000Y-85090000D02*
X96520000Y-87630000D01*
X88900000Y-85090000D02*
X96520000Y-85090000D01*
X88900000Y-87630000D02*
X88900000Y-85090000D01*
%TO.C,REF\u002A\u002A10*%
X73660000Y-90170000D02*
X83820000Y-90170000D01*
X73660000Y-87630000D02*
X73660000Y-90170000D01*
X83820000Y-87630000D02*
X73660000Y-87630000D01*
X83820000Y-90170000D02*
X83820000Y-87630000D01*
X96520000Y-90170000D02*
X88900000Y-90170000D01*
X96520000Y-87630000D02*
X96520000Y-90170000D01*
X88900000Y-87630000D02*
X96520000Y-87630000D01*
X88900000Y-90170000D02*
X88900000Y-87630000D01*
%TO.C,REF\u002A\u002A33*%
X90932000Y-3810000D02*
X89408000Y-3810000D01*
X91440000Y-1778000D02*
X91440000Y-3302000D01*
X90932000Y-1270000D02*
X91440000Y-1778000D01*
X89408000Y-1270000D02*
X90932000Y-1270000D01*
X88900000Y-1778000D02*
X89408000Y-1270000D01*
X88900000Y-3302000D02*
X88900000Y-1778000D01*
X89408000Y-3810000D02*
X88900000Y-3302000D01*
X89408000Y-11430000D02*
X88900000Y-11938000D01*
X90932000Y-13970000D02*
X91440000Y-13462000D01*
X88900000Y-13462000D02*
X89408000Y-13970000D01*
X88900000Y-11938000D02*
X88900000Y-13462000D01*
X89408000Y-11176000D02*
X90678000Y-11176000D01*
X88900000Y-10668000D02*
X89408000Y-11176000D01*
X89408000Y-4064000D02*
X88900000Y-4572000D01*
X90678000Y-4064000D02*
X89408000Y-4064000D01*
X90932000Y-11430000D02*
X90932000Y-3810000D01*
X91440000Y-3302000D02*
X91440000Y-13462000D01*
X90678000Y-4064000D02*
X90678000Y-11176000D01*
X88900000Y-4572000D02*
X88900000Y-10668000D01*
X90932000Y-13970000D02*
X89408000Y-13970000D01*
X89408000Y-11430000D02*
X90932000Y-11430000D01*
%TO.C,REF\u002A\u002A32*%
X88392000Y-3810000D02*
X86868000Y-3810000D01*
X88900000Y-1778000D02*
X88900000Y-3302000D01*
X88392000Y-1270000D02*
X88900000Y-1778000D01*
X86868000Y-1270000D02*
X88392000Y-1270000D01*
X86360000Y-1778000D02*
X86868000Y-1270000D01*
X86360000Y-3302000D02*
X86360000Y-1778000D01*
X86868000Y-3810000D02*
X86360000Y-3302000D01*
X86868000Y-11430000D02*
X86360000Y-11938000D01*
X88392000Y-13970000D02*
X88900000Y-13462000D01*
X86360000Y-13462000D02*
X86868000Y-13970000D01*
X86360000Y-11938000D02*
X86360000Y-13462000D01*
X86868000Y-11176000D02*
X88138000Y-11176000D01*
X86360000Y-10668000D02*
X86868000Y-11176000D01*
X86868000Y-4064000D02*
X86360000Y-4572000D01*
X88138000Y-4064000D02*
X86868000Y-4064000D01*
X88392000Y-11430000D02*
X88392000Y-3810000D01*
X88900000Y-3302000D02*
X88900000Y-13462000D01*
X88138000Y-4064000D02*
X88138000Y-11176000D01*
X86360000Y-4572000D02*
X86360000Y-10668000D01*
X88392000Y-13970000D02*
X86868000Y-13970000D01*
X86868000Y-11430000D02*
X88392000Y-11430000D01*
%TO.C,REF\u002A\u002A31*%
X85852000Y-3810000D02*
X84328000Y-3810000D01*
X86360000Y-1778000D02*
X86360000Y-3302000D01*
X85852000Y-1270000D02*
X86360000Y-1778000D01*
X84328000Y-1270000D02*
X85852000Y-1270000D01*
X83820000Y-1778000D02*
X84328000Y-1270000D01*
X83820000Y-3302000D02*
X83820000Y-1778000D01*
X84328000Y-3810000D02*
X83820000Y-3302000D01*
X84328000Y-11430000D02*
X83820000Y-11938000D01*
X85852000Y-13970000D02*
X86360000Y-13462000D01*
X83820000Y-13462000D02*
X84328000Y-13970000D01*
X83820000Y-11938000D02*
X83820000Y-13462000D01*
X84328000Y-11176000D02*
X85598000Y-11176000D01*
X83820000Y-10668000D02*
X84328000Y-11176000D01*
X84328000Y-4064000D02*
X83820000Y-4572000D01*
X85598000Y-4064000D02*
X84328000Y-4064000D01*
X85852000Y-11430000D02*
X85852000Y-3810000D01*
X86360000Y-3302000D02*
X86360000Y-13462000D01*
X85598000Y-4064000D02*
X85598000Y-11176000D01*
X83820000Y-4572000D02*
X83820000Y-10668000D01*
X85852000Y-13970000D02*
X84328000Y-13970000D01*
X84328000Y-11430000D02*
X85852000Y-11430000D01*
%TO.C,REF\u002A\u002A30*%
X83312000Y-3810000D02*
X81788000Y-3810000D01*
X83820000Y-1778000D02*
X83820000Y-3302000D01*
X83312000Y-1270000D02*
X83820000Y-1778000D01*
X81788000Y-1270000D02*
X83312000Y-1270000D01*
X81280000Y-1778000D02*
X81788000Y-1270000D01*
X81280000Y-3302000D02*
X81280000Y-1778000D01*
X81788000Y-3810000D02*
X81280000Y-3302000D01*
X81788000Y-11430000D02*
X81280000Y-11938000D01*
X83312000Y-13970000D02*
X83820000Y-13462000D01*
X81280000Y-13462000D02*
X81788000Y-13970000D01*
X81280000Y-11938000D02*
X81280000Y-13462000D01*
X81788000Y-11176000D02*
X83058000Y-11176000D01*
X81280000Y-10668000D02*
X81788000Y-11176000D01*
X81788000Y-4064000D02*
X81280000Y-4572000D01*
X83058000Y-4064000D02*
X81788000Y-4064000D01*
X83312000Y-11430000D02*
X83312000Y-3810000D01*
X83820000Y-3302000D02*
X83820000Y-13462000D01*
X83058000Y-4064000D02*
X83058000Y-11176000D01*
X81280000Y-4572000D02*
X81280000Y-10668000D01*
X83312000Y-13970000D02*
X81788000Y-13970000D01*
X81788000Y-11430000D02*
X83312000Y-11430000D01*
%TO.C,REF\u002A\u002A29*%
X80772000Y-3810000D02*
X79248000Y-3810000D01*
X81280000Y-1778000D02*
X81280000Y-3302000D01*
X80772000Y-1270000D02*
X81280000Y-1778000D01*
X79248000Y-1270000D02*
X80772000Y-1270000D01*
X78740000Y-1778000D02*
X79248000Y-1270000D01*
X78740000Y-3302000D02*
X78740000Y-1778000D01*
X79248000Y-3810000D02*
X78740000Y-3302000D01*
X79248000Y-11430000D02*
X78740000Y-11938000D01*
X80772000Y-13970000D02*
X81280000Y-13462000D01*
X78740000Y-13462000D02*
X79248000Y-13970000D01*
X78740000Y-11938000D02*
X78740000Y-13462000D01*
X79248000Y-11176000D02*
X80518000Y-11176000D01*
X78740000Y-10668000D02*
X79248000Y-11176000D01*
X79248000Y-4064000D02*
X78740000Y-4572000D01*
X80518000Y-4064000D02*
X79248000Y-4064000D01*
X80772000Y-11430000D02*
X80772000Y-3810000D01*
X81280000Y-3302000D02*
X81280000Y-13462000D01*
X80518000Y-4064000D02*
X80518000Y-11176000D01*
X78740000Y-4572000D02*
X78740000Y-10668000D01*
X80772000Y-13970000D02*
X79248000Y-13970000D01*
X79248000Y-11430000D02*
X80772000Y-11430000D01*
%TO.C,REF\u002A\u002A28*%
X78232000Y-3810000D02*
X76708000Y-3810000D01*
X78740000Y-1778000D02*
X78740000Y-3302000D01*
X78232000Y-1270000D02*
X78740000Y-1778000D01*
X76708000Y-1270000D02*
X78232000Y-1270000D01*
X76200000Y-1778000D02*
X76708000Y-1270000D01*
X76200000Y-3302000D02*
X76200000Y-1778000D01*
X76708000Y-3810000D02*
X76200000Y-3302000D01*
X76708000Y-11430000D02*
X76200000Y-11938000D01*
X78232000Y-13970000D02*
X78740000Y-13462000D01*
X76200000Y-13462000D02*
X76708000Y-13970000D01*
X76200000Y-11938000D02*
X76200000Y-13462000D01*
X76708000Y-11176000D02*
X77978000Y-11176000D01*
X76200000Y-10668000D02*
X76708000Y-11176000D01*
X76708000Y-4064000D02*
X76200000Y-4572000D01*
X77978000Y-4064000D02*
X76708000Y-4064000D01*
X78232000Y-11430000D02*
X78232000Y-3810000D01*
X78740000Y-3302000D02*
X78740000Y-13462000D01*
X77978000Y-4064000D02*
X77978000Y-11176000D01*
X76200000Y-4572000D02*
X76200000Y-10668000D01*
X78232000Y-13970000D02*
X76708000Y-13970000D01*
X76708000Y-11430000D02*
X78232000Y-11430000D01*
%TO.C,REF\u002A\u002A27*%
X75692000Y-3810000D02*
X74168000Y-3810000D01*
X76200000Y-1778000D02*
X76200000Y-3302000D01*
X75692000Y-1270000D02*
X76200000Y-1778000D01*
X74168000Y-1270000D02*
X75692000Y-1270000D01*
X73660000Y-1778000D02*
X74168000Y-1270000D01*
X73660000Y-3302000D02*
X73660000Y-1778000D01*
X74168000Y-3810000D02*
X73660000Y-3302000D01*
X74168000Y-11430000D02*
X73660000Y-11938000D01*
X75692000Y-13970000D02*
X76200000Y-13462000D01*
X73660000Y-13462000D02*
X74168000Y-13970000D01*
X73660000Y-11938000D02*
X73660000Y-13462000D01*
X74168000Y-11176000D02*
X75438000Y-11176000D01*
X73660000Y-10668000D02*
X74168000Y-11176000D01*
X74168000Y-4064000D02*
X73660000Y-4572000D01*
X75438000Y-4064000D02*
X74168000Y-4064000D01*
X75692000Y-11430000D02*
X75692000Y-3810000D01*
X76200000Y-3302000D02*
X76200000Y-13462000D01*
X75438000Y-4064000D02*
X75438000Y-11176000D01*
X73660000Y-4572000D02*
X73660000Y-10668000D01*
X75692000Y-13970000D02*
X74168000Y-13970000D01*
X74168000Y-11430000D02*
X75692000Y-11430000D01*
%TO.C,REF\u002A\u002A26*%
X73152000Y-3810000D02*
X71628000Y-3810000D01*
X73660000Y-1778000D02*
X73660000Y-3302000D01*
X73152000Y-1270000D02*
X73660000Y-1778000D01*
X71628000Y-1270000D02*
X73152000Y-1270000D01*
X71120000Y-1778000D02*
X71628000Y-1270000D01*
X71120000Y-3302000D02*
X71120000Y-1778000D01*
X71628000Y-3810000D02*
X71120000Y-3302000D01*
X71628000Y-11430000D02*
X71120000Y-11938000D01*
X73152000Y-13970000D02*
X73660000Y-13462000D01*
X71120000Y-13462000D02*
X71628000Y-13970000D01*
X71120000Y-11938000D02*
X71120000Y-13462000D01*
X71628000Y-11176000D02*
X72898000Y-11176000D01*
X71120000Y-10668000D02*
X71628000Y-11176000D01*
X71628000Y-4064000D02*
X71120000Y-4572000D01*
X72898000Y-4064000D02*
X71628000Y-4064000D01*
X73152000Y-11430000D02*
X73152000Y-3810000D01*
X73660000Y-3302000D02*
X73660000Y-13462000D01*
X72898000Y-4064000D02*
X72898000Y-11176000D01*
X71120000Y-4572000D02*
X71120000Y-10668000D01*
X73152000Y-13970000D02*
X71628000Y-13970000D01*
X71628000Y-11430000D02*
X73152000Y-11430000D01*
%TO.C,REF\u002A\u002A25*%
X70612000Y-3810000D02*
X69088000Y-3810000D01*
X71120000Y-1778000D02*
X71120000Y-3302000D01*
X70612000Y-1270000D02*
X71120000Y-1778000D01*
X69088000Y-1270000D02*
X70612000Y-1270000D01*
X68580000Y-1778000D02*
X69088000Y-1270000D01*
X68580000Y-3302000D02*
X68580000Y-1778000D01*
X69088000Y-3810000D02*
X68580000Y-3302000D01*
X69088000Y-11430000D02*
X68580000Y-11938000D01*
X70612000Y-13970000D02*
X71120000Y-13462000D01*
X68580000Y-13462000D02*
X69088000Y-13970000D01*
X68580000Y-11938000D02*
X68580000Y-13462000D01*
X69088000Y-11176000D02*
X70358000Y-11176000D01*
X68580000Y-10668000D02*
X69088000Y-11176000D01*
X69088000Y-4064000D02*
X68580000Y-4572000D01*
X70358000Y-4064000D02*
X69088000Y-4064000D01*
X70612000Y-11430000D02*
X70612000Y-3810000D01*
X71120000Y-3302000D02*
X71120000Y-13462000D01*
X70358000Y-4064000D02*
X70358000Y-11176000D01*
X68580000Y-4572000D02*
X68580000Y-10668000D01*
X70612000Y-13970000D02*
X69088000Y-13970000D01*
X69088000Y-11430000D02*
X70612000Y-11430000D01*
%TO.C,REF\u002A\u002A24*%
X68072000Y-3810000D02*
X66548000Y-3810000D01*
X68580000Y-1778000D02*
X68580000Y-3302000D01*
X68072000Y-1270000D02*
X68580000Y-1778000D01*
X66548000Y-1270000D02*
X68072000Y-1270000D01*
X66040000Y-1778000D02*
X66548000Y-1270000D01*
X66040000Y-3302000D02*
X66040000Y-1778000D01*
X66548000Y-3810000D02*
X66040000Y-3302000D01*
X66548000Y-11430000D02*
X66040000Y-11938000D01*
X68072000Y-13970000D02*
X68580000Y-13462000D01*
X66040000Y-13462000D02*
X66548000Y-13970000D01*
X66040000Y-11938000D02*
X66040000Y-13462000D01*
X66548000Y-11176000D02*
X67818000Y-11176000D01*
X66040000Y-10668000D02*
X66548000Y-11176000D01*
X66548000Y-4064000D02*
X66040000Y-4572000D01*
X67818000Y-4064000D02*
X66548000Y-4064000D01*
X68072000Y-11430000D02*
X68072000Y-3810000D01*
X68580000Y-3302000D02*
X68580000Y-13462000D01*
X67818000Y-4064000D02*
X67818000Y-11176000D01*
X66040000Y-4572000D02*
X66040000Y-10668000D01*
X68072000Y-13970000D02*
X66548000Y-13970000D01*
X66548000Y-11430000D02*
X68072000Y-11430000D01*
%TO.C,REF\u002A\u002A23*%
X65532000Y-3810000D02*
X64008000Y-3810000D01*
X66040000Y-1778000D02*
X66040000Y-3302000D01*
X65532000Y-1270000D02*
X66040000Y-1778000D01*
X64008000Y-1270000D02*
X65532000Y-1270000D01*
X63500000Y-1778000D02*
X64008000Y-1270000D01*
X63500000Y-3302000D02*
X63500000Y-1778000D01*
X64008000Y-3810000D02*
X63500000Y-3302000D01*
X64008000Y-11430000D02*
X63500000Y-11938000D01*
X65532000Y-13970000D02*
X66040000Y-13462000D01*
X63500000Y-13462000D02*
X64008000Y-13970000D01*
X63500000Y-11938000D02*
X63500000Y-13462000D01*
X64008000Y-11176000D02*
X65278000Y-11176000D01*
X63500000Y-10668000D02*
X64008000Y-11176000D01*
X64008000Y-4064000D02*
X63500000Y-4572000D01*
X65278000Y-4064000D02*
X64008000Y-4064000D01*
X65532000Y-11430000D02*
X65532000Y-3810000D01*
X66040000Y-3302000D02*
X66040000Y-13462000D01*
X65278000Y-4064000D02*
X65278000Y-11176000D01*
X63500000Y-4572000D02*
X63500000Y-10668000D01*
X65532000Y-13970000D02*
X64008000Y-13970000D01*
X64008000Y-11430000D02*
X65532000Y-11430000D01*
%TO.C,REF\u002A\u002A22*%
X62992000Y-3810000D02*
X61468000Y-3810000D01*
X63500000Y-1778000D02*
X63500000Y-3302000D01*
X62992000Y-1270000D02*
X63500000Y-1778000D01*
X61468000Y-1270000D02*
X62992000Y-1270000D01*
X60960000Y-1778000D02*
X61468000Y-1270000D01*
X60960000Y-3302000D02*
X60960000Y-1778000D01*
X61468000Y-3810000D02*
X60960000Y-3302000D01*
X61468000Y-11430000D02*
X60960000Y-11938000D01*
X62992000Y-13970000D02*
X63500000Y-13462000D01*
X60960000Y-13462000D02*
X61468000Y-13970000D01*
X60960000Y-11938000D02*
X60960000Y-13462000D01*
X61468000Y-11176000D02*
X62738000Y-11176000D01*
X60960000Y-10668000D02*
X61468000Y-11176000D01*
X61468000Y-4064000D02*
X60960000Y-4572000D01*
X62738000Y-4064000D02*
X61468000Y-4064000D01*
X62992000Y-11430000D02*
X62992000Y-3810000D01*
X63500000Y-3302000D02*
X63500000Y-13462000D01*
X62738000Y-4064000D02*
X62738000Y-11176000D01*
X60960000Y-4572000D02*
X60960000Y-10668000D01*
X62992000Y-13970000D02*
X61468000Y-13970000D01*
X61468000Y-11430000D02*
X62992000Y-11430000D01*
%TO.C,REF\u002A\u002A21*%
X60452000Y-3810000D02*
X58928000Y-3810000D01*
X60960000Y-1778000D02*
X60960000Y-3302000D01*
X60452000Y-1270000D02*
X60960000Y-1778000D01*
X58928000Y-1270000D02*
X60452000Y-1270000D01*
X58420000Y-1778000D02*
X58928000Y-1270000D01*
X58420000Y-3302000D02*
X58420000Y-1778000D01*
X58928000Y-3810000D02*
X58420000Y-3302000D01*
X58928000Y-11430000D02*
X58420000Y-11938000D01*
X60452000Y-13970000D02*
X60960000Y-13462000D01*
X58420000Y-13462000D02*
X58928000Y-13970000D01*
X58420000Y-11938000D02*
X58420000Y-13462000D01*
X58928000Y-11176000D02*
X60198000Y-11176000D01*
X58420000Y-10668000D02*
X58928000Y-11176000D01*
X58928000Y-4064000D02*
X58420000Y-4572000D01*
X60198000Y-4064000D02*
X58928000Y-4064000D01*
X60452000Y-11430000D02*
X60452000Y-3810000D01*
X60960000Y-3302000D02*
X60960000Y-13462000D01*
X60198000Y-4064000D02*
X60198000Y-11176000D01*
X58420000Y-4572000D02*
X58420000Y-10668000D01*
X60452000Y-13970000D02*
X58928000Y-13970000D01*
X58928000Y-11430000D02*
X60452000Y-11430000D01*
%TO.C,REF\u002A\u002A20*%
X57912000Y-3810000D02*
X56388000Y-3810000D01*
X58420000Y-1778000D02*
X58420000Y-3302000D01*
X57912000Y-1270000D02*
X58420000Y-1778000D01*
X56388000Y-1270000D02*
X57912000Y-1270000D01*
X55880000Y-1778000D02*
X56388000Y-1270000D01*
X55880000Y-3302000D02*
X55880000Y-1778000D01*
X56388000Y-3810000D02*
X55880000Y-3302000D01*
X56388000Y-11430000D02*
X55880000Y-11938000D01*
X57912000Y-13970000D02*
X58420000Y-13462000D01*
X55880000Y-13462000D02*
X56388000Y-13970000D01*
X55880000Y-11938000D02*
X55880000Y-13462000D01*
X56388000Y-11176000D02*
X57658000Y-11176000D01*
X55880000Y-10668000D02*
X56388000Y-11176000D01*
X56388000Y-4064000D02*
X55880000Y-4572000D01*
X57658000Y-4064000D02*
X56388000Y-4064000D01*
X57912000Y-11430000D02*
X57912000Y-3810000D01*
X58420000Y-3302000D02*
X58420000Y-13462000D01*
X57658000Y-4064000D02*
X57658000Y-11176000D01*
X55880000Y-4572000D02*
X55880000Y-10668000D01*
X57912000Y-13970000D02*
X56388000Y-13970000D01*
X56388000Y-11430000D02*
X57912000Y-11430000D01*
%TO.C,REF\u002A\u002A19*%
X55372000Y-3810000D02*
X53848000Y-3810000D01*
X55880000Y-1778000D02*
X55880000Y-3302000D01*
X55372000Y-1270000D02*
X55880000Y-1778000D01*
X53848000Y-1270000D02*
X55372000Y-1270000D01*
X53340000Y-1778000D02*
X53848000Y-1270000D01*
X53340000Y-3302000D02*
X53340000Y-1778000D01*
X53848000Y-3810000D02*
X53340000Y-3302000D01*
X53848000Y-11430000D02*
X53340000Y-11938000D01*
X55372000Y-13970000D02*
X55880000Y-13462000D01*
X53340000Y-13462000D02*
X53848000Y-13970000D01*
X53340000Y-11938000D02*
X53340000Y-13462000D01*
X53848000Y-11176000D02*
X55118000Y-11176000D01*
X53340000Y-10668000D02*
X53848000Y-11176000D01*
X53848000Y-4064000D02*
X53340000Y-4572000D01*
X55118000Y-4064000D02*
X53848000Y-4064000D01*
X55372000Y-11430000D02*
X55372000Y-3810000D01*
X55880000Y-3302000D02*
X55880000Y-13462000D01*
X55118000Y-4064000D02*
X55118000Y-11176000D01*
X53340000Y-4572000D02*
X53340000Y-10668000D01*
X55372000Y-13970000D02*
X53848000Y-13970000D01*
X53848000Y-11430000D02*
X55372000Y-11430000D01*
%TO.C,REF\u002A\u002A18*%
X52832000Y-3810000D02*
X51308000Y-3810000D01*
X53340000Y-1778000D02*
X53340000Y-3302000D01*
X52832000Y-1270000D02*
X53340000Y-1778000D01*
X51308000Y-1270000D02*
X52832000Y-1270000D01*
X50800000Y-1778000D02*
X51308000Y-1270000D01*
X50800000Y-3302000D02*
X50800000Y-1778000D01*
X51308000Y-3810000D02*
X50800000Y-3302000D01*
X51308000Y-11430000D02*
X50800000Y-11938000D01*
X52832000Y-13970000D02*
X53340000Y-13462000D01*
X50800000Y-13462000D02*
X51308000Y-13970000D01*
X50800000Y-11938000D02*
X50800000Y-13462000D01*
X51308000Y-11176000D02*
X52578000Y-11176000D01*
X50800000Y-10668000D02*
X51308000Y-11176000D01*
X51308000Y-4064000D02*
X50800000Y-4572000D01*
X52578000Y-4064000D02*
X51308000Y-4064000D01*
X52832000Y-11430000D02*
X52832000Y-3810000D01*
X53340000Y-3302000D02*
X53340000Y-13462000D01*
X52578000Y-4064000D02*
X52578000Y-11176000D01*
X50800000Y-4572000D02*
X50800000Y-10668000D01*
X52832000Y-13970000D02*
X51308000Y-13970000D01*
X51308000Y-11430000D02*
X52832000Y-11430000D01*
%TO.C,REF\u002A\u002A17*%
X50292000Y-3810000D02*
X48768000Y-3810000D01*
X50800000Y-1778000D02*
X50800000Y-3302000D01*
X50292000Y-1270000D02*
X50800000Y-1778000D01*
X48768000Y-1270000D02*
X50292000Y-1270000D01*
X48260000Y-1778000D02*
X48768000Y-1270000D01*
X48260000Y-3302000D02*
X48260000Y-1778000D01*
X48768000Y-3810000D02*
X48260000Y-3302000D01*
X48768000Y-11430000D02*
X48260000Y-11938000D01*
X50292000Y-13970000D02*
X50800000Y-13462000D01*
X48260000Y-13462000D02*
X48768000Y-13970000D01*
X48260000Y-11938000D02*
X48260000Y-13462000D01*
X48768000Y-11176000D02*
X50038000Y-11176000D01*
X48260000Y-10668000D02*
X48768000Y-11176000D01*
X48768000Y-4064000D02*
X48260000Y-4572000D01*
X50038000Y-4064000D02*
X48768000Y-4064000D01*
X50292000Y-11430000D02*
X50292000Y-3810000D01*
X50800000Y-3302000D02*
X50800000Y-13462000D01*
X50038000Y-4064000D02*
X50038000Y-11176000D01*
X48260000Y-4572000D02*
X48260000Y-10668000D01*
X50292000Y-13970000D02*
X48768000Y-13970000D01*
X48768000Y-11430000D02*
X50292000Y-11430000D01*
%TO.C,REF\u002A\u002A16*%
X47752000Y-3810000D02*
X46228000Y-3810000D01*
X48260000Y-1778000D02*
X48260000Y-3302000D01*
X47752000Y-1270000D02*
X48260000Y-1778000D01*
X46228000Y-1270000D02*
X47752000Y-1270000D01*
X45720000Y-1778000D02*
X46228000Y-1270000D01*
X45720000Y-3302000D02*
X45720000Y-1778000D01*
X46228000Y-3810000D02*
X45720000Y-3302000D01*
X46228000Y-11430000D02*
X45720000Y-11938000D01*
X47752000Y-13970000D02*
X48260000Y-13462000D01*
X45720000Y-13462000D02*
X46228000Y-13970000D01*
X45720000Y-11938000D02*
X45720000Y-13462000D01*
X46228000Y-11176000D02*
X47498000Y-11176000D01*
X45720000Y-10668000D02*
X46228000Y-11176000D01*
X46228000Y-4064000D02*
X45720000Y-4572000D01*
X47498000Y-4064000D02*
X46228000Y-4064000D01*
X47752000Y-11430000D02*
X47752000Y-3810000D01*
X48260000Y-3302000D02*
X48260000Y-13462000D01*
X47498000Y-4064000D02*
X47498000Y-11176000D01*
X45720000Y-4572000D02*
X45720000Y-10668000D01*
X47752000Y-13970000D02*
X46228000Y-13970000D01*
X46228000Y-11430000D02*
X47752000Y-11430000D01*
%TO.C,REF\u002A\u002A15*%
X45212000Y-3810000D02*
X43688000Y-3810000D01*
X45720000Y-1778000D02*
X45720000Y-3302000D01*
X45212000Y-1270000D02*
X45720000Y-1778000D01*
X43688000Y-1270000D02*
X45212000Y-1270000D01*
X43180000Y-1778000D02*
X43688000Y-1270000D01*
X43180000Y-3302000D02*
X43180000Y-1778000D01*
X43688000Y-3810000D02*
X43180000Y-3302000D01*
X43688000Y-11430000D02*
X43180000Y-11938000D01*
X45212000Y-13970000D02*
X45720000Y-13462000D01*
X43180000Y-13462000D02*
X43688000Y-13970000D01*
X43180000Y-11938000D02*
X43180000Y-13462000D01*
X43688000Y-11176000D02*
X44958000Y-11176000D01*
X43180000Y-10668000D02*
X43688000Y-11176000D01*
X43688000Y-4064000D02*
X43180000Y-4572000D01*
X44958000Y-4064000D02*
X43688000Y-4064000D01*
X45212000Y-11430000D02*
X45212000Y-3810000D01*
X45720000Y-3302000D02*
X45720000Y-13462000D01*
X44958000Y-4064000D02*
X44958000Y-11176000D01*
X43180000Y-4572000D02*
X43180000Y-10668000D01*
X45212000Y-13970000D02*
X43688000Y-13970000D01*
X43688000Y-11430000D02*
X45212000Y-11430000D01*
%TO.C,REF\u002A\u002A14*%
X42672000Y-3810000D02*
X41148000Y-3810000D01*
X43180000Y-1778000D02*
X43180000Y-3302000D01*
X42672000Y-1270000D02*
X43180000Y-1778000D01*
X41148000Y-1270000D02*
X42672000Y-1270000D01*
X40640000Y-1778000D02*
X41148000Y-1270000D01*
X40640000Y-3302000D02*
X40640000Y-1778000D01*
X41148000Y-3810000D02*
X40640000Y-3302000D01*
X41148000Y-11430000D02*
X40640000Y-11938000D01*
X42672000Y-13970000D02*
X43180000Y-13462000D01*
X40640000Y-13462000D02*
X41148000Y-13970000D01*
X40640000Y-11938000D02*
X40640000Y-13462000D01*
X41148000Y-11176000D02*
X42418000Y-11176000D01*
X40640000Y-10668000D02*
X41148000Y-11176000D01*
X41148000Y-4064000D02*
X40640000Y-4572000D01*
X42418000Y-4064000D02*
X41148000Y-4064000D01*
X42672000Y-11430000D02*
X42672000Y-3810000D01*
X43180000Y-3302000D02*
X43180000Y-13462000D01*
X42418000Y-4064000D02*
X42418000Y-11176000D01*
X40640000Y-4572000D02*
X40640000Y-10668000D01*
X42672000Y-13970000D02*
X41148000Y-13970000D01*
X41148000Y-11430000D02*
X42672000Y-11430000D01*
%TO.C,REF\u002A\u002A13*%
X40132000Y-3810000D02*
X38608000Y-3810000D01*
X40640000Y-1778000D02*
X40640000Y-3302000D01*
X40132000Y-1270000D02*
X40640000Y-1778000D01*
X38608000Y-1270000D02*
X40132000Y-1270000D01*
X38100000Y-1778000D02*
X38608000Y-1270000D01*
X38100000Y-3302000D02*
X38100000Y-1778000D01*
X38608000Y-3810000D02*
X38100000Y-3302000D01*
X38608000Y-11430000D02*
X38100000Y-11938000D01*
X40132000Y-13970000D02*
X40640000Y-13462000D01*
X38100000Y-13462000D02*
X38608000Y-13970000D01*
X38100000Y-11938000D02*
X38100000Y-13462000D01*
X38608000Y-11176000D02*
X39878000Y-11176000D01*
X38100000Y-10668000D02*
X38608000Y-11176000D01*
X38608000Y-4064000D02*
X38100000Y-4572000D01*
X39878000Y-4064000D02*
X38608000Y-4064000D01*
X40132000Y-11430000D02*
X40132000Y-3810000D01*
X40640000Y-3302000D02*
X40640000Y-13462000D01*
X39878000Y-4064000D02*
X39878000Y-11176000D01*
X38100000Y-4572000D02*
X38100000Y-10668000D01*
X40132000Y-13970000D02*
X38608000Y-13970000D01*
X38608000Y-11430000D02*
X40132000Y-11430000D01*
%TO.C,REF\u002A\u002A12*%
X37592000Y-3810000D02*
X36068000Y-3810000D01*
X38100000Y-1778000D02*
X38100000Y-3302000D01*
X37592000Y-1270000D02*
X38100000Y-1778000D01*
X36068000Y-1270000D02*
X37592000Y-1270000D01*
X35560000Y-1778000D02*
X36068000Y-1270000D01*
X35560000Y-3302000D02*
X35560000Y-1778000D01*
X36068000Y-3810000D02*
X35560000Y-3302000D01*
X36068000Y-11430000D02*
X35560000Y-11938000D01*
X37592000Y-13970000D02*
X38100000Y-13462000D01*
X35560000Y-13462000D02*
X36068000Y-13970000D01*
X35560000Y-11938000D02*
X35560000Y-13462000D01*
X36068000Y-11176000D02*
X37338000Y-11176000D01*
X35560000Y-10668000D02*
X36068000Y-11176000D01*
X36068000Y-4064000D02*
X35560000Y-4572000D01*
X37338000Y-4064000D02*
X36068000Y-4064000D01*
X37592000Y-11430000D02*
X37592000Y-3810000D01*
X38100000Y-3302000D02*
X38100000Y-13462000D01*
X37338000Y-4064000D02*
X37338000Y-11176000D01*
X35560000Y-4572000D02*
X35560000Y-10668000D01*
X37592000Y-13970000D02*
X36068000Y-13970000D01*
X36068000Y-11430000D02*
X37592000Y-11430000D01*
%TO.C,REF\u002A\u002A11*%
X35052000Y-3810000D02*
X33528000Y-3810000D01*
X35560000Y-1778000D02*
X35560000Y-3302000D01*
X35052000Y-1270000D02*
X35560000Y-1778000D01*
X33528000Y-1270000D02*
X35052000Y-1270000D01*
X33020000Y-1778000D02*
X33528000Y-1270000D01*
X33020000Y-3302000D02*
X33020000Y-1778000D01*
X33528000Y-3810000D02*
X33020000Y-3302000D01*
X33528000Y-11430000D02*
X33020000Y-11938000D01*
X35052000Y-13970000D02*
X35560000Y-13462000D01*
X33020000Y-13462000D02*
X33528000Y-13970000D01*
X33020000Y-11938000D02*
X33020000Y-13462000D01*
X33528000Y-11176000D02*
X34798000Y-11176000D01*
X33020000Y-10668000D02*
X33528000Y-11176000D01*
X33528000Y-4064000D02*
X33020000Y-4572000D01*
X34798000Y-4064000D02*
X33528000Y-4064000D01*
X35052000Y-11430000D02*
X35052000Y-3810000D01*
X35560000Y-3302000D02*
X35560000Y-13462000D01*
X34798000Y-4064000D02*
X34798000Y-11176000D01*
X33020000Y-4572000D02*
X33020000Y-10668000D01*
X35052000Y-13970000D02*
X33528000Y-13970000D01*
X33528000Y-11430000D02*
X35052000Y-11430000D01*
%TO.C,REF\u002A\u002A10*%
X32512000Y-3810000D02*
X30988000Y-3810000D01*
X33020000Y-1778000D02*
X33020000Y-3302000D01*
X32512000Y-1270000D02*
X33020000Y-1778000D01*
X30988000Y-1270000D02*
X32512000Y-1270000D01*
X30480000Y-1778000D02*
X30988000Y-1270000D01*
X30480000Y-3302000D02*
X30480000Y-1778000D01*
X30988000Y-3810000D02*
X30480000Y-3302000D01*
X30988000Y-11430000D02*
X30480000Y-11938000D01*
X32512000Y-13970000D02*
X33020000Y-13462000D01*
X30480000Y-13462000D02*
X30988000Y-13970000D01*
X30480000Y-11938000D02*
X30480000Y-13462000D01*
X30988000Y-11176000D02*
X32258000Y-11176000D01*
X30480000Y-10668000D02*
X30988000Y-11176000D01*
X30988000Y-4064000D02*
X30480000Y-4572000D01*
X32258000Y-4064000D02*
X30988000Y-4064000D01*
X32512000Y-11430000D02*
X32512000Y-3810000D01*
X33020000Y-3302000D02*
X33020000Y-13462000D01*
X32258000Y-4064000D02*
X32258000Y-11176000D01*
X30480000Y-4572000D02*
X30480000Y-10668000D01*
X32512000Y-13970000D02*
X30988000Y-13970000D01*
X30988000Y-11430000D02*
X32512000Y-11430000D01*
%TO.C,REF\u002A\u002A9*%
X29972000Y-3810000D02*
X28448000Y-3810000D01*
X30480000Y-1778000D02*
X30480000Y-3302000D01*
X29972000Y-1270000D02*
X30480000Y-1778000D01*
X28448000Y-1270000D02*
X29972000Y-1270000D01*
X27940000Y-1778000D02*
X28448000Y-1270000D01*
X27940000Y-3302000D02*
X27940000Y-1778000D01*
X28448000Y-3810000D02*
X27940000Y-3302000D01*
X28448000Y-11430000D02*
X27940000Y-11938000D01*
X29972000Y-13970000D02*
X30480000Y-13462000D01*
X27940000Y-13462000D02*
X28448000Y-13970000D01*
X27940000Y-11938000D02*
X27940000Y-13462000D01*
X28448000Y-11176000D02*
X29718000Y-11176000D01*
X27940000Y-10668000D02*
X28448000Y-11176000D01*
X28448000Y-4064000D02*
X27940000Y-4572000D01*
X29718000Y-4064000D02*
X28448000Y-4064000D01*
X29972000Y-11430000D02*
X29972000Y-3810000D01*
X30480000Y-3302000D02*
X30480000Y-13462000D01*
X29718000Y-4064000D02*
X29718000Y-11176000D01*
X27940000Y-4572000D02*
X27940000Y-10668000D01*
X29972000Y-13970000D02*
X28448000Y-13970000D01*
X28448000Y-11430000D02*
X29972000Y-11430000D01*
%TO.C,REF\u002A\u002A8*%
X27432000Y-3810000D02*
X25908000Y-3810000D01*
X27940000Y-1778000D02*
X27940000Y-3302000D01*
X27432000Y-1270000D02*
X27940000Y-1778000D01*
X25908000Y-1270000D02*
X27432000Y-1270000D01*
X25400000Y-1778000D02*
X25908000Y-1270000D01*
X25400000Y-3302000D02*
X25400000Y-1778000D01*
X25908000Y-3810000D02*
X25400000Y-3302000D01*
X25908000Y-11430000D02*
X25400000Y-11938000D01*
X27432000Y-13970000D02*
X27940000Y-13462000D01*
X25400000Y-13462000D02*
X25908000Y-13970000D01*
X25400000Y-11938000D02*
X25400000Y-13462000D01*
X25908000Y-11176000D02*
X27178000Y-11176000D01*
X25400000Y-10668000D02*
X25908000Y-11176000D01*
X25908000Y-4064000D02*
X25400000Y-4572000D01*
X27178000Y-4064000D02*
X25908000Y-4064000D01*
X27432000Y-11430000D02*
X27432000Y-3810000D01*
X27940000Y-3302000D02*
X27940000Y-13462000D01*
X27178000Y-4064000D02*
X27178000Y-11176000D01*
X25400000Y-4572000D02*
X25400000Y-10668000D01*
X27432000Y-13970000D02*
X25908000Y-13970000D01*
X25908000Y-11430000D02*
X27432000Y-11430000D01*
%TO.C,REF\u002A\u002A7*%
X24892000Y-3810000D02*
X23368000Y-3810000D01*
X25400000Y-1778000D02*
X25400000Y-3302000D01*
X24892000Y-1270000D02*
X25400000Y-1778000D01*
X23368000Y-1270000D02*
X24892000Y-1270000D01*
X22860000Y-1778000D02*
X23368000Y-1270000D01*
X22860000Y-3302000D02*
X22860000Y-1778000D01*
X23368000Y-3810000D02*
X22860000Y-3302000D01*
X23368000Y-11430000D02*
X22860000Y-11938000D01*
X24892000Y-13970000D02*
X25400000Y-13462000D01*
X22860000Y-13462000D02*
X23368000Y-13970000D01*
X22860000Y-11938000D02*
X22860000Y-13462000D01*
X23368000Y-11176000D02*
X24638000Y-11176000D01*
X22860000Y-10668000D02*
X23368000Y-11176000D01*
X23368000Y-4064000D02*
X22860000Y-4572000D01*
X24638000Y-4064000D02*
X23368000Y-4064000D01*
X24892000Y-11430000D02*
X24892000Y-3810000D01*
X25400000Y-3302000D02*
X25400000Y-13462000D01*
X24638000Y-4064000D02*
X24638000Y-11176000D01*
X22860000Y-4572000D02*
X22860000Y-10668000D01*
X24892000Y-13970000D02*
X23368000Y-13970000D01*
X23368000Y-11430000D02*
X24892000Y-11430000D01*
%TO.C,REF\u002A\u002A6*%
X22352000Y-3810000D02*
X20828000Y-3810000D01*
X22860000Y-1778000D02*
X22860000Y-3302000D01*
X22352000Y-1270000D02*
X22860000Y-1778000D01*
X20828000Y-1270000D02*
X22352000Y-1270000D01*
X20320000Y-1778000D02*
X20828000Y-1270000D01*
X20320000Y-3302000D02*
X20320000Y-1778000D01*
X20828000Y-3810000D02*
X20320000Y-3302000D01*
X20828000Y-11430000D02*
X20320000Y-11938000D01*
X22352000Y-13970000D02*
X22860000Y-13462000D01*
X20320000Y-13462000D02*
X20828000Y-13970000D01*
X20320000Y-11938000D02*
X20320000Y-13462000D01*
X20828000Y-11176000D02*
X22098000Y-11176000D01*
X20320000Y-10668000D02*
X20828000Y-11176000D01*
X20828000Y-4064000D02*
X20320000Y-4572000D01*
X22098000Y-4064000D02*
X20828000Y-4064000D01*
X22352000Y-11430000D02*
X22352000Y-3810000D01*
X22860000Y-3302000D02*
X22860000Y-13462000D01*
X22098000Y-4064000D02*
X22098000Y-11176000D01*
X20320000Y-4572000D02*
X20320000Y-10668000D01*
X22352000Y-13970000D02*
X20828000Y-13970000D01*
X20828000Y-11430000D02*
X22352000Y-11430000D01*
%TO.C,REF\u002A\u002A5*%
X19812000Y-3810000D02*
X18288000Y-3810000D01*
X20320000Y-1778000D02*
X20320000Y-3302000D01*
X19812000Y-1270000D02*
X20320000Y-1778000D01*
X18288000Y-1270000D02*
X19812000Y-1270000D01*
X17780000Y-1778000D02*
X18288000Y-1270000D01*
X17780000Y-3302000D02*
X17780000Y-1778000D01*
X18288000Y-3810000D02*
X17780000Y-3302000D01*
X18288000Y-11430000D02*
X17780000Y-11938000D01*
X19812000Y-13970000D02*
X20320000Y-13462000D01*
X17780000Y-13462000D02*
X18288000Y-13970000D01*
X17780000Y-11938000D02*
X17780000Y-13462000D01*
X18288000Y-11176000D02*
X19558000Y-11176000D01*
X17780000Y-10668000D02*
X18288000Y-11176000D01*
X18288000Y-4064000D02*
X17780000Y-4572000D01*
X19558000Y-4064000D02*
X18288000Y-4064000D01*
X19812000Y-11430000D02*
X19812000Y-3810000D01*
X20320000Y-3302000D02*
X20320000Y-13462000D01*
X19558000Y-4064000D02*
X19558000Y-11176000D01*
X17780000Y-4572000D02*
X17780000Y-10668000D01*
X19812000Y-13970000D02*
X18288000Y-13970000D01*
X18288000Y-11430000D02*
X19812000Y-11430000D01*
%TO.C,REF\u002A\u002A4*%
X17272000Y-3810000D02*
X15748000Y-3810000D01*
X17780000Y-1778000D02*
X17780000Y-3302000D01*
X17272000Y-1270000D02*
X17780000Y-1778000D01*
X15748000Y-1270000D02*
X17272000Y-1270000D01*
X15240000Y-1778000D02*
X15748000Y-1270000D01*
X15240000Y-3302000D02*
X15240000Y-1778000D01*
X15748000Y-3810000D02*
X15240000Y-3302000D01*
X15748000Y-11430000D02*
X15240000Y-11938000D01*
X17272000Y-13970000D02*
X17780000Y-13462000D01*
X15240000Y-13462000D02*
X15748000Y-13970000D01*
X15240000Y-11938000D02*
X15240000Y-13462000D01*
X15748000Y-11176000D02*
X17018000Y-11176000D01*
X15240000Y-10668000D02*
X15748000Y-11176000D01*
X15748000Y-4064000D02*
X15240000Y-4572000D01*
X17018000Y-4064000D02*
X15748000Y-4064000D01*
X17272000Y-11430000D02*
X17272000Y-3810000D01*
X17780000Y-3302000D02*
X17780000Y-13462000D01*
X17018000Y-4064000D02*
X17018000Y-11176000D01*
X15240000Y-4572000D02*
X15240000Y-10668000D01*
X17272000Y-13970000D02*
X15748000Y-13970000D01*
X15748000Y-11430000D02*
X17272000Y-11430000D01*
%TO.C,REF\u002A\u002A3*%
X14732000Y-3810000D02*
X13208000Y-3810000D01*
X15240000Y-1778000D02*
X15240000Y-3302000D01*
X14732000Y-1270000D02*
X15240000Y-1778000D01*
X13208000Y-1270000D02*
X14732000Y-1270000D01*
X12700000Y-1778000D02*
X13208000Y-1270000D01*
X12700000Y-3302000D02*
X12700000Y-1778000D01*
X13208000Y-3810000D02*
X12700000Y-3302000D01*
X13208000Y-11430000D02*
X12700000Y-11938000D01*
X14732000Y-13970000D02*
X15240000Y-13462000D01*
X12700000Y-13462000D02*
X13208000Y-13970000D01*
X12700000Y-11938000D02*
X12700000Y-13462000D01*
X13208000Y-11176000D02*
X14478000Y-11176000D01*
X12700000Y-10668000D02*
X13208000Y-11176000D01*
X13208000Y-4064000D02*
X12700000Y-4572000D01*
X14478000Y-4064000D02*
X13208000Y-4064000D01*
X14732000Y-11430000D02*
X14732000Y-3810000D01*
X15240000Y-3302000D02*
X15240000Y-13462000D01*
X14478000Y-4064000D02*
X14478000Y-11176000D01*
X12700000Y-4572000D02*
X12700000Y-10668000D01*
X14732000Y-13970000D02*
X13208000Y-13970000D01*
X13208000Y-11430000D02*
X14732000Y-11430000D01*
%TO.C,REF\u002A\u002A2*%
X12192000Y-3810000D02*
X10668000Y-3810000D01*
X12700000Y-1778000D02*
X12700000Y-3302000D01*
X12192000Y-1270000D02*
X12700000Y-1778000D01*
X10668000Y-1270000D02*
X12192000Y-1270000D01*
X10160000Y-1778000D02*
X10668000Y-1270000D01*
X10160000Y-3302000D02*
X10160000Y-1778000D01*
X10668000Y-3810000D02*
X10160000Y-3302000D01*
X10668000Y-11430000D02*
X10160000Y-11938000D01*
X12192000Y-13970000D02*
X12700000Y-13462000D01*
X10160000Y-13462000D02*
X10668000Y-13970000D01*
X10160000Y-11938000D02*
X10160000Y-13462000D01*
X10668000Y-11176000D02*
X11938000Y-11176000D01*
X10160000Y-10668000D02*
X10668000Y-11176000D01*
X10668000Y-4064000D02*
X10160000Y-4572000D01*
X11938000Y-4064000D02*
X10668000Y-4064000D01*
X12192000Y-11430000D02*
X12192000Y-3810000D01*
X12700000Y-3302000D02*
X12700000Y-13462000D01*
X11938000Y-4064000D02*
X11938000Y-11176000D01*
X10160000Y-4572000D02*
X10160000Y-10668000D01*
X12192000Y-13970000D02*
X10668000Y-13970000D01*
X10668000Y-11430000D02*
X12192000Y-11430000D01*
%TO.C,REF\u002A\u002A1*%
X9652000Y-3810000D02*
X8128000Y-3810000D01*
X10160000Y-1778000D02*
X10160000Y-3302000D01*
X9652000Y-1270000D02*
X10160000Y-1778000D01*
X8128000Y-1270000D02*
X9652000Y-1270000D01*
X7620000Y-1778000D02*
X8128000Y-1270000D01*
X7620000Y-3302000D02*
X7620000Y-1778000D01*
X8128000Y-3810000D02*
X7620000Y-3302000D01*
X8128000Y-11430000D02*
X7620000Y-11938000D01*
X9652000Y-13970000D02*
X10160000Y-13462000D01*
X7620000Y-13462000D02*
X8128000Y-13970000D01*
X7620000Y-11938000D02*
X7620000Y-13462000D01*
X8128000Y-11176000D02*
X9398000Y-11176000D01*
X7620000Y-10668000D02*
X8128000Y-11176000D01*
X8128000Y-4064000D02*
X7620000Y-4572000D01*
X9398000Y-4064000D02*
X8128000Y-4064000D01*
X9652000Y-11430000D02*
X9652000Y-3810000D01*
X10160000Y-3302000D02*
X10160000Y-13462000D01*
X9398000Y-4064000D02*
X9398000Y-11176000D01*
X7620000Y-4572000D02*
X7620000Y-10668000D01*
X9652000Y-13970000D02*
X8128000Y-13970000D01*
X8128000Y-11430000D02*
X9652000Y-11430000D01*
%TD*%
M02*
