%TF.GenerationSoftware,KiCad,Pcbnew,(5.99.0-1350-g7e4d255cd)*%
%TF.CreationDate,2020-04-19T23:06:08-06:00*%
%TF.ProjectId,generic-pcb,67656e65-7269-4632-9d70-63622e6b6963,rev?*%
%TF.SameCoordinates,PX5d42830PY292dfe0*%
%TF.FileFunction,Soldermask,Top*%
%TF.FilePolarity,Negative*%
%FSLAX46Y46*%
G04 Gerber Fmt 4.6, Leading zero omitted, Abs format (unit mm)*
G04 Created by KiCad (PCBNEW (5.99.0-1350-g7e4d255cd)) date 2020-04-19 23:06:08*
%MOMM*%
%LPD*%
G01*
G04 APERTURE LIST*
%ADD10R,2.540000X2.286000*%
%ADD11R,2.286000X2.286000*%
%ADD12R,3.048000X2.286000*%
%ADD13R,2.032000X2.286000*%
%ADD14R,2.032000X2.540000*%
%ADD15R,2.032000X2.032000*%
G04 APERTURE END LIST*
D10*
%TO.C,REF\u002A\u002A8*%
X82550000Y-17526000D03*
D11*
X95123000Y-17526000D03*
D10*
X92710000Y-17526000D03*
X90170000Y-17526000D03*
D11*
X75057000Y-17526000D03*
D10*
X77470000Y-17526000D03*
X87630000Y-17526000D03*
D12*
X80010000Y-17526000D03*
D13*
X85090000Y-17526000D03*
D11*
X75057000Y-15494000D03*
D10*
X77470000Y-15494000D03*
X80010000Y-15494000D03*
X82550000Y-15494000D03*
D11*
X95123000Y-15494000D03*
D10*
X92710000Y-15494000D03*
X90170000Y-15494000D03*
X87630000Y-15494000D03*
D13*
X85090000Y-15494000D03*
%TD*%
%TO.C,REF\u002A\u002A8*%
X62230000Y-15494000D03*
D10*
X64770000Y-15494000D03*
X67310000Y-15494000D03*
X69850000Y-15494000D03*
D11*
X72263000Y-15494000D03*
D10*
X59690000Y-15494000D03*
X57150000Y-15494000D03*
X54610000Y-15494000D03*
D11*
X52197000Y-15494000D03*
D13*
X62230000Y-17526000D03*
D12*
X57150000Y-17526000D03*
D10*
X64770000Y-17526000D03*
X54610000Y-17526000D03*
D11*
X52197000Y-17526000D03*
D10*
X67310000Y-17526000D03*
X69850000Y-17526000D03*
D11*
X72263000Y-17526000D03*
D10*
X59690000Y-17526000D03*
%TD*%
%TO.C,REF\u002A\u002A8*%
X36830000Y-17526000D03*
D11*
X49403000Y-17526000D03*
D10*
X46990000Y-17526000D03*
X44450000Y-17526000D03*
D11*
X29337000Y-17526000D03*
D10*
X31750000Y-17526000D03*
X41910000Y-17526000D03*
D12*
X34290000Y-17526000D03*
D13*
X39370000Y-17526000D03*
D11*
X29337000Y-15494000D03*
D10*
X31750000Y-15494000D03*
X34290000Y-15494000D03*
X36830000Y-15494000D03*
D11*
X49403000Y-15494000D03*
D10*
X46990000Y-15494000D03*
X44450000Y-15494000D03*
X41910000Y-15494000D03*
D13*
X39370000Y-15494000D03*
%TD*%
%TO.C,REF\u002A\u002A8*%
X16510000Y-15494000D03*
D10*
X19050000Y-15494000D03*
X21590000Y-15494000D03*
X24130000Y-15494000D03*
D11*
X26543000Y-15494000D03*
D10*
X13970000Y-15494000D03*
X11430000Y-15494000D03*
X8890000Y-15494000D03*
D11*
X6477000Y-15494000D03*
D13*
X16510000Y-17526000D03*
D12*
X11430000Y-17526000D03*
D10*
X19050000Y-17526000D03*
X8890000Y-17526000D03*
D11*
X6477000Y-17526000D03*
D10*
X21590000Y-17526000D03*
X24130000Y-17526000D03*
D11*
X26543000Y-17526000D03*
D10*
X13970000Y-17526000D03*
%TD*%
D14*
%TO.C,REF\u002A\u002A10*%
X85090000Y-91440000D03*
%TD*%
%TO.C,REF\u002A\u002A10*%
X39370000Y-91440000D03*
%TD*%
%TO.C,REF\u002A\u002A22*%
X59690000Y-40640000D03*
%TD*%
%TO.C,REF\u002A\u002A27*%
X13970000Y-27940000D03*
%TD*%
%TO.C,REF\u002A\u002A27*%
X13970000Y-25400000D03*
%TD*%
%TO.C,REF\u002A\u002A27*%
X13970000Y-22860000D03*
%TD*%
%TO.C,REF\u002A\u002A34*%
X39370000Y-27940000D03*
%TD*%
%TO.C,REF\u002A\u002A34*%
X39370000Y-25400000D03*
%TD*%
%TO.C,REF\u002A\u002A34*%
X39370000Y-22860000D03*
%TD*%
%TO.C,REF\u002A\u002A27*%
X59690000Y-27940000D03*
%TD*%
%TO.C,REF\u002A\u002A27*%
X59690000Y-25400000D03*
%TD*%
%TO.C,REF\u002A\u002A27*%
X59690000Y-22860000D03*
%TD*%
%TO.C,REF\u002A\u002A34*%
X85090000Y-27940000D03*
%TD*%
%TO.C,REF\u002A\u002A34*%
X85090000Y-25400000D03*
%TD*%
%TO.C,REF\u002A\u002A34*%
X85090000Y-22860000D03*
%TD*%
%TO.C,REF\u002A\u002A3*%
X13970000Y-88900000D03*
%TD*%
%TO.C,REF\u002A\u002A4*%
X13970000Y-86360000D03*
%TD*%
%TO.C,REF\u002A\u002A5*%
X13970000Y-83820000D03*
%TD*%
%TO.C,REF\u002A\u002A6*%
X13970000Y-81280000D03*
%TD*%
%TO.C,REF\u002A\u002A7*%
X13970000Y-78740000D03*
%TD*%
%TO.C,REF\u002A\u002A8*%
X13970000Y-76200000D03*
%TD*%
%TO.C,REF\u002A\u002A9*%
X13970000Y-73660000D03*
%TD*%
%TO.C,REF\u002A\u002A10*%
X13970000Y-71120000D03*
%TD*%
%TO.C,REF\u002A\u002A11*%
X13970000Y-68580000D03*
%TD*%
%TO.C,REF\u002A\u002A12*%
X13970000Y-66040000D03*
%TD*%
%TO.C,REF\u002A\u002A13*%
X13970000Y-63500000D03*
%TD*%
%TO.C,REF\u002A\u002A14*%
X13970000Y-60960000D03*
%TD*%
%TO.C,REF\u002A\u002A15*%
X13970000Y-58420000D03*
%TD*%
%TO.C,REF\u002A\u002A16*%
X13970000Y-55880000D03*
%TD*%
%TO.C,REF\u002A\u002A17*%
X13970000Y-53340000D03*
%TD*%
%TO.C,REF\u002A\u002A18*%
X13970000Y-50800000D03*
%TD*%
%TO.C,REF\u002A\u002A19*%
X13970000Y-48260000D03*
%TD*%
%TO.C,REF\u002A\u002A20*%
X13970000Y-45720000D03*
%TD*%
%TO.C,REF\u002A\u002A21*%
X13970000Y-43180000D03*
%TD*%
%TO.C,REF\u002A\u002A22*%
X13970000Y-40640000D03*
%TD*%
%TO.C,REF\u002A\u002A23*%
X13970000Y-38100000D03*
%TD*%
%TO.C,REF\u002A\u002A24*%
X13970000Y-35560000D03*
%TD*%
%TO.C,REF\u002A\u002A25*%
X13970000Y-33020000D03*
%TD*%
%TO.C,REF\u002A\u002A26*%
X13970000Y-30480000D03*
%TD*%
%TO.C,REF\u002A\u002A27*%
X13970000Y-20320000D03*
%TD*%
%TO.C,REF\u002A\u002A27*%
X13970000Y-20320000D03*
%TD*%
%TO.C,REF\u002A\u002A26*%
X13970000Y-30480000D03*
%TD*%
%TO.C,REF\u002A\u002A25*%
X13970000Y-33020000D03*
%TD*%
%TO.C,REF\u002A\u002A24*%
X13970000Y-35560000D03*
%TD*%
%TO.C,REF\u002A\u002A23*%
X13970000Y-38100000D03*
%TD*%
%TO.C,REF\u002A\u002A22*%
X13970000Y-40640000D03*
%TD*%
%TO.C,REF\u002A\u002A21*%
X13970000Y-43180000D03*
%TD*%
%TO.C,REF\u002A\u002A20*%
X13970000Y-45720000D03*
%TD*%
%TO.C,REF\u002A\u002A19*%
X13970000Y-48260000D03*
%TD*%
%TO.C,REF\u002A\u002A18*%
X13970000Y-50800000D03*
%TD*%
%TO.C,REF\u002A\u002A17*%
X13970000Y-53340000D03*
%TD*%
%TO.C,REF\u002A\u002A16*%
X13970000Y-55880000D03*
%TD*%
%TO.C,REF\u002A\u002A15*%
X13970000Y-58420000D03*
%TD*%
%TO.C,REF\u002A\u002A14*%
X13970000Y-60960000D03*
%TD*%
%TO.C,REF\u002A\u002A13*%
X13970000Y-63500000D03*
%TD*%
%TO.C,REF\u002A\u002A12*%
X13970000Y-66040000D03*
%TD*%
%TO.C,REF\u002A\u002A11*%
X13970000Y-68580000D03*
%TD*%
%TO.C,REF\u002A\u002A10*%
X13970000Y-71120000D03*
%TD*%
%TO.C,REF\u002A\u002A9*%
X13970000Y-73660000D03*
%TD*%
%TO.C,REF\u002A\u002A8*%
X13970000Y-76200000D03*
%TD*%
%TO.C,REF\u002A\u002A7*%
X13970000Y-78740000D03*
%TD*%
%TO.C,REF\u002A\u002A6*%
X13970000Y-81280000D03*
%TD*%
%TO.C,REF\u002A\u002A5*%
X13970000Y-83820000D03*
%TD*%
%TO.C,REF\u002A\u002A4*%
X13970000Y-86360000D03*
%TD*%
%TO.C,REF\u002A\u002A3*%
X13970000Y-91440000D03*
%TD*%
%TO.C,REF\u002A\u002A3*%
X59690000Y-88900000D03*
%TD*%
%TO.C,REF\u002A\u002A4*%
X59690000Y-86360000D03*
%TD*%
%TO.C,REF\u002A\u002A5*%
X59690000Y-83820000D03*
%TD*%
%TO.C,REF\u002A\u002A6*%
X59690000Y-81280000D03*
%TD*%
%TO.C,REF\u002A\u002A7*%
X59690000Y-78740000D03*
%TD*%
%TO.C,REF\u002A\u002A8*%
X59690000Y-76200000D03*
%TD*%
%TO.C,REF\u002A\u002A9*%
X59690000Y-73660000D03*
%TD*%
%TO.C,REF\u002A\u002A10*%
X59690000Y-71120000D03*
%TD*%
%TO.C,REF\u002A\u002A11*%
X59690000Y-68580000D03*
%TD*%
%TO.C,REF\u002A\u002A12*%
X59690000Y-66040000D03*
%TD*%
%TO.C,REF\u002A\u002A13*%
X59690000Y-63500000D03*
%TD*%
%TO.C,REF\u002A\u002A14*%
X59690000Y-60960000D03*
%TD*%
%TO.C,REF\u002A\u002A15*%
X59690000Y-58420000D03*
%TD*%
%TO.C,REF\u002A\u002A16*%
X59690000Y-55880000D03*
%TD*%
%TO.C,REF\u002A\u002A17*%
X59690000Y-53340000D03*
%TD*%
%TO.C,REF\u002A\u002A18*%
X59690000Y-50800000D03*
%TD*%
%TO.C,REF\u002A\u002A19*%
X59690000Y-48260000D03*
%TD*%
%TO.C,REF\u002A\u002A20*%
X59690000Y-45720000D03*
%TD*%
%TO.C,REF\u002A\u002A21*%
X59690000Y-43180000D03*
%TD*%
%TO.C,REF\u002A\u002A22*%
X59690000Y-40640000D03*
%TD*%
%TO.C,REF\u002A\u002A23*%
X59690000Y-38100000D03*
%TD*%
%TO.C,REF\u002A\u002A24*%
X59690000Y-35560000D03*
%TD*%
%TO.C,REF\u002A\u002A25*%
X59690000Y-33020000D03*
%TD*%
%TO.C,REF\u002A\u002A26*%
X59690000Y-30480000D03*
%TD*%
%TO.C,REF\u002A\u002A27*%
X59690000Y-20320000D03*
%TD*%
%TO.C,REF\u002A\u002A27*%
X59690000Y-20320000D03*
%TD*%
%TO.C,REF\u002A\u002A26*%
X59690000Y-30480000D03*
%TD*%
%TO.C,REF\u002A\u002A25*%
X59690000Y-33020000D03*
%TD*%
%TO.C,REF\u002A\u002A24*%
X59690000Y-35560000D03*
%TD*%
%TO.C,REF\u002A\u002A23*%
X59690000Y-38100000D03*
%TD*%
%TO.C,REF\u002A\u002A22*%
X59690000Y-40640000D03*
%TD*%
%TO.C,REF\u002A\u002A21*%
X59690000Y-43180000D03*
%TD*%
%TO.C,REF\u002A\u002A20*%
X59690000Y-45720000D03*
%TD*%
%TO.C,REF\u002A\u002A19*%
X59690000Y-48260000D03*
%TD*%
%TO.C,REF\u002A\u002A18*%
X59690000Y-50800000D03*
%TD*%
%TO.C,REF\u002A\u002A17*%
X59690000Y-53340000D03*
%TD*%
%TO.C,REF\u002A\u002A16*%
X59690000Y-55880000D03*
%TD*%
%TO.C,REF\u002A\u002A15*%
X59690000Y-58420000D03*
%TD*%
%TO.C,REF\u002A\u002A14*%
X59690000Y-60960000D03*
%TD*%
%TO.C,REF\u002A\u002A13*%
X59690000Y-63500000D03*
%TD*%
%TO.C,REF\u002A\u002A12*%
X59690000Y-66040000D03*
%TD*%
%TO.C,REF\u002A\u002A11*%
X59690000Y-68580000D03*
%TD*%
%TO.C,REF\u002A\u002A10*%
X59690000Y-71120000D03*
%TD*%
%TO.C,REF\u002A\u002A9*%
X59690000Y-73660000D03*
%TD*%
%TO.C,REF\u002A\u002A8*%
X59690000Y-76200000D03*
%TD*%
%TO.C,REF\u002A\u002A7*%
X59690000Y-78740000D03*
%TD*%
%TO.C,REF\u002A\u002A6*%
X59690000Y-81280000D03*
%TD*%
%TO.C,REF\u002A\u002A5*%
X59690000Y-83820000D03*
%TD*%
%TO.C,REF\u002A\u002A4*%
X59690000Y-86360000D03*
%TD*%
%TO.C,REF\u002A\u002A3*%
X59690000Y-91440000D03*
%TD*%
%TO.C,REF\u002A\u002A10*%
X39370000Y-88900000D03*
%TD*%
%TO.C,REF\u002A\u002A11*%
X39370000Y-86360000D03*
%TD*%
%TO.C,REF\u002A\u002A12*%
X39370000Y-83820000D03*
%TD*%
%TO.C,REF\u002A\u002A13*%
X39370000Y-81280000D03*
%TD*%
%TO.C,REF\u002A\u002A14*%
X39370000Y-78740000D03*
%TD*%
%TO.C,REF\u002A\u002A15*%
X39370000Y-76200000D03*
%TD*%
%TO.C,REF\u002A\u002A16*%
X39370000Y-73660000D03*
%TD*%
%TO.C,REF\u002A\u002A17*%
X39370000Y-71120000D03*
%TD*%
%TO.C,REF\u002A\u002A18*%
X39370000Y-68580000D03*
%TD*%
%TO.C,REF\u002A\u002A19*%
X39370000Y-66040000D03*
%TD*%
%TO.C,REF\u002A\u002A20*%
X39370000Y-63500000D03*
%TD*%
%TO.C,REF\u002A\u002A21*%
X39370000Y-60960000D03*
%TD*%
%TO.C,REF\u002A\u002A22*%
X39370000Y-58420000D03*
%TD*%
%TO.C,REF\u002A\u002A23*%
X39370000Y-55880000D03*
%TD*%
%TO.C,REF\u002A\u002A24*%
X39370000Y-53340000D03*
%TD*%
%TO.C,REF\u002A\u002A25*%
X39370000Y-50800000D03*
%TD*%
%TO.C,REF\u002A\u002A26*%
X39370000Y-48260000D03*
%TD*%
%TO.C,REF\u002A\u002A27*%
X39370000Y-45720000D03*
%TD*%
%TO.C,REF\u002A\u002A28*%
X39370000Y-43180000D03*
%TD*%
%TO.C,REF\u002A\u002A29*%
X39370000Y-40640000D03*
%TD*%
%TO.C,REF\u002A\u002A30*%
X39370000Y-38100000D03*
%TD*%
%TO.C,REF\u002A\u002A31*%
X39370000Y-35560000D03*
%TD*%
%TO.C,REF\u002A\u002A32*%
X39370000Y-33020000D03*
%TD*%
%TO.C,REF\u002A\u002A33*%
X39370000Y-30480000D03*
%TD*%
%TO.C,REF\u002A\u002A34*%
X39370000Y-20320000D03*
%TD*%
%TO.C,REF\u002A\u002A34*%
X85090000Y-20320000D03*
%TD*%
%TO.C,REF\u002A\u002A33*%
X85090000Y-30480000D03*
%TD*%
%TO.C,REF\u002A\u002A32*%
X85090000Y-33020000D03*
%TD*%
%TO.C,REF\u002A\u002A31*%
X85090000Y-35560000D03*
%TD*%
%TO.C,REF\u002A\u002A30*%
X85090000Y-38100000D03*
%TD*%
%TO.C,REF\u002A\u002A29*%
X85090000Y-40640000D03*
%TD*%
%TO.C,REF\u002A\u002A28*%
X85090000Y-43180000D03*
%TD*%
%TO.C,REF\u002A\u002A27*%
X85090000Y-45720000D03*
%TD*%
%TO.C,REF\u002A\u002A26*%
X85090000Y-48260000D03*
%TD*%
%TO.C,REF\u002A\u002A25*%
X85090000Y-50800000D03*
%TD*%
%TO.C,REF\u002A\u002A24*%
X85090000Y-53340000D03*
%TD*%
%TO.C,REF\u002A\u002A23*%
X85090000Y-55880000D03*
%TD*%
%TO.C,REF\u002A\u002A22*%
X85090000Y-58420000D03*
%TD*%
%TO.C,REF\u002A\u002A21*%
X85090000Y-60960000D03*
%TD*%
%TO.C,REF\u002A\u002A20*%
X85090000Y-63500000D03*
%TD*%
%TO.C,REF\u002A\u002A19*%
X85090000Y-66040000D03*
%TD*%
%TO.C,REF\u002A\u002A18*%
X85090000Y-68580000D03*
%TD*%
%TO.C,REF\u002A\u002A17*%
X85090000Y-71120000D03*
%TD*%
%TO.C,REF\u002A\u002A16*%
X85090000Y-73660000D03*
%TD*%
%TO.C,REF\u002A\u002A15*%
X85090000Y-76200000D03*
%TD*%
%TO.C,REF\u002A\u002A14*%
X85090000Y-78740000D03*
%TD*%
%TO.C,REF\u002A\u002A13*%
X85090000Y-81280000D03*
%TD*%
%TO.C,REF\u002A\u002A12*%
X85090000Y-83820000D03*
%TD*%
%TO.C,REF\u002A\u002A11*%
X85090000Y-86360000D03*
%TD*%
%TO.C,REF\u002A\u002A10*%
X85090000Y-88900000D03*
%TD*%
D15*
%TO.C,REF\u002A\u002A33*%
X90170000Y-2540000D03*
X90170000Y-12700000D03*
%TD*%
%TO.C,REF\u002A\u002A32*%
X87630000Y-2540000D03*
X87630000Y-12700000D03*
%TD*%
%TO.C,REF\u002A\u002A31*%
X85090000Y-2540000D03*
X85090000Y-12700000D03*
%TD*%
%TO.C,REF\u002A\u002A30*%
X82550000Y-2540000D03*
X82550000Y-12700000D03*
%TD*%
%TO.C,REF\u002A\u002A29*%
X80010000Y-2540000D03*
X80010000Y-12700000D03*
%TD*%
%TO.C,REF\u002A\u002A28*%
X77470000Y-2540000D03*
X77470000Y-12700000D03*
%TD*%
%TO.C,REF\u002A\u002A27*%
X74930000Y-2540000D03*
X74930000Y-12700000D03*
%TD*%
%TO.C,REF\u002A\u002A26*%
X72390000Y-2540000D03*
X72390000Y-12700000D03*
%TD*%
%TO.C,REF\u002A\u002A25*%
X69850000Y-2540000D03*
X69850000Y-12700000D03*
%TD*%
%TO.C,REF\u002A\u002A24*%
X67310000Y-2540000D03*
X67310000Y-12700000D03*
%TD*%
%TO.C,REF\u002A\u002A23*%
X64770000Y-2540000D03*
X64770000Y-12700000D03*
%TD*%
%TO.C,REF\u002A\u002A22*%
X62230000Y-2540000D03*
X62230000Y-12700000D03*
%TD*%
%TO.C,REF\u002A\u002A21*%
X59690000Y-2540000D03*
X59690000Y-12700000D03*
%TD*%
%TO.C,REF\u002A\u002A20*%
X57150000Y-2540000D03*
X57150000Y-12700000D03*
%TD*%
%TO.C,REF\u002A\u002A19*%
X54610000Y-2540000D03*
X54610000Y-12700000D03*
%TD*%
%TO.C,REF\u002A\u002A18*%
X52070000Y-2540000D03*
X52070000Y-12700000D03*
%TD*%
%TO.C,REF\u002A\u002A17*%
X49530000Y-2540000D03*
X49530000Y-12700000D03*
%TD*%
%TO.C,REF\u002A\u002A16*%
X46990000Y-2540000D03*
X46990000Y-12700000D03*
%TD*%
%TO.C,REF\u002A\u002A15*%
X44450000Y-2540000D03*
X44450000Y-12700000D03*
%TD*%
%TO.C,REF\u002A\u002A14*%
X41910000Y-2540000D03*
X41910000Y-12700000D03*
%TD*%
%TO.C,REF\u002A\u002A13*%
X39370000Y-2540000D03*
X39370000Y-12700000D03*
%TD*%
%TO.C,REF\u002A\u002A12*%
X36830000Y-2540000D03*
X36830000Y-12700000D03*
%TD*%
%TO.C,REF\u002A\u002A11*%
X34290000Y-2540000D03*
X34290000Y-12700000D03*
%TD*%
%TO.C,REF\u002A\u002A10*%
X31750000Y-2540000D03*
X31750000Y-12700000D03*
%TD*%
%TO.C,REF\u002A\u002A9*%
X29210000Y-2540000D03*
X29210000Y-12700000D03*
%TD*%
%TO.C,REF\u002A\u002A8*%
X26670000Y-2540000D03*
X26670000Y-12700000D03*
%TD*%
%TO.C,REF\u002A\u002A7*%
X24130000Y-2540000D03*
X24130000Y-12700000D03*
%TD*%
%TO.C,REF\u002A\u002A6*%
X21590000Y-2540000D03*
X21590000Y-12700000D03*
%TD*%
%TO.C,REF\u002A\u002A5*%
X19050000Y-2540000D03*
X19050000Y-12700000D03*
%TD*%
%TO.C,REF\u002A\u002A4*%
X16510000Y-2540000D03*
X16510000Y-12700000D03*
%TD*%
%TO.C,REF\u002A\u002A3*%
X13970000Y-2540000D03*
X13970000Y-12700000D03*
%TD*%
%TO.C,REF\u002A\u002A2*%
X11430000Y-2540000D03*
X11430000Y-12700000D03*
%TD*%
%TO.C,REF\u002A\u002A1*%
X8890000Y-2540000D03*
X8890000Y-12700000D03*
%TD*%
M02*
