%TF.GenerationSoftware,KiCad,Pcbnew,(5.99.0-1350-g7e4d255cd)*%
%TF.CreationDate,2020-04-19T23:06:08-06:00*%
%TF.ProjectId,generic-pcb,67656e65-7269-4632-9d70-63622e6b6963,rev?*%
%TF.SameCoordinates,PX5d42830PY292dfe0*%
%TF.FileFunction,Legend,Bot*%
%TF.FilePolarity,Positive*%
%FSLAX46Y46*%
G04 Gerber Fmt 4.6, Leading zero omitted, Abs format (unit mm)*
G04 Created by KiCad (PCBNEW (5.99.0-1350-g7e4d255cd)) date 2020-04-19 23:06:08*
%MOMM*%
%LPD*%
G01*
G04 APERTURE LIST*
G04 APERTURE END LIST*
X97995619Y-8606971D02*
X96979619Y-8606971D01*
X97995619Y-9042399D02*
X97463428Y-9042399D01*
X97366666Y-8994018D01*
X97318285Y-8897256D01*
X97318285Y-8752114D01*
X97366666Y-8655352D01*
X97415047Y-8606971D01*
X97318285Y-9381066D02*
X97318285Y-9768114D01*
X96979619Y-9526209D02*
X97850476Y-9526209D01*
X97947238Y-9574590D01*
X97995619Y-9671352D01*
X97995619Y-9768114D01*
X97318285Y-9961637D02*
X97318285Y-10348685D01*
X96979619Y-10106780D02*
X97850476Y-10106780D01*
X97947238Y-10155161D01*
X97995619Y-10251923D01*
X97995619Y-10348685D01*
X97318285Y-10687352D02*
X98334285Y-10687352D01*
X97366666Y-10687352D02*
X97318285Y-10784114D01*
X97318285Y-10977637D01*
X97366666Y-11074399D01*
X97415047Y-11122780D01*
X97511809Y-11171161D01*
X97802095Y-11171161D01*
X97898857Y-11122780D01*
X97947238Y-11074399D01*
X97995619Y-10977637D01*
X97995619Y-10784114D01*
X97947238Y-10687352D01*
X97947238Y-11558209D02*
X97995619Y-11654971D01*
X97995619Y-11848495D01*
X97947238Y-11945256D01*
X97850476Y-11993637D01*
X97802095Y-11993637D01*
X97705333Y-11945256D01*
X97656952Y-11848495D01*
X97656952Y-11703352D01*
X97608571Y-11606590D01*
X97511809Y-11558209D01*
X97463428Y-11558209D01*
X97366666Y-11606590D01*
X97318285Y-11703352D01*
X97318285Y-11848495D01*
X97366666Y-11945256D01*
X97898857Y-12429066D02*
X97947238Y-12477447D01*
X97995619Y-12429066D01*
X97947238Y-12380685D01*
X97898857Y-12429066D01*
X97995619Y-12429066D01*
X97366666Y-12429066D02*
X97415047Y-12477447D01*
X97463428Y-12429066D01*
X97415047Y-12380685D01*
X97366666Y-12429066D01*
X97463428Y-12429066D01*
X96931238Y-13638590D02*
X98237523Y-12767733D01*
X96931238Y-14702971D02*
X98237523Y-13832114D01*
X97318285Y-15477066D02*
X98140761Y-15477066D01*
X98237523Y-15428685D01*
X98285904Y-15380304D01*
X98334285Y-15283542D01*
X98334285Y-15138399D01*
X98285904Y-15041637D01*
X97947238Y-15477066D02*
X97995619Y-15380304D01*
X97995619Y-15186780D01*
X97947238Y-15090018D01*
X97898857Y-15041637D01*
X97802095Y-14993256D01*
X97511809Y-14993256D01*
X97415047Y-15041637D01*
X97366666Y-15090018D01*
X97318285Y-15186780D01*
X97318285Y-15380304D01*
X97366666Y-15477066D01*
X97995619Y-15960875D02*
X97318285Y-15960875D01*
X96979619Y-15960875D02*
X97028000Y-15912495D01*
X97076380Y-15960875D01*
X97028000Y-16009256D01*
X96979619Y-15960875D01*
X97076380Y-15960875D01*
X97318285Y-16299542D02*
X97318285Y-16686590D01*
X96979619Y-16444685D02*
X97850476Y-16444685D01*
X97947238Y-16493066D01*
X97995619Y-16589828D01*
X97995619Y-16686590D01*
X97995619Y-17025256D02*
X96979619Y-17025256D01*
X97995619Y-17460685D02*
X97463428Y-17460685D01*
X97366666Y-17412304D01*
X97318285Y-17315542D01*
X97318285Y-17170399D01*
X97366666Y-17073637D01*
X97415047Y-17025256D01*
X97318285Y-18379923D02*
X97995619Y-18379923D01*
X97318285Y-17944495D02*
X97850476Y-17944495D01*
X97947238Y-17992875D01*
X97995619Y-18089637D01*
X97995619Y-18234780D01*
X97947238Y-18331542D01*
X97898857Y-18379923D01*
X97995619Y-18863733D02*
X96979619Y-18863733D01*
X97366666Y-18863733D02*
X97318285Y-18960495D01*
X97318285Y-19154018D01*
X97366666Y-19250780D01*
X97415047Y-19299161D01*
X97511809Y-19347542D01*
X97802095Y-19347542D01*
X97898857Y-19299161D01*
X97947238Y-19250780D01*
X97995619Y-19154018D01*
X97995619Y-18960495D01*
X97947238Y-18863733D01*
X97898857Y-19782971D02*
X97947238Y-19831352D01*
X97995619Y-19782971D01*
X97947238Y-19734590D01*
X97898857Y-19782971D01*
X97995619Y-19782971D01*
X97947238Y-20702209D02*
X97995619Y-20605447D01*
X97995619Y-20411923D01*
X97947238Y-20315161D01*
X97898857Y-20266780D01*
X97802095Y-20218399D01*
X97511809Y-20218399D01*
X97415047Y-20266780D01*
X97366666Y-20315161D01*
X97318285Y-20411923D01*
X97318285Y-20605447D01*
X97366666Y-20702209D01*
X97995619Y-21282780D02*
X97947238Y-21186018D01*
X97898857Y-21137637D01*
X97802095Y-21089256D01*
X97511809Y-21089256D01*
X97415047Y-21137637D01*
X97366666Y-21186018D01*
X97318285Y-21282780D01*
X97318285Y-21427923D01*
X97366666Y-21524685D01*
X97415047Y-21573066D01*
X97511809Y-21621447D01*
X97802095Y-21621447D01*
X97898857Y-21573066D01*
X97947238Y-21524685D01*
X97995619Y-21427923D01*
X97995619Y-21282780D01*
X97995619Y-22056875D02*
X97318285Y-22056875D01*
X97415047Y-22056875D02*
X97366666Y-22105256D01*
X97318285Y-22202018D01*
X97318285Y-22347161D01*
X97366666Y-22443923D01*
X97463428Y-22492304D01*
X97995619Y-22492304D01*
X97463428Y-22492304D02*
X97366666Y-22540685D01*
X97318285Y-22637447D01*
X97318285Y-22782590D01*
X97366666Y-22879352D01*
X97463428Y-22927733D01*
X97995619Y-22927733D01*
X96931238Y-24137256D02*
X98237523Y-23266399D01*
X97995619Y-24911352D02*
X97463428Y-24911352D01*
X97366666Y-24862971D01*
X97318285Y-24766209D01*
X97318285Y-24572685D01*
X97366666Y-24475923D01*
X97947238Y-24911352D02*
X97995619Y-24814590D01*
X97995619Y-24572685D01*
X97947238Y-24475923D01*
X97850476Y-24427542D01*
X97753714Y-24427542D01*
X97656952Y-24475923D01*
X97608571Y-24572685D01*
X97608571Y-24814590D01*
X97560190Y-24911352D01*
X97995619Y-25540304D02*
X97947238Y-25443542D01*
X97850476Y-25395161D01*
X96979619Y-25395161D01*
X97947238Y-26314399D02*
X97995619Y-26217637D01*
X97995619Y-26024114D01*
X97947238Y-25927352D01*
X97850476Y-25878971D01*
X97463428Y-25878971D01*
X97366666Y-25927352D01*
X97318285Y-26024114D01*
X97318285Y-26217637D01*
X97366666Y-26314399D01*
X97463428Y-26362780D01*
X97560190Y-26362780D01*
X97656952Y-25878971D01*
X97995619Y-26701447D02*
X97318285Y-27233637D01*
X97318285Y-26701447D02*
X97995619Y-27233637D01*
X97995619Y-27620685D02*
X97318285Y-27620685D01*
X96979619Y-27620685D02*
X97028000Y-27572304D01*
X97076380Y-27620685D01*
X97028000Y-27669066D01*
X96979619Y-27620685D01*
X97076380Y-27620685D01*
X97947238Y-28056114D02*
X97995619Y-28152875D01*
X97995619Y-28346399D01*
X97947238Y-28443161D01*
X97850476Y-28491542D01*
X97802095Y-28491542D01*
X97705333Y-28443161D01*
X97656952Y-28346399D01*
X97656952Y-28201256D01*
X97608571Y-28104495D01*
X97511809Y-28056114D01*
X97463428Y-28056114D01*
X97366666Y-28104495D01*
X97318285Y-28201256D01*
X97318285Y-28346399D01*
X97366666Y-28443161D01*
X97318285Y-28830209D02*
X97995619Y-29072114D01*
X97318285Y-29314018D01*
X97995619Y-29846209D02*
X97947238Y-29749447D01*
X97850476Y-29701066D01*
X96979619Y-29701066D01*
X96931238Y-30958971D02*
X98237523Y-30088114D01*
X97318285Y-31297637D02*
X98334285Y-31297637D01*
X97366666Y-31297637D02*
X97318285Y-31394399D01*
X97318285Y-31587923D01*
X97366666Y-31684685D01*
X97415047Y-31733066D01*
X97511809Y-31781447D01*
X97802095Y-31781447D01*
X97898857Y-31733066D01*
X97947238Y-31684685D01*
X97995619Y-31587923D01*
X97995619Y-31394399D01*
X97947238Y-31297637D01*
X97995619Y-32216875D02*
X97318285Y-32216875D01*
X97511809Y-32216875D02*
X97415047Y-32265256D01*
X97366666Y-32313637D01*
X97318285Y-32410399D01*
X97318285Y-32507161D01*
X97995619Y-32990971D02*
X97947238Y-32894209D01*
X97898857Y-32845828D01*
X97802095Y-32797447D01*
X97511809Y-32797447D01*
X97415047Y-32845828D01*
X97366666Y-32894209D01*
X97318285Y-32990971D01*
X97318285Y-33136114D01*
X97366666Y-33232875D01*
X97415047Y-33281256D01*
X97511809Y-33329637D01*
X97802095Y-33329637D01*
X97898857Y-33281256D01*
X97947238Y-33232875D01*
X97995619Y-33136114D01*
X97995619Y-32990971D01*
X97318285Y-33619923D02*
X97318285Y-34006971D01*
X96979619Y-33765066D02*
X97850476Y-33765066D01*
X97947238Y-33813447D01*
X97995619Y-33910209D01*
X97995619Y-34006971D01*
X97995619Y-34490780D02*
X97947238Y-34394018D01*
X97898857Y-34345637D01*
X97802095Y-34297256D01*
X97511809Y-34297256D01*
X97415047Y-34345637D01*
X97366666Y-34394018D01*
X97318285Y-34490780D01*
X97318285Y-34635923D01*
X97366666Y-34732685D01*
X97415047Y-34781066D01*
X97511809Y-34829447D01*
X97802095Y-34829447D01*
X97898857Y-34781066D01*
X97947238Y-34732685D01*
X97995619Y-34635923D01*
X97995619Y-34490780D01*
X97995619Y-35264875D02*
X96979619Y-35264875D01*
X97366666Y-35264875D02*
X97318285Y-35361637D01*
X97318285Y-35555161D01*
X97366666Y-35651923D01*
X97415047Y-35700304D01*
X97511809Y-35748685D01*
X97802095Y-35748685D01*
X97898857Y-35700304D01*
X97947238Y-35651923D01*
X97995619Y-35555161D01*
X97995619Y-35361637D01*
X97947238Y-35264875D01*
X97995619Y-36329256D02*
X97947238Y-36232495D01*
X97898857Y-36184114D01*
X97802095Y-36135733D01*
X97511809Y-36135733D01*
X97415047Y-36184114D01*
X97366666Y-36232495D01*
X97318285Y-36329256D01*
X97318285Y-36474399D01*
X97366666Y-36571161D01*
X97415047Y-36619542D01*
X97511809Y-36667923D01*
X97802095Y-36667923D01*
X97898857Y-36619542D01*
X97947238Y-36571161D01*
X97995619Y-36474399D01*
X97995619Y-36329256D01*
X97995619Y-37538780D02*
X97463428Y-37538780D01*
X97366666Y-37490399D01*
X97318285Y-37393637D01*
X97318285Y-37200114D01*
X97366666Y-37103352D01*
X97947238Y-37538780D02*
X97995619Y-37442018D01*
X97995619Y-37200114D01*
X97947238Y-37103352D01*
X97850476Y-37054971D01*
X97753714Y-37054971D01*
X97656952Y-37103352D01*
X97608571Y-37200114D01*
X97608571Y-37442018D01*
X97560190Y-37538780D01*
X97995619Y-38022590D02*
X97318285Y-38022590D01*
X97511809Y-38022590D02*
X97415047Y-38070971D01*
X97366666Y-38119352D01*
X97318285Y-38216114D01*
X97318285Y-38312875D01*
X97995619Y-39086971D02*
X96979619Y-39086971D01*
X97947238Y-39086971D02*
X97995619Y-38990209D01*
X97995619Y-38796685D01*
X97947238Y-38699923D01*
X97898857Y-38651542D01*
X97802095Y-38603161D01*
X97511809Y-38603161D01*
X97415047Y-38651542D01*
X97366666Y-38699923D01*
X97318285Y-38796685D01*
X97318285Y-38990209D01*
X97366666Y-39086971D01*
X97608571Y-39570780D02*
X97608571Y-40344875D01*
X97318285Y-40828685D02*
X98334285Y-40828685D01*
X97366666Y-40828685D02*
X97318285Y-40925447D01*
X97318285Y-41118971D01*
X97366666Y-41215733D01*
X97415047Y-41264114D01*
X97511809Y-41312495D01*
X97802095Y-41312495D01*
X97898857Y-41264114D01*
X97947238Y-41215733D01*
X97995619Y-41118971D01*
X97995619Y-40925447D01*
X97947238Y-40828685D01*
X97947238Y-42183352D02*
X97995619Y-42086590D01*
X97995619Y-41893066D01*
X97947238Y-41796304D01*
X97898857Y-41747923D01*
X97802095Y-41699542D01*
X97511809Y-41699542D01*
X97415047Y-41747923D01*
X97366666Y-41796304D01*
X97318285Y-41893066D01*
X97318285Y-42086590D01*
X97366666Y-42183352D01*
X97995619Y-42618780D02*
X96979619Y-42618780D01*
X97366666Y-42618780D02*
X97318285Y-42715542D01*
X97318285Y-42909066D01*
X97366666Y-43005828D01*
X97415047Y-43054209D01*
X97511809Y-43102590D01*
X97802095Y-43102590D01*
X97898857Y-43054209D01*
X97947238Y-43005828D01*
X97995619Y-42909066D01*
X97995619Y-42715542D01*
X97947238Y-42618780D01*
X96931238Y-45037828D02*
X98237523Y-44166971D01*
X97995619Y-46150590D02*
X96979619Y-46150590D01*
X97995619Y-46586018D02*
X97463428Y-46586018D01*
X97366666Y-46537637D01*
X97318285Y-46440875D01*
X97318285Y-46295733D01*
X97366666Y-46198971D01*
X97415047Y-46150590D01*
X97318285Y-46924685D02*
X97318285Y-47311733D01*
X96979619Y-47069828D02*
X97850476Y-47069828D01*
X97947238Y-47118209D01*
X97995619Y-47214971D01*
X97995619Y-47311733D01*
X97318285Y-47505256D02*
X97318285Y-47892304D01*
X96979619Y-47650399D02*
X97850476Y-47650399D01*
X97947238Y-47698780D01*
X97995619Y-47795542D01*
X97995619Y-47892304D01*
X97318285Y-48230971D02*
X98334285Y-48230971D01*
X97366666Y-48230971D02*
X97318285Y-48327733D01*
X97318285Y-48521256D01*
X97366666Y-48618018D01*
X97415047Y-48666399D01*
X97511809Y-48714780D01*
X97802095Y-48714780D01*
X97898857Y-48666399D01*
X97947238Y-48618018D01*
X97995619Y-48521256D01*
X97995619Y-48327733D01*
X97947238Y-48230971D01*
X97947238Y-49101828D02*
X97995619Y-49198590D01*
X97995619Y-49392114D01*
X97947238Y-49488875D01*
X97850476Y-49537256D01*
X97802095Y-49537256D01*
X97705333Y-49488875D01*
X97656952Y-49392114D01*
X97656952Y-49246971D01*
X97608571Y-49150209D01*
X97511809Y-49101828D01*
X97463428Y-49101828D01*
X97366666Y-49150209D01*
X97318285Y-49246971D01*
X97318285Y-49392114D01*
X97366666Y-49488875D01*
X97898857Y-49972685D02*
X97947238Y-50021066D01*
X97995619Y-49972685D01*
X97947238Y-49924304D01*
X97898857Y-49972685D01*
X97995619Y-49972685D01*
X97366666Y-49972685D02*
X97415047Y-50021066D01*
X97463428Y-49972685D01*
X97415047Y-49924304D01*
X97366666Y-49972685D01*
X97463428Y-49972685D01*
X96931238Y-51182209D02*
X98237523Y-50311352D01*
X96931238Y-52246590D02*
X98237523Y-51375733D01*
X97318285Y-53020685D02*
X98140761Y-53020685D01*
X98237523Y-52972304D01*
X98285904Y-52923923D01*
X98334285Y-52827161D01*
X98334285Y-52682018D01*
X98285904Y-52585256D01*
X97947238Y-53020685D02*
X97995619Y-52923923D01*
X97995619Y-52730399D01*
X97947238Y-52633637D01*
X97898857Y-52585256D01*
X97802095Y-52536875D01*
X97511809Y-52536875D01*
X97415047Y-52585256D01*
X97366666Y-52633637D01*
X97318285Y-52730399D01*
X97318285Y-52923923D01*
X97366666Y-53020685D01*
X97995619Y-53504495D02*
X97318285Y-53504495D01*
X96979619Y-53504495D02*
X97028000Y-53456114D01*
X97076380Y-53504495D01*
X97028000Y-53552875D01*
X96979619Y-53504495D01*
X97076380Y-53504495D01*
X97318285Y-53843161D02*
X97318285Y-54230209D01*
X96979619Y-53988304D02*
X97850476Y-53988304D01*
X97947238Y-54036685D01*
X97995619Y-54133447D01*
X97995619Y-54230209D01*
X97995619Y-54568875D02*
X96979619Y-54568875D01*
X97995619Y-55004304D02*
X97463428Y-55004304D01*
X97366666Y-54955923D01*
X97318285Y-54859161D01*
X97318285Y-54714018D01*
X97366666Y-54617256D01*
X97415047Y-54568875D01*
X97318285Y-55923542D02*
X97995619Y-55923542D01*
X97318285Y-55488114D02*
X97850476Y-55488114D01*
X97947238Y-55536495D01*
X97995619Y-55633256D01*
X97995619Y-55778399D01*
X97947238Y-55875161D01*
X97898857Y-55923542D01*
X97995619Y-56407352D02*
X96979619Y-56407352D01*
X97366666Y-56407352D02*
X97318285Y-56504114D01*
X97318285Y-56697637D01*
X97366666Y-56794399D01*
X97415047Y-56842780D01*
X97511809Y-56891161D01*
X97802095Y-56891161D01*
X97898857Y-56842780D01*
X97947238Y-56794399D01*
X97995619Y-56697637D01*
X97995619Y-56504114D01*
X97947238Y-56407352D01*
X97898857Y-57326590D02*
X97947238Y-57374971D01*
X97995619Y-57326590D01*
X97947238Y-57278209D01*
X97898857Y-57326590D01*
X97995619Y-57326590D01*
X97947238Y-58245828D02*
X97995619Y-58149066D01*
X97995619Y-57955542D01*
X97947238Y-57858780D01*
X97898857Y-57810399D01*
X97802095Y-57762018D01*
X97511809Y-57762018D01*
X97415047Y-57810399D01*
X97366666Y-57858780D01*
X97318285Y-57955542D01*
X97318285Y-58149066D01*
X97366666Y-58245828D01*
X97995619Y-58826399D02*
X97947238Y-58729637D01*
X97898857Y-58681256D01*
X97802095Y-58632875D01*
X97511809Y-58632875D01*
X97415047Y-58681256D01*
X97366666Y-58729637D01*
X97318285Y-58826399D01*
X97318285Y-58971542D01*
X97366666Y-59068304D01*
X97415047Y-59116685D01*
X97511809Y-59165066D01*
X97802095Y-59165066D01*
X97898857Y-59116685D01*
X97947238Y-59068304D01*
X97995619Y-58971542D01*
X97995619Y-58826399D01*
X97995619Y-59600495D02*
X97318285Y-59600495D01*
X97415047Y-59600495D02*
X97366666Y-59648875D01*
X97318285Y-59745637D01*
X97318285Y-59890780D01*
X97366666Y-59987542D01*
X97463428Y-60035923D01*
X97995619Y-60035923D01*
X97463428Y-60035923D02*
X97366666Y-60084304D01*
X97318285Y-60181066D01*
X97318285Y-60326209D01*
X97366666Y-60422971D01*
X97463428Y-60471352D01*
X97995619Y-60471352D01*
X96931238Y-61680875D02*
X98237523Y-60810018D01*
X97995619Y-62019542D02*
X97318285Y-62019542D01*
X97511809Y-62019542D02*
X97415047Y-62067923D01*
X97366666Y-62116304D01*
X97318285Y-62213066D01*
X97318285Y-62309828D01*
X97318285Y-62648495D02*
X98189142Y-62648495D01*
X98285904Y-62600114D01*
X98334285Y-62503352D01*
X98334285Y-62454971D01*
X96979619Y-62648495D02*
X97028000Y-62600114D01*
X97076380Y-62648495D01*
X97028000Y-62696875D01*
X96979619Y-62648495D01*
X97076380Y-62648495D01*
X97318285Y-63035542D02*
X97995619Y-63229066D01*
X97511809Y-63422590D01*
X97995619Y-63616114D01*
X97318285Y-63809637D01*
X96979619Y-64680495D02*
X96979619Y-64196685D01*
X97463428Y-64148304D01*
X97415047Y-64196685D01*
X97366666Y-64293447D01*
X97366666Y-64535352D01*
X97415047Y-64632114D01*
X97463428Y-64680495D01*
X97560190Y-64728875D01*
X97802095Y-64728875D01*
X97898857Y-64680495D01*
X97947238Y-64632114D01*
X97995619Y-64535352D01*
X97995619Y-64293447D01*
X97947238Y-64196685D01*
X97898857Y-64148304D01*
X96979619Y-65067542D02*
X96979619Y-65744875D01*
X97995619Y-65309447D01*
X96931238Y-66857637D02*
X98237523Y-65986780D01*
X97318285Y-67196304D02*
X98334285Y-67196304D01*
X97366666Y-67196304D02*
X97318285Y-67293066D01*
X97318285Y-67486590D01*
X97366666Y-67583352D01*
X97415047Y-67631733D01*
X97511809Y-67680114D01*
X97802095Y-67680114D01*
X97898857Y-67631733D01*
X97947238Y-67583352D01*
X97995619Y-67486590D01*
X97995619Y-67293066D01*
X97947238Y-67196304D01*
X97995619Y-68115542D02*
X97318285Y-68115542D01*
X97511809Y-68115542D02*
X97415047Y-68163923D01*
X97366666Y-68212304D01*
X97318285Y-68309066D01*
X97318285Y-68405828D01*
X97995619Y-68889637D02*
X97947238Y-68792875D01*
X97898857Y-68744495D01*
X97802095Y-68696114D01*
X97511809Y-68696114D01*
X97415047Y-68744495D01*
X97366666Y-68792875D01*
X97318285Y-68889637D01*
X97318285Y-69034780D01*
X97366666Y-69131542D01*
X97415047Y-69179923D01*
X97511809Y-69228304D01*
X97802095Y-69228304D01*
X97898857Y-69179923D01*
X97947238Y-69131542D01*
X97995619Y-69034780D01*
X97995619Y-68889637D01*
X97318285Y-69518590D02*
X97318285Y-69905637D01*
X96979619Y-69663733D02*
X97850476Y-69663733D01*
X97947238Y-69712114D01*
X97995619Y-69808875D01*
X97995619Y-69905637D01*
X97995619Y-70389447D02*
X97947238Y-70292685D01*
X97898857Y-70244304D01*
X97802095Y-70195923D01*
X97511809Y-70195923D01*
X97415047Y-70244304D01*
X97366666Y-70292685D01*
X97318285Y-70389447D01*
X97318285Y-70534590D01*
X97366666Y-70631352D01*
X97415047Y-70679733D01*
X97511809Y-70728114D01*
X97802095Y-70728114D01*
X97898857Y-70679733D01*
X97947238Y-70631352D01*
X97995619Y-70534590D01*
X97995619Y-70389447D01*
X97995619Y-71163542D02*
X96979619Y-71163542D01*
X97366666Y-71163542D02*
X97318285Y-71260304D01*
X97318285Y-71453828D01*
X97366666Y-71550590D01*
X97415047Y-71598971D01*
X97511809Y-71647352D01*
X97802095Y-71647352D01*
X97898857Y-71598971D01*
X97947238Y-71550590D01*
X97995619Y-71453828D01*
X97995619Y-71260304D01*
X97947238Y-71163542D01*
X97995619Y-72227923D02*
X97947238Y-72131161D01*
X97898857Y-72082780D01*
X97802095Y-72034399D01*
X97511809Y-72034399D01*
X97415047Y-72082780D01*
X97366666Y-72131161D01*
X97318285Y-72227923D01*
X97318285Y-72373066D01*
X97366666Y-72469828D01*
X97415047Y-72518209D01*
X97511809Y-72566590D01*
X97802095Y-72566590D01*
X97898857Y-72518209D01*
X97947238Y-72469828D01*
X97995619Y-72373066D01*
X97995619Y-72227923D01*
X97995619Y-73437447D02*
X97463428Y-73437447D01*
X97366666Y-73389066D01*
X97318285Y-73292304D01*
X97318285Y-73098780D01*
X97366666Y-73002018D01*
X97947238Y-73437447D02*
X97995619Y-73340685D01*
X97995619Y-73098780D01*
X97947238Y-73002018D01*
X97850476Y-72953637D01*
X97753714Y-72953637D01*
X97656952Y-73002018D01*
X97608571Y-73098780D01*
X97608571Y-73340685D01*
X97560190Y-73437447D01*
X97995619Y-73921256D02*
X97318285Y-73921256D01*
X97511809Y-73921256D02*
X97415047Y-73969637D01*
X97366666Y-74018018D01*
X97318285Y-74114780D01*
X97318285Y-74211542D01*
X97995619Y-74985637D02*
X96979619Y-74985637D01*
X97947238Y-74985637D02*
X97995619Y-74888875D01*
X97995619Y-74695352D01*
X97947238Y-74598590D01*
X97898857Y-74550209D01*
X97802095Y-74501828D01*
X97511809Y-74501828D01*
X97415047Y-74550209D01*
X97366666Y-74598590D01*
X97318285Y-74695352D01*
X97318285Y-74888875D01*
X97366666Y-74985637D01*
X97608571Y-75469447D02*
X97608571Y-76243542D01*
X97318285Y-76727352D02*
X98334285Y-76727352D01*
X97366666Y-76727352D02*
X97318285Y-76824114D01*
X97318285Y-77017637D01*
X97366666Y-77114399D01*
X97415047Y-77162780D01*
X97511809Y-77211161D01*
X97802095Y-77211161D01*
X97898857Y-77162780D01*
X97947238Y-77114399D01*
X97995619Y-77017637D01*
X97995619Y-76824114D01*
X97947238Y-76727352D01*
X97947238Y-78082018D02*
X97995619Y-77985256D01*
X97995619Y-77791733D01*
X97947238Y-77694971D01*
X97898857Y-77646590D01*
X97802095Y-77598209D01*
X97511809Y-77598209D01*
X97415047Y-77646590D01*
X97366666Y-77694971D01*
X97318285Y-77791733D01*
X97318285Y-77985256D01*
X97366666Y-78082018D01*
X97995619Y-78517447D02*
X96979619Y-78517447D01*
X97366666Y-78517447D02*
X97318285Y-78614209D01*
X97318285Y-78807733D01*
X97366666Y-78904495D01*
X97415047Y-78952875D01*
X97511809Y-79001256D01*
X97802095Y-79001256D01*
X97898857Y-78952875D01*
X97947238Y-78904495D01*
X97995619Y-78807733D01*
X97995619Y-78614209D01*
X97947238Y-78517447D01*
X3361785Y-88221428D02*
X3290357Y-88150000D01*
X3147500Y-88078571D01*
X2790357Y-88078571D01*
X2647500Y-88150000D01*
X2576071Y-88221428D01*
X2504642Y-88364285D01*
X2504642Y-88507142D01*
X2576071Y-88721428D01*
X3433214Y-89578571D01*
X2504642Y-89578571D01*
X1647500Y-88721428D02*
X1790357Y-88650000D01*
X1861785Y-88578571D01*
X1933214Y-88435714D01*
X1933214Y-88364285D01*
X1861785Y-88221428D01*
X1790357Y-88150000D01*
X1647500Y-88078571D01*
X1361785Y-88078571D01*
X1218928Y-88150000D01*
X1147500Y-88221428D01*
X1076071Y-88364285D01*
X1076071Y-88435714D01*
X1147500Y-88578571D01*
X1218928Y-88650000D01*
X1361785Y-88721428D01*
X1647500Y-88721428D01*
X1790357Y-88792857D01*
X1861785Y-88864285D01*
X1933214Y-89007142D01*
X1933214Y-89292857D01*
X1861785Y-89435714D01*
X1790357Y-89507142D01*
X1647500Y-89578571D01*
X1361785Y-89578571D01*
X1218928Y-89507142D01*
X1147500Y-89435714D01*
X1076071Y-89292857D01*
X1076071Y-89007142D01*
X1147500Y-88864285D01*
X1218928Y-88792857D01*
X1361785Y-88721428D01*
X3361785Y-22181428D02*
X3290357Y-22110000D01*
X3147500Y-22038571D01*
X2790357Y-22038571D01*
X2647500Y-22110000D01*
X2576071Y-22181428D01*
X2504642Y-22324285D01*
X2504642Y-22467142D01*
X2576071Y-22681428D01*
X3433214Y-23538571D01*
X2504642Y-23538571D01*
X2647500Y-27618571D02*
X2647500Y-28618571D01*
X3004642Y-27047142D02*
X3361785Y-28118571D01*
X2433214Y-28118571D01*
X2647500Y-32198571D02*
X2933214Y-32198571D01*
X3076071Y-32270000D01*
X3147500Y-32341428D01*
X3290357Y-32555714D01*
X3361785Y-32841428D01*
X3361785Y-33412857D01*
X3290357Y-33555714D01*
X3218928Y-33627142D01*
X3076071Y-33698571D01*
X2790357Y-33698571D01*
X2647500Y-33627142D01*
X2576071Y-33555714D01*
X2504642Y-33412857D01*
X2504642Y-33055714D01*
X2576071Y-32912857D01*
X2647500Y-32841428D01*
X2790357Y-32770000D01*
X3076071Y-32770000D01*
X3218928Y-32841428D01*
X3290357Y-32912857D01*
X3361785Y-33055714D01*
X3076071Y-37921428D02*
X3218928Y-37850000D01*
X3290357Y-37778571D01*
X3361785Y-37635714D01*
X3361785Y-37564285D01*
X3290357Y-37421428D01*
X3218928Y-37350000D01*
X3076071Y-37278571D01*
X2790357Y-37278571D01*
X2647500Y-37350000D01*
X2576071Y-37421428D01*
X2504642Y-37564285D01*
X2504642Y-37635714D01*
X2576071Y-37778571D01*
X2647500Y-37850000D01*
X2790357Y-37921428D01*
X3076071Y-37921428D01*
X3218928Y-37992857D01*
X3290357Y-38064285D01*
X3361785Y-38207142D01*
X3361785Y-38492857D01*
X3290357Y-38635714D01*
X3218928Y-38707142D01*
X3076071Y-38778571D01*
X2790357Y-38778571D01*
X2647500Y-38707142D01*
X2576071Y-38635714D01*
X2504642Y-38492857D01*
X2504642Y-38207142D01*
X2576071Y-38064285D01*
X2647500Y-37992857D01*
X2790357Y-37921428D01*
X2504642Y-43858571D02*
X3361785Y-43858571D01*
X2933214Y-43858571D02*
X2933214Y-42358571D01*
X3076071Y-42572857D01*
X3218928Y-42715714D01*
X3361785Y-42787142D01*
X1576071Y-42358571D02*
X1433214Y-42358571D01*
X1290357Y-42430000D01*
X1218928Y-42501428D01*
X1147500Y-42644285D01*
X1076071Y-42930000D01*
X1076071Y-43287142D01*
X1147500Y-43572857D01*
X1218928Y-43715714D01*
X1290357Y-43787142D01*
X1433214Y-43858571D01*
X1576071Y-43858571D01*
X1718928Y-43787142D01*
X1790357Y-43715714D01*
X1861785Y-43572857D01*
X1933214Y-43287142D01*
X1933214Y-42930000D01*
X1861785Y-42644285D01*
X1790357Y-42501428D01*
X1718928Y-42430000D01*
X1576071Y-42358571D01*
X2504642Y-48938571D02*
X3361785Y-48938571D01*
X2933214Y-48938571D02*
X2933214Y-47438571D01*
X3076071Y-47652857D01*
X3218928Y-47795714D01*
X3361785Y-47867142D01*
X1933214Y-47581428D02*
X1861785Y-47510000D01*
X1718928Y-47438571D01*
X1361785Y-47438571D01*
X1218928Y-47510000D01*
X1147500Y-47581428D01*
X1076071Y-47724285D01*
X1076071Y-47867142D01*
X1147500Y-48081428D01*
X2004642Y-48938571D01*
X1076071Y-48938571D01*
X2504642Y-54018571D02*
X3361785Y-54018571D01*
X2933214Y-54018571D02*
X2933214Y-52518571D01*
X3076071Y-52732857D01*
X3218928Y-52875714D01*
X3361785Y-52947142D01*
X1218928Y-53018571D02*
X1218928Y-54018571D01*
X1576071Y-52447142D02*
X1933214Y-53518571D01*
X1004642Y-53518571D01*
X2504642Y-59098571D02*
X3361785Y-59098571D01*
X2933214Y-59098571D02*
X2933214Y-57598571D01*
X3076071Y-57812857D01*
X3218928Y-57955714D01*
X3361785Y-58027142D01*
X1218928Y-57598571D02*
X1504642Y-57598571D01*
X1647500Y-57670000D01*
X1718928Y-57741428D01*
X1861785Y-57955714D01*
X1933214Y-58241428D01*
X1933214Y-58812857D01*
X1861785Y-58955714D01*
X1790357Y-59027142D01*
X1647500Y-59098571D01*
X1361785Y-59098571D01*
X1218928Y-59027142D01*
X1147500Y-58955714D01*
X1076071Y-58812857D01*
X1076071Y-58455714D01*
X1147500Y-58312857D01*
X1218928Y-58241428D01*
X1361785Y-58170000D01*
X1647500Y-58170000D01*
X1790357Y-58241428D01*
X1861785Y-58312857D01*
X1933214Y-58455714D01*
X2504642Y-64178571D02*
X3361785Y-64178571D01*
X2933214Y-64178571D02*
X2933214Y-62678571D01*
X3076071Y-62892857D01*
X3218928Y-63035714D01*
X3361785Y-63107142D01*
X1647500Y-63321428D02*
X1790357Y-63250000D01*
X1861785Y-63178571D01*
X1933214Y-63035714D01*
X1933214Y-62964285D01*
X1861785Y-62821428D01*
X1790357Y-62750000D01*
X1647500Y-62678571D01*
X1361785Y-62678571D01*
X1218928Y-62750000D01*
X1147500Y-62821428D01*
X1076071Y-62964285D01*
X1076071Y-63035714D01*
X1147500Y-63178571D01*
X1218928Y-63250000D01*
X1361785Y-63321428D01*
X1647500Y-63321428D01*
X1790357Y-63392857D01*
X1861785Y-63464285D01*
X1933214Y-63607142D01*
X1933214Y-63892857D01*
X1861785Y-64035714D01*
X1790357Y-64107142D01*
X1647500Y-64178571D01*
X1361785Y-64178571D01*
X1218928Y-64107142D01*
X1147500Y-64035714D01*
X1076071Y-63892857D01*
X1076071Y-63607142D01*
X1147500Y-63464285D01*
X1218928Y-63392857D01*
X1361785Y-63321428D01*
X3361785Y-67901428D02*
X3290357Y-67830000D01*
X3147500Y-67758571D01*
X2790357Y-67758571D01*
X2647500Y-67830000D01*
X2576071Y-67901428D01*
X2504642Y-68044285D01*
X2504642Y-68187142D01*
X2576071Y-68401428D01*
X3433214Y-69258571D01*
X2504642Y-69258571D01*
X1576071Y-67758571D02*
X1433214Y-67758571D01*
X1290357Y-67830000D01*
X1218928Y-67901428D01*
X1147500Y-68044285D01*
X1076071Y-68330000D01*
X1076071Y-68687142D01*
X1147500Y-68972857D01*
X1218928Y-69115714D01*
X1290357Y-69187142D01*
X1433214Y-69258571D01*
X1576071Y-69258571D01*
X1718928Y-69187142D01*
X1790357Y-69115714D01*
X1861785Y-68972857D01*
X1933214Y-68687142D01*
X1933214Y-68330000D01*
X1861785Y-68044285D01*
X1790357Y-67901428D01*
X1718928Y-67830000D01*
X1576071Y-67758571D01*
X3361785Y-72981428D02*
X3290357Y-72910000D01*
X3147500Y-72838571D01*
X2790357Y-72838571D01*
X2647500Y-72910000D01*
X2576071Y-72981428D01*
X2504642Y-73124285D01*
X2504642Y-73267142D01*
X2576071Y-73481428D01*
X3433214Y-74338571D01*
X2504642Y-74338571D01*
X1933214Y-72981428D02*
X1861785Y-72910000D01*
X1718928Y-72838571D01*
X1361785Y-72838571D01*
X1218928Y-72910000D01*
X1147500Y-72981428D01*
X1076071Y-73124285D01*
X1076071Y-73267142D01*
X1147500Y-73481428D01*
X2004642Y-74338571D01*
X1076071Y-74338571D01*
X3361785Y-78061428D02*
X3290357Y-77990000D01*
X3147500Y-77918571D01*
X2790357Y-77918571D01*
X2647500Y-77990000D01*
X2576071Y-78061428D01*
X2504642Y-78204285D01*
X2504642Y-78347142D01*
X2576071Y-78561428D01*
X3433214Y-79418571D01*
X2504642Y-79418571D01*
X1218928Y-78418571D02*
X1218928Y-79418571D01*
X1576071Y-77847142D02*
X1933214Y-78918571D01*
X1004642Y-78918571D01*
X3361785Y-83141428D02*
X3290357Y-83070000D01*
X3147500Y-82998571D01*
X2790357Y-82998571D01*
X2647500Y-83070000D01*
X2576071Y-83141428D01*
X2504642Y-83284285D01*
X2504642Y-83427142D01*
X2576071Y-83641428D01*
X3433214Y-84498571D01*
X2504642Y-84498571D01*
X1218928Y-82998571D02*
X1504642Y-82998571D01*
X1647500Y-83070000D01*
X1718928Y-83141428D01*
X1861785Y-83355714D01*
X1933214Y-83641428D01*
X1933214Y-84212857D01*
X1861785Y-84355714D01*
X1790357Y-84427142D01*
X1647500Y-84498571D01*
X1361785Y-84498571D01*
X1218928Y-84427142D01*
X1147500Y-84355714D01*
X1076071Y-84212857D01*
X1076071Y-83855714D01*
X1147500Y-83712857D01*
X1218928Y-83641428D01*
X1361785Y-83570000D01*
X1647500Y-83570000D01*
X1790357Y-83641428D01*
X1861785Y-83712857D01*
X1933214Y-83855714D01*
M02*
