M48
; DRILL file {KiCad (5.99.0-1350-g7e4d255cd)} date Sun Apr 19 23:06:11 2020
; FORMAT={-:-/ absolute / inch / decimal}
; #@! TF.CreationDate,2020-04-19T23:06:11-06:00
; #@! TF.GenerationSoftware,Kicad,Pcbnew,(5.99.0-1350-g7e4d255cd)
; #@! TF.FileFunction,Plated,1,2,PTH
FMAT,2
INCH
T1C0.0300
T2C0.0320
%
G90
G05
T1
X1.45Y-0.1
X1.45Y-0.2
X1.45Y-0.3
X1.45Y-0.4
X1.45Y-0.5
X0.45Y-0.1
X0.45Y-0.2
X0.45Y-0.3
X0.45Y-0.4
X0.45Y-0.5
X1.85Y-0.1
X1.85Y-0.2
X1.85Y-0.3
X1.85Y-0.4
X1.85Y-0.5
X3.35Y-0.1
X3.35Y-0.2
X3.35Y-0.3
X3.35Y-0.4
X3.35Y-0.5
X1.35Y-0.1
X1.35Y-0.2
X1.35Y-0.3
X1.35Y-0.4
X1.35Y-0.5
X0.65Y-0.1
X0.65Y-0.2
X0.65Y-0.3
X0.65Y-0.4
X0.65Y-0.5
X2.95Y-0.1
X2.95Y-0.2
X2.95Y-0.3
X2.95Y-0.4
X2.95Y-0.5
X1.05Y-0.1
X1.05Y-0.2
X1.05Y-0.3
X1.05Y-0.4
X1.05Y-0.5
X3.55Y-0.1
X3.55Y-0.2
X3.55Y-0.3
X3.55Y-0.4
X3.55Y-0.5
X2.45Y-0.1
X2.45Y-0.2
X2.45Y-0.3
X2.45Y-0.4
X2.45Y-0.5
X2.75Y-0.1
X2.75Y-0.2
X2.75Y-0.3
X2.75Y-0.4
X2.75Y-0.5
X1.55Y-0.1
X1.55Y-0.2
X1.55Y-0.3
X1.55Y-0.4
X1.55Y-0.5
X1.65Y-0.1
X1.65Y-0.2
X1.65Y-0.3
X1.65Y-0.4
X1.65Y-0.5
X2.55Y-0.1
X2.55Y-0.2
X2.55Y-0.3
X2.55Y-0.4
X2.55Y-0.5
X0.35Y-0.1
X0.35Y-0.2
X0.35Y-0.3
X0.35Y-0.4
X0.35Y-0.5
X3.15Y-0.1
X3.15Y-0.2
X3.15Y-0.3
X3.15Y-0.4
X3.15Y-0.5
X2.35Y-0.1
X2.35Y-0.2
X2.35Y-0.3
X2.35Y-0.4
X2.35Y-0.5
X0.55Y-0.1
X0.55Y-0.2
X0.55Y-0.3
X0.55Y-0.4
X0.55Y-0.5
X1.95Y-0.1
X1.95Y-0.2
X1.95Y-0.3
X1.95Y-0.4
X1.95Y-0.5
X1.15Y-0.1
X1.15Y-0.2
X1.15Y-0.3
X1.15Y-0.4
X1.15Y-0.5
X2.85Y-0.1
X2.85Y-0.2
X2.85Y-0.3
X2.85Y-0.4
X2.85Y-0.5
X0.95Y-0.1
X0.95Y-0.2
X0.95Y-0.3
X0.95Y-0.4
X0.95Y-0.5
X3.45Y-0.1
X3.45Y-0.2
X3.45Y-0.3
X3.45Y-0.4
X3.45Y-0.5
X1.25Y-0.1
X1.25Y-0.2
X1.25Y-0.3
X1.25Y-0.4
X1.25Y-0.5
X2.65Y-0.1
X2.65Y-0.2
X2.65Y-0.3
X2.65Y-0.4
X2.65Y-0.5
X0.75Y-0.1
X0.75Y-0.2
X0.75Y-0.3
X0.75Y-0.4
X0.75Y-0.5
X3.25Y-0.1
X3.25Y-0.2
X3.25Y-0.3
X3.25Y-0.4
X3.25Y-0.5
X2.15Y-0.1
X2.15Y-0.2
X2.15Y-0.3
X2.15Y-0.4
X2.15Y-0.5
X3.05Y-0.1
X3.05Y-0.2
X3.05Y-0.3
X3.05Y-0.4
X3.05Y-0.5
X0.85Y-0.1
X0.85Y-0.2
X0.85Y-0.3
X0.85Y-0.4
X0.85Y-0.5
X2.25Y-0.1
X2.25Y-0.2
X2.25Y-0.3
X2.25Y-0.4
X2.25Y-0.5
X1.75Y-0.1
X1.75Y-0.2
X1.75Y-0.3
X1.75Y-0.4
X1.75Y-0.5
X2.05Y-0.1
X2.05Y-0.2
X2.05Y-0.3
X2.05Y-0.4
X2.05Y-0.5
T2
X1.15Y-2.6
X1.25Y-2.6
X1.35Y-2.6
X1.45Y-2.6
X1.55Y-2.6
X1.65Y-2.6
X1.75Y-2.6
X1.85Y-2.6
X1.95Y-2.6
X1.15Y-1.1
X1.25Y-1.1
X1.35Y-1.1
X1.45Y-1.1
X1.55Y-1.1
X1.65Y-1.1
X1.75Y-1.1
X1.85Y-1.1
X1.95Y-1.1
X2.05Y-2.7
X2.15Y-2.7
X2.25Y-2.7
X2.35Y-2.7
X2.45Y-2.7
X2.55Y-2.7
X2.65Y-2.7
X2.75Y-2.7
X2.85Y-2.7
X2.95Y-3.5
X3.05Y-3.5
X3.15Y-3.5
X3.25Y-3.5
X3.35Y-3.5
X3.45Y-3.5
X3.55Y-3.5
X3.65Y-3.5
X3.75Y-3.5
X0.25Y-2.1
X0.35Y-2.1
X0.45Y-2.1
X0.55Y-2.1
X0.65Y-2.1
X0.75Y-2.1
X0.85Y-2.1
X0.95Y-2.1
X1.05Y-2.1
X2.95Y-2.5
X3.05Y-2.5
X3.15Y-2.5
X3.25Y-2.5
X3.35Y-2.5
X3.45Y-2.5
X3.55Y-2.5
X3.65Y-2.5
X3.75Y-2.5
X1.05Y-3.7
X1.05Y-3.8
X0.25Y-2.1
X0.35Y-2.1
X0.45Y-2.1
X0.55Y-2.1
X0.65Y-2.1
X0.75Y-2.1
X0.85Y-2.1
X0.95Y-2.1
X1.05Y-2.1
X1.15Y-3.6
X1.25Y-3.6
X1.35Y-3.6
X1.45Y-3.6
X1.55Y-3.6
X1.65Y-3.6
X1.75Y-3.6
X1.85Y-3.6
X1.95Y-3.6
X2.05Y-2.9
X2.15Y-2.9
X2.25Y-2.9
X2.35Y-2.9
X2.45Y-2.9
X2.55Y-2.9
X2.65Y-2.9
X2.75Y-2.9
X2.85Y-2.9
X0.75Y-3.7
X0.75Y-3.8
X2.05Y-3.5
X2.15Y-3.5
X2.25Y-3.5
X2.35Y-3.5
X2.45Y-3.5
X2.55Y-3.5
X2.65Y-3.5
X2.75Y-3.5
X2.85Y-3.5
X0.25Y-3.2
X0.35Y-3.2
X0.45Y-3.2
X0.55Y-3.2
X0.65Y-3.2
X0.75Y-3.2
X0.85Y-3.2
X0.95Y-3.2
X1.05Y-3.2
X2.95Y-1.7
X3.05Y-1.7
X3.15Y-1.7
X3.25Y-1.7
X3.35Y-1.7
X3.45Y-1.7
X3.55Y-1.7
X3.65Y-1.7
X3.75Y-1.7
X1.15Y-2.7
X1.25Y-2.7
X1.35Y-2.7
X1.45Y-2.7
X1.55Y-2.7
X1.65Y-2.7
X1.75Y-2.7
X1.85Y-2.7
X1.95Y-2.7
X0.25Y-2.8
X0.35Y-2.8
X0.45Y-2.8
X0.55Y-2.8
X0.65Y-2.8
X0.75Y-2.8
X0.85Y-2.8
X0.95Y-2.8
X1.05Y-2.8
X2.05Y-0.6
X2.05Y-0.7
X2.15Y-0.6
X2.15Y-0.7
X2.25Y-0.6
X2.25Y-0.7
X2.35Y-0.6
X2.35Y-0.7
X2.45Y-0.6
X2.45Y-0.7
X2.55Y-0.6
X2.55Y-0.7
X2.65Y-0.6
X2.65Y-0.7
X2.75Y-0.6
X2.75Y-0.7
X2.85Y-0.6
X2.85Y-0.7
X2.05Y-2.4
X2.15Y-2.4
X2.25Y-2.4
X2.35Y-2.4
X2.45Y-2.4
X2.55Y-2.4
X2.65Y-2.4
X2.75Y-2.4
X2.85Y-2.4
X2.95Y-3.4
X3.05Y-3.4
X3.15Y-3.4
X3.25Y-3.4
X3.35Y-3.4
X3.45Y-3.4
X3.55Y-3.4
X3.65Y-3.4
X3.75Y-3.4
X2.95Y-3.6
X3.05Y-3.6
X3.15Y-3.6
X3.25Y-3.6
X3.35Y-3.6
X3.45Y-3.6
X3.55Y-3.6
X3.65Y-3.6
X3.75Y-3.6
X2.05Y-2.8
X2.15Y-2.8
X2.25Y-2.8
X2.35Y-2.8
X2.45Y-2.8
X2.55Y-2.8
X2.65Y-2.8
X2.75Y-2.8
X2.85Y-2.8
X2.05Y-2.2
X2.15Y-2.2
X2.25Y-2.2
X2.35Y-2.2
X2.45Y-2.2
X2.55Y-2.2
X2.65Y-2.2
X2.75Y-2.2
X2.85Y-2.2
X1.15Y-1.6
X1.25Y-1.6
X1.35Y-1.6
X1.45Y-1.6
X1.55Y-1.6
X1.65Y-1.6
X1.75Y-1.6
X1.85Y-1.6
X1.95Y-1.6
X2.95Y-2.4
X3.05Y-2.4
X3.15Y-2.4
X3.25Y-2.4
X3.35Y-2.4
X3.45Y-2.4
X3.55Y-2.4
X3.65Y-2.4
X3.75Y-2.4
X2.05Y-1.6
X2.15Y-1.6
X2.25Y-1.6
X2.35Y-1.6
X2.45Y-1.6
X2.55Y-1.6
X2.65Y-1.6
X2.75Y-1.6
X2.85Y-1.6
X2.15Y-3.7
X2.15Y-3.8
X1.15Y-2.0
X1.25Y-2.0
X1.35Y-2.0
X1.45Y-2.0
X1.55Y-2.0
X1.65Y-2.0
X1.75Y-2.0
X1.85Y-2.0
X1.95Y-2.0
X0.25Y-3.6
X0.35Y-3.6
X0.45Y-3.6
X0.55Y-3.6
X0.65Y-3.6
X0.75Y-3.6
X0.85Y-3.6
X0.95Y-3.6
X1.05Y-3.6
X1.85Y-3.7
X1.85Y-3.8
X0.25Y-3.1
X0.35Y-3.1
X0.45Y-3.1
X0.55Y-3.1
X0.65Y-3.1
X0.75Y-3.1
X0.85Y-3.1
X0.95Y-3.1
X1.05Y-3.1
X2.05Y-1.4
X2.15Y-1.4
X2.25Y-1.4
X2.35Y-1.4
X2.45Y-1.4
X2.55Y-1.4
X2.65Y-1.4
X2.75Y-1.4
X2.85Y-1.4
X1.15Y-0.9
X1.25Y-0.9
X1.35Y-0.9
X1.45Y-0.9
X1.55Y-0.9
X1.65Y-0.9
X1.75Y-0.9
X1.85Y-0.9
X1.95Y-0.9
X0.85Y-3.7
X0.85Y-3.8
X0.25Y-2.7
X0.35Y-2.7
X0.45Y-2.7
X0.55Y-2.7
X0.65Y-2.7
X0.75Y-2.7
X0.85Y-2.7
X0.95Y-2.7
X1.05Y-2.7
X0.25Y-1.8
X0.35Y-1.8
X0.45Y-1.8
X0.55Y-1.8
X0.65Y-1.8
X0.75Y-1.8
X0.85Y-1.8
X0.95Y-1.8
X1.05Y-1.8
X2.05Y-2.5
X2.15Y-2.5
X2.25Y-2.5
X2.35Y-2.5
X2.45Y-2.5
X2.55Y-2.5
X2.65Y-2.5
X2.75Y-2.5
X2.85Y-2.5
X0.25Y-1.9
X0.35Y-1.9
X0.45Y-1.9
X0.55Y-1.9
X0.65Y-1.9
X0.75Y-1.9
X0.85Y-1.9
X0.95Y-1.9
X1.05Y-1.9
X2.05Y-2.1
X2.15Y-2.1
X2.25Y-2.1
X2.35Y-2.1
X2.45Y-2.1
X2.55Y-2.1
X2.65Y-2.1
X2.75Y-2.1
X2.85Y-2.1
X2.95Y-2.9
X3.05Y-2.9
X3.15Y-2.9
X3.25Y-2.9
X3.35Y-2.9
X3.45Y-2.9
X3.55Y-2.9
X3.65Y-2.9
X3.75Y-2.9
X0.25Y-0.8
X0.35Y-0.8
X0.45Y-0.8
X0.55Y-0.8
X0.65Y-0.8
X0.75Y-0.8
X0.85Y-0.8
X0.95Y-0.8
X1.05Y-0.8
X0.25Y-2.9
X0.35Y-2.9
X0.45Y-2.9
X0.55Y-2.9
X0.65Y-2.9
X0.75Y-2.9
X0.85Y-2.9
X0.95Y-2.9
X1.05Y-2.9
X2.05Y-3.3
X2.15Y-3.3
X2.25Y-3.3
X2.35Y-3.3
X2.45Y-3.3
X2.55Y-3.3
X2.65Y-3.3
X2.75Y-3.3
X2.85Y-3.3
X2.95Y-1.9
X3.05Y-1.9
X3.15Y-1.9
X3.25Y-1.9
X3.35Y-1.9
X3.45Y-1.9
X3.55Y-1.9
X3.65Y-1.9
X3.75Y-1.9
X2.05Y-0.8
X2.15Y-0.8
X2.25Y-0.8
X2.35Y-0.8
X2.45Y-0.8
X2.55Y-0.8
X2.65Y-0.8
X2.75Y-0.8
X2.85Y-0.8
X2.05Y-2.8
X2.15Y-2.8
X2.25Y-2.8
X2.35Y-2.8
X2.45Y-2.8
X2.55Y-2.8
X2.65Y-2.8
X2.75Y-2.8
X2.85Y-2.8
X2.25Y-3.7
X2.25Y-3.8
X0.25Y-3.1
X0.35Y-3.1
X0.45Y-3.1
X0.55Y-3.1
X0.65Y-3.1
X0.75Y-3.1
X0.85Y-3.1
X0.95Y-3.1
X1.05Y-3.1
X1.95Y-3.7
X1.95Y-3.8
X0.55Y-3.7
X0.55Y-3.8
X0.25Y-1.6
X0.35Y-1.6
X0.45Y-1.6
X0.55Y-1.6
X0.65Y-1.6
X0.75Y-1.6
X0.85Y-1.6
X0.95Y-1.6
X1.05Y-1.6
X1.65Y-3.7
X1.65Y-3.8
X2.05Y-2.4
X2.15Y-2.4
X2.25Y-2.4
X2.35Y-2.4
X2.45Y-2.4
X2.55Y-2.4
X2.65Y-2.4
X2.75Y-2.4
X2.85Y-2.4
X0.65Y-3.7
X0.65Y-3.8
X0.25Y-1.3
X0.35Y-1.3
X0.45Y-1.3
X0.55Y-1.3
X0.65Y-1.3
X0.75Y-1.3
X0.85Y-1.3
X0.95Y-1.3
X1.05Y-1.3
X2.05Y-3.4
X2.15Y-3.4
X2.25Y-3.4
X2.35Y-3.4
X2.45Y-3.4
X2.55Y-3.4
X2.65Y-3.4
X2.75Y-3.4
X2.85Y-3.4
X2.05Y-1.2
X2.15Y-1.2
X2.25Y-1.2
X2.35Y-1.2
X2.45Y-1.2
X2.55Y-1.2
X2.65Y-1.2
X2.75Y-1.2
X2.85Y-1.2
X2.95Y-1.8
X3.05Y-1.8
X3.15Y-1.8
X3.25Y-1.8
X3.35Y-1.8
X3.45Y-1.8
X3.55Y-1.8
X3.65Y-1.8
X3.75Y-1.8
X0.25Y-2.9
X0.35Y-2.9
X0.45Y-2.9
X0.55Y-2.9
X0.65Y-2.9
X0.75Y-2.9
X0.85Y-2.9
X0.95Y-2.9
X1.05Y-2.9
X2.35Y-3.7
X2.35Y-3.8
X1.15Y-3.0
X1.25Y-3.0
X1.35Y-3.0
X1.45Y-3.0
X1.55Y-3.0
X1.65Y-3.0
X1.75Y-3.0
X1.85Y-3.0
X1.95Y-3.0
X2.05Y-3.7
X2.05Y-3.8
X2.05Y-2.3
X2.15Y-2.3
X2.25Y-2.3
X2.35Y-2.3
X2.45Y-2.3
X2.55Y-2.3
X2.65Y-2.3
X2.75Y-2.3
X2.85Y-2.3
X1.15Y-1.5
X1.25Y-1.5
X1.35Y-1.5
X1.45Y-1.5
X1.55Y-1.5
X1.65Y-1.5
X1.75Y-1.5
X1.85Y-1.5
X1.95Y-1.5
X2.95Y-3.1
X3.05Y-3.1
X3.15Y-3.1
X3.25Y-3.1
X3.35Y-3.1
X3.45Y-3.1
X3.55Y-3.1
X3.65Y-3.1
X3.75Y-3.1
X2.05Y-3.3
X2.15Y-3.3
X2.25Y-3.3
X2.35Y-3.3
X2.45Y-3.3
X2.55Y-3.3
X2.65Y-3.3
X2.75Y-3.3
X2.85Y-3.3
X1.75Y-3.7
X1.75Y-3.8
X1.45Y-3.7
X1.45Y-3.8
X1.15Y-2.3
X1.25Y-2.3
X1.35Y-2.3
X1.45Y-2.3
X1.55Y-2.3
X1.65Y-2.3
X1.75Y-2.3
X1.85Y-2.3
X1.95Y-2.3
X2.05Y-2.0
X2.15Y-2.0
X2.25Y-2.0
X2.35Y-2.0
X2.45Y-2.0
X2.55Y-2.0
X2.65Y-2.0
X2.75Y-2.0
X2.85Y-2.0
X1.15Y-0.6
X1.15Y-0.7
X1.25Y-0.6
X1.25Y-0.7
X1.35Y-0.6
X1.35Y-0.7
X1.45Y-0.6
X1.45Y-0.7
X1.55Y-0.6
X1.55Y-0.7
X1.65Y-0.6
X1.65Y-0.7
X1.75Y-0.6
X1.75Y-0.7
X1.85Y-0.6
X1.85Y-0.7
X1.95Y-0.6
X1.95Y-0.7
X2.05Y-1.8
X2.15Y-1.8
X2.25Y-1.8
X2.35Y-1.8
X2.45Y-1.8
X2.55Y-1.8
X2.65Y-1.8
X2.75Y-1.8
X2.85Y-1.8
X2.95Y-1.3
X3.05Y-1.3
X3.15Y-1.3
X3.25Y-1.3
X3.35Y-1.3
X3.45Y-1.3
X3.55Y-1.3
X3.65Y-1.3
X3.75Y-1.3
X0.25Y-2.4
X0.35Y-2.4
X0.45Y-2.4
X0.55Y-2.4
X0.65Y-2.4
X0.75Y-2.4
X0.85Y-2.4
X0.95Y-2.4
X1.05Y-2.4
X1.35Y-3.7
X1.35Y-3.8
X2.95Y-1.0
X3.05Y-1.0
X3.15Y-1.0
X3.25Y-1.0
X3.35Y-1.0
X3.45Y-1.0
X3.55Y-1.0
X3.65Y-1.0
X3.75Y-1.0
X2.05Y-3.2
X2.15Y-3.2
X2.25Y-3.2
X2.35Y-3.2
X2.45Y-3.2
X2.55Y-3.2
X2.65Y-3.2
X2.75Y-3.2
X2.85Y-3.2
X0.25Y-2.8
X0.35Y-2.8
X0.45Y-2.8
X0.55Y-2.8
X0.65Y-2.8
X0.75Y-2.8
X0.85Y-2.8
X0.95Y-2.8
X1.05Y-2.8
X2.95Y-2.0
X3.05Y-2.0
X3.15Y-2.0
X3.25Y-2.0
X3.35Y-2.0
X3.45Y-2.0
X3.55Y-2.0
X3.65Y-2.0
X3.75Y-2.0
X2.95Y-2.6
X3.05Y-2.6
X3.15Y-2.6
X3.25Y-2.6
X3.35Y-2.6
X3.45Y-2.6
X3.55Y-2.6
X3.65Y-2.6
X3.75Y-2.6
X2.05Y-1.7
X2.15Y-1.7
X2.25Y-1.7
X2.35Y-1.7
X2.45Y-1.7
X2.55Y-1.7
X2.65Y-1.7
X2.75Y-1.7
X2.85Y-1.7
X1.55Y-3.7
X1.55Y-3.8
X0.25Y-1.5
X0.35Y-1.5
X0.45Y-1.5
X0.55Y-1.5
X0.65Y-1.5
X0.75Y-1.5
X0.85Y-1.5
X0.95Y-1.5
X1.05Y-1.5
X2.95Y-1.1
X3.05Y-1.1
X3.15Y-1.1
X3.25Y-1.1
X3.35Y-1.1
X3.45Y-1.1
X3.55Y-1.1
X3.65Y-1.1
X3.75Y-1.1
X1.15Y-1.3
X1.25Y-1.3
X1.35Y-1.3
X1.45Y-1.3
X1.55Y-1.3
X1.65Y-1.3
X1.75Y-1.3
X1.85Y-1.3
X1.95Y-1.3
X0.25Y-2.5
X0.35Y-2.5
X0.45Y-2.5
X0.55Y-2.5
X0.65Y-2.5
X0.75Y-2.5
X0.85Y-2.5
X0.95Y-2.5
X1.05Y-2.5
X2.05Y-2.9
X2.15Y-2.9
X2.25Y-2.9
X2.35Y-2.9
X2.45Y-2.9
X2.55Y-2.9
X2.65Y-2.9
X2.75Y-2.9
X2.85Y-2.9
X2.05Y-3.6
X2.15Y-3.6
X2.25Y-3.6
X2.35Y-3.6
X2.45Y-3.6
X2.55Y-3.6
X2.65Y-3.6
X2.75Y-3.6
X2.85Y-3.6
X2.05Y-3.1
X2.15Y-3.1
X2.25Y-3.1
X2.35Y-3.1
X2.45Y-3.1
X2.55Y-3.1
X2.65Y-3.1
X2.75Y-3.1
X2.85Y-3.1
X0.25Y-2.3
X0.35Y-2.3
X0.45Y-2.3
X0.55Y-2.3
X0.65Y-2.3
X0.75Y-2.3
X0.85Y-2.3
X0.95Y-2.3
X1.05Y-2.3
X2.05Y-1.5
X2.15Y-1.5
X2.25Y-1.5
X2.35Y-1.5
X2.45Y-1.5
X2.55Y-1.5
X2.65Y-1.5
X2.75Y-1.5
X2.85Y-1.5
X2.05Y-2.2
X2.15Y-2.2
X2.25Y-2.2
X2.35Y-2.2
X2.45Y-2.2
X2.55Y-2.2
X2.65Y-2.2
X2.75Y-2.2
X2.85Y-2.2
X1.15Y-2.9
X1.25Y-2.9
X1.35Y-2.9
X1.45Y-2.9
X1.55Y-2.9
X1.65Y-2.9
X1.75Y-2.9
X1.85Y-2.9
X1.95Y-2.9
X0.25Y-3.2
X0.35Y-3.2
X0.45Y-3.2
X0.55Y-3.2
X0.65Y-3.2
X0.75Y-3.2
X0.85Y-3.2
X0.95Y-3.2
X1.05Y-3.2
X2.05Y-2.6
X2.15Y-2.6
X2.25Y-2.6
X2.35Y-2.6
X2.45Y-2.6
X2.55Y-2.6
X2.65Y-2.6
X2.75Y-2.6
X2.85Y-2.6
X1.15Y-1.4
X1.25Y-1.4
X1.35Y-1.4
X1.45Y-1.4
X1.55Y-1.4
X1.65Y-1.4
X1.75Y-1.4
X1.85Y-1.4
X1.95Y-1.4
X2.05Y-3.0
X2.15Y-3.0
X2.25Y-3.0
X2.35Y-3.0
X2.45Y-3.0
X2.55Y-3.0
X2.65Y-3.0
X2.75Y-3.0
X2.85Y-3.0
X2.95Y-2.8
X3.05Y-2.8
X3.15Y-2.8
X3.25Y-2.8
X3.35Y-2.8
X3.45Y-2.8
X3.55Y-2.8
X3.65Y-2.8
X3.75Y-2.8
X0.25Y-1.2
X0.35Y-1.2
X0.45Y-1.2
X0.55Y-1.2
X0.65Y-1.2
X0.75Y-1.2
X0.85Y-1.2
X0.95Y-1.2
X1.05Y-1.2
X1.15Y-2.2
X1.25Y-2.2
X1.35Y-2.2
X1.45Y-2.2
X1.55Y-2.2
X1.65Y-2.2
X1.75Y-2.2
X1.85Y-2.2
X1.95Y-2.2
X2.05Y-1.9
X2.15Y-1.9
X2.25Y-1.9
X2.35Y-1.9
X2.45Y-1.9
X2.55Y-1.9
X2.65Y-1.9
X2.75Y-1.9
X2.85Y-1.9
X0.25Y-3.5
X0.35Y-3.5
X0.45Y-3.5
X0.55Y-3.5
X0.65Y-3.5
X0.75Y-3.5
X0.85Y-3.5
X0.95Y-3.5
X1.05Y-3.5
X2.05Y-1.6
X2.15Y-1.6
X2.25Y-1.6
X2.35Y-1.6
X2.45Y-1.6
X2.55Y-1.6
X2.65Y-1.6
X2.75Y-1.6
X2.85Y-1.6
X0.25Y-3.0
X0.35Y-3.0
X0.45Y-3.0
X0.55Y-3.0
X0.65Y-3.0
X0.75Y-3.0
X0.85Y-3.0
X0.95Y-3.0
X1.05Y-3.0
X2.05Y-2.3
X2.15Y-2.3
X2.25Y-2.3
X2.35Y-2.3
X2.45Y-2.3
X2.55Y-2.3
X2.65Y-2.3
X2.75Y-2.3
X2.85Y-2.3
X0.25Y-3.3
X0.35Y-3.3
X0.45Y-3.3
X0.55Y-3.3
X0.65Y-3.3
X0.75Y-3.3
X0.85Y-3.3
X0.95Y-3.3
X1.05Y-3.3
X0.25Y-2.5
X0.35Y-2.5
X0.45Y-2.5
X0.55Y-2.5
X0.65Y-2.5
X0.75Y-2.5
X0.85Y-2.5
X0.95Y-2.5
X1.05Y-2.5
X0.25Y-1.6
X0.35Y-1.6
X0.45Y-1.6
X0.55Y-1.6
X0.65Y-1.6
X0.75Y-1.6
X0.85Y-1.6
X0.95Y-1.6
X1.05Y-1.6
X0.25Y-0.6
X0.25Y-0.7
X0.35Y-0.6
X0.35Y-0.7
X0.45Y-0.6
X0.45Y-0.7
X0.55Y-0.6
X0.55Y-0.7
X0.65Y-0.6
X0.65Y-0.7
X0.75Y-0.6
X0.75Y-0.7
X0.85Y-0.6
X0.85Y-0.7
X0.95Y-0.6
X0.95Y-0.7
X1.05Y-0.6
X1.05Y-0.7
X1.15Y-3.4
X1.25Y-3.4
X1.35Y-3.4
X1.45Y-3.4
X1.55Y-3.4
X1.65Y-3.4
X1.75Y-3.4
X1.85Y-3.4
X1.95Y-3.4
X2.95Y-0.9
X3.05Y-0.9
X3.15Y-0.9
X3.25Y-0.9
X3.35Y-0.9
X3.45Y-0.9
X3.55Y-0.9
X3.65Y-0.9
X3.75Y-0.9
X0.25Y-1.2
X0.35Y-1.2
X0.45Y-1.2
X0.55Y-1.2
X0.65Y-1.2
X0.75Y-1.2
X0.85Y-1.2
X0.95Y-1.2
X1.05Y-1.2
X2.05Y-3.1
X2.15Y-3.1
X2.25Y-3.1
X2.35Y-3.1
X2.45Y-3.1
X2.55Y-3.1
X2.65Y-3.1
X2.75Y-3.1
X2.85Y-3.1
X1.15Y-1.9
X1.25Y-1.9
X1.35Y-1.9
X1.45Y-1.9
X1.55Y-1.9
X1.65Y-1.9
X1.75Y-1.9
X1.85Y-1.9
X1.95Y-1.9
X2.95Y-2.1
X3.05Y-2.1
X3.15Y-2.1
X3.25Y-2.1
X3.35Y-2.1
X3.45Y-2.1
X3.55Y-2.1
X3.65Y-2.1
X3.75Y-2.1
X2.95Y-2.7
X3.05Y-2.7
X3.15Y-2.7
X3.25Y-2.7
X3.35Y-2.7
X3.45Y-2.7
X3.55Y-2.7
X3.65Y-2.7
X3.75Y-2.7
X0.25Y-1.3
X0.35Y-1.3
X0.45Y-1.3
X0.55Y-1.3
X0.65Y-1.3
X0.75Y-1.3
X0.85Y-1.3
X0.95Y-1.3
X1.05Y-1.3
X2.05Y-1.8
X2.15Y-1.8
X2.25Y-1.8
X2.35Y-1.8
X2.45Y-1.8
X2.55Y-1.8
X2.65Y-1.8
X2.75Y-1.8
X2.85Y-1.8
X2.05Y-1.7
X2.15Y-1.7
X2.25Y-1.7
X2.35Y-1.7
X2.45Y-1.7
X2.55Y-1.7
X2.65Y-1.7
X2.75Y-1.7
X2.85Y-1.7
X0.25Y-3.4
X0.35Y-3.4
X0.45Y-3.4
X0.55Y-3.4
X0.65Y-3.4
X0.75Y-3.4
X0.85Y-3.4
X0.95Y-3.4
X1.05Y-3.4
X0.25Y-1.5
X0.35Y-1.5
X0.45Y-1.5
X0.55Y-1.5
X0.65Y-1.5
X0.75Y-1.5
X0.85Y-1.5
X0.95Y-1.5
X1.05Y-1.5
X1.15Y-3.5
X1.25Y-3.5
X1.35Y-3.5
X1.45Y-3.5
X1.55Y-3.5
X1.65Y-3.5
X1.75Y-3.5
X1.85Y-3.5
X1.95Y-3.5
X2.95Y-3.0
X3.05Y-3.0
X3.15Y-3.0
X3.25Y-3.0
X3.35Y-3.0
X3.45Y-3.0
X3.55Y-3.0
X3.65Y-3.0
X3.75Y-3.0
X0.25Y-2.2
X0.35Y-2.2
X0.45Y-2.2
X0.55Y-2.2
X0.65Y-2.2
X0.75Y-2.2
X0.85Y-2.2
X0.95Y-2.2
X1.05Y-2.2
X2.05Y-3.2
X2.15Y-3.2
X2.25Y-3.2
X2.35Y-3.2
X2.45Y-3.2
X2.55Y-3.2
X2.65Y-3.2
X2.75Y-3.2
X2.85Y-3.2
X2.05Y-0.8
X2.15Y-0.8
X2.25Y-0.8
X2.35Y-0.8
X2.45Y-0.8
X2.55Y-0.8
X2.65Y-0.8
X2.75Y-0.8
X2.85Y-0.8
X1.15Y-3.7
X1.15Y-3.8
X0.25Y-1.1
X0.35Y-1.1
X0.45Y-1.1
X0.55Y-1.1
X0.65Y-1.1
X0.75Y-1.1
X0.85Y-1.1
X0.95Y-1.1
X1.05Y-1.1
X1.15Y-2.4
X1.25Y-2.4
X1.35Y-2.4
X1.45Y-2.4
X1.55Y-2.4
X1.65Y-2.4
X1.75Y-2.4
X1.85Y-2.4
X1.95Y-2.4
X3.45Y-3.7
X3.45Y-3.8
X2.05Y-2.1
X2.15Y-2.1
X2.25Y-2.1
X2.35Y-2.1
X2.45Y-2.1
X2.55Y-2.1
X2.65Y-2.1
X2.75Y-2.1
X2.85Y-2.1
X1.15Y-2.8
X1.25Y-2.8
X1.35Y-2.8
X1.45Y-2.8
X1.55Y-2.8
X1.65Y-2.8
X1.75Y-2.8
X1.85Y-2.8
X1.95Y-2.8
X2.95Y-1.2
X3.05Y-1.2
X3.15Y-1.2
X3.25Y-1.2
X3.35Y-1.2
X3.45Y-1.2
X3.55Y-1.2
X3.65Y-1.2
X3.75Y-1.2
X0.25Y-2.3
X0.35Y-2.3
X0.45Y-2.3
X0.55Y-2.3
X0.65Y-2.3
X0.75Y-2.3
X0.85Y-2.3
X0.95Y-2.3
X1.05Y-2.3
X2.85Y-3.7
X2.85Y-3.8
X1.15Y-1.7
X1.25Y-1.7
X1.35Y-1.7
X1.45Y-1.7
X1.55Y-1.7
X1.65Y-1.7
X1.75Y-1.7
X1.85Y-1.7
X1.95Y-1.7
X2.05Y-2.0
X2.15Y-2.0
X2.25Y-2.0
X2.35Y-2.0
X2.45Y-2.0
X2.55Y-2.0
X2.65Y-2.0
X2.75Y-2.0
X2.85Y-2.0
X2.05Y-1.2
X2.15Y-1.2
X2.25Y-1.2
X2.35Y-1.2
X2.45Y-1.2
X2.55Y-1.2
X2.65Y-1.2
X2.75Y-1.2
X2.85Y-1.2
X1.25Y-3.7
X1.25Y-3.8
X0.25Y-1.9
X0.35Y-1.9
X0.45Y-1.9
X0.55Y-1.9
X0.65Y-1.9
X0.75Y-1.9
X0.85Y-1.9
X0.95Y-1.9
X1.05Y-1.9
X2.95Y-0.8
X3.05Y-0.8
X3.15Y-0.8
X3.25Y-0.8
X3.35Y-0.8
X3.45Y-0.8
X3.55Y-0.8
X3.65Y-0.8
X3.75Y-0.8
X3.55Y-3.7
X3.55Y-3.8
X0.25Y-2.2
X0.35Y-2.2
X0.45Y-2.2
X0.55Y-2.2
X0.65Y-2.2
X0.75Y-2.2
X0.85Y-2.2
X0.95Y-2.2
X1.05Y-2.2
X2.95Y-3.2
X3.05Y-3.2
X3.15Y-3.2
X3.25Y-3.2
X3.35Y-3.2
X3.45Y-3.2
X3.55Y-3.2
X3.65Y-3.2
X3.75Y-3.2
X2.05Y-0.9
X2.15Y-0.9
X2.25Y-0.9
X2.35Y-0.9
X2.45Y-0.9
X2.55Y-0.9
X2.65Y-0.9
X2.75Y-0.9
X2.85Y-0.9
X3.25Y-3.7
X3.25Y-3.8
X0.25Y-2.6
X0.35Y-2.6
X0.45Y-2.6
X0.55Y-2.6
X0.65Y-2.6
X0.75Y-2.6
X0.85Y-2.6
X0.95Y-2.6
X1.05Y-2.6
X1.15Y-1.8
X1.25Y-1.8
X1.35Y-1.8
X1.45Y-1.8
X1.55Y-1.8
X1.65Y-1.8
X1.75Y-1.8
X1.85Y-1.8
X1.95Y-1.8
X2.95Y-3.7
X2.95Y-3.8
X0.25Y-3.3
X0.35Y-3.3
X0.45Y-3.3
X0.55Y-3.3
X0.65Y-3.3
X0.75Y-3.3
X0.85Y-3.3
X0.95Y-3.3
X1.05Y-3.3
X2.05Y-1.5
X2.15Y-1.5
X2.25Y-1.5
X2.35Y-1.5
X2.45Y-1.5
X2.55Y-1.5
X2.65Y-1.5
X2.75Y-1.5
X2.85Y-1.5
X2.65Y-3.7
X2.65Y-3.8
X0.25Y-1.4
X0.35Y-1.4
X0.45Y-1.4
X0.55Y-1.4
X0.65Y-1.4
X0.75Y-1.4
X0.85Y-1.4
X0.95Y-1.4
X1.05Y-1.4
X2.95Y-1.4
X3.05Y-1.4
X3.15Y-1.4
X3.25Y-1.4
X3.35Y-1.4
X3.45Y-1.4
X3.55Y-1.4
X3.65Y-1.4
X3.75Y-1.4
X1.15Y-0.8
X1.25Y-0.8
X1.35Y-0.8
X1.45Y-0.8
X1.55Y-0.8
X1.65Y-0.8
X1.75Y-0.8
X1.85Y-0.8
X1.95Y-0.8
X0.25Y-1.7
X0.35Y-1.7
X0.45Y-1.7
X0.55Y-1.7
X0.65Y-1.7
X0.75Y-1.7
X0.85Y-1.7
X0.95Y-1.7
X1.05Y-1.7
X2.05Y-2.7
X2.15Y-2.7
X2.25Y-2.7
X2.35Y-2.7
X2.45Y-2.7
X2.55Y-2.7
X2.65Y-2.7
X2.75Y-2.7
X2.85Y-2.7
X2.05Y-1.0
X2.15Y-1.0
X2.25Y-1.0
X2.35Y-1.0
X2.45Y-1.0
X2.55Y-1.0
X2.65Y-1.0
X2.75Y-1.0
X2.85Y-1.0
X0.25Y-2.7
X0.35Y-2.7
X0.45Y-2.7
X0.55Y-2.7
X0.65Y-2.7
X0.75Y-2.7
X0.85Y-2.7
X0.95Y-2.7
X1.05Y-2.7
X3.35Y-3.7
X3.35Y-3.8
X2.05Y-1.3
X2.15Y-1.3
X2.25Y-1.3
X2.35Y-1.3
X2.45Y-1.3
X2.55Y-1.3
X2.65Y-1.3
X2.75Y-1.3
X2.85Y-1.3
X2.05Y-1.4
X2.15Y-1.4
X2.25Y-1.4
X2.35Y-1.4
X2.45Y-1.4
X2.55Y-1.4
X2.65Y-1.4
X2.75Y-1.4
X2.85Y-1.4
X3.05Y-3.7
X3.05Y-3.8
X2.95Y-0.6
X2.95Y-0.7
X3.05Y-0.6
X3.05Y-0.7
X3.15Y-0.6
X3.15Y-0.7
X3.25Y-0.6
X3.25Y-0.7
X3.35Y-0.6
X3.35Y-0.7
X3.45Y-0.6
X3.45Y-0.7
X3.55Y-0.6
X3.55Y-0.7
X3.65Y-0.6
X3.65Y-0.7
X3.75Y-0.6
X3.75Y-0.7
X2.75Y-3.7
X2.75Y-3.8
X0.25Y-2.4
X0.35Y-2.4
X0.45Y-2.4
X0.55Y-2.4
X0.65Y-2.4
X0.75Y-2.4
X0.85Y-2.4
X0.95Y-2.4
X1.05Y-2.4
X1.15Y-3.1
X1.25Y-3.1
X1.35Y-3.1
X1.45Y-3.1
X1.55Y-3.1
X1.65Y-3.1
X1.75Y-3.1
X1.85Y-3.1
X1.95Y-3.1
X1.15Y-1.2
X1.25Y-1.2
X1.35Y-1.2
X1.45Y-1.2
X1.55Y-1.2
X1.65Y-1.2
X1.75Y-1.2
X1.85Y-1.2
X1.95Y-1.2
X0.25Y-1.8
X0.35Y-1.8
X0.45Y-1.8
X0.55Y-1.8
X0.65Y-1.8
X0.75Y-1.8
X0.85Y-1.8
X0.95Y-1.8
X1.05Y-1.8
X0.25Y-2.0
X0.35Y-2.0
X0.45Y-2.0
X0.55Y-2.0
X0.65Y-2.0
X0.75Y-2.0
X0.85Y-2.0
X0.95Y-2.0
X1.05Y-2.0
X2.05Y-1.1
X2.15Y-1.1
X2.25Y-1.1
X2.35Y-1.1
X2.45Y-1.1
X2.55Y-1.1
X2.65Y-1.1
X2.75Y-1.1
X2.85Y-1.1
X2.45Y-3.7
X2.45Y-3.8
X0.25Y-0.8
X0.35Y-0.8
X0.45Y-0.8
X0.55Y-0.8
X0.65Y-0.8
X0.75Y-0.8
X0.85Y-0.8
X0.95Y-0.8
X1.05Y-0.8
X2.05Y-1.3
X2.15Y-1.3
X2.25Y-1.3
X2.35Y-1.3
X2.45Y-1.3
X2.55Y-1.3
X2.65Y-1.3
X2.75Y-1.3
X2.85Y-1.3
X2.95Y-1.6
X3.05Y-1.6
X3.15Y-1.6
X3.25Y-1.6
X3.35Y-1.6
X3.45Y-1.6
X3.55Y-1.6
X3.65Y-1.6
X3.75Y-1.6
X0.35Y-3.7
X0.35Y-3.8
X0.25Y-0.9
X0.35Y-0.9
X0.45Y-0.9
X0.55Y-0.9
X0.65Y-0.9
X0.75Y-0.9
X0.85Y-0.9
X0.95Y-0.9
X1.05Y-0.9
X3.15Y-3.7
X3.15Y-3.8
X2.05Y-2.5
X2.15Y-2.5
X2.25Y-2.5
X2.35Y-2.5
X2.45Y-2.5
X2.55Y-2.5
X2.65Y-2.5
X2.75Y-2.5
X2.85Y-2.5
X1.15Y-3.2
X1.25Y-3.2
X1.35Y-3.2
X1.45Y-3.2
X1.55Y-3.2
X1.65Y-3.2
X1.75Y-3.2
X1.85Y-3.2
X1.95Y-3.2
X2.95Y-3.3
X3.05Y-3.3
X3.15Y-3.3
X3.25Y-3.3
X3.35Y-3.3
X3.45Y-3.3
X3.55Y-3.3
X3.65Y-3.3
X3.75Y-3.3
X0.25Y-1.4
X0.35Y-1.4
X0.45Y-1.4
X0.55Y-1.4
X0.65Y-1.4
X0.75Y-1.4
X0.85Y-1.4
X0.95Y-1.4
X1.05Y-1.4
X2.95Y-2.3
X3.05Y-2.3
X3.15Y-2.3
X3.25Y-2.3
X3.35Y-2.3
X3.45Y-2.3
X3.55Y-2.3
X3.65Y-2.3
X3.75Y-2.3
X2.55Y-3.7
X2.55Y-3.8
X1.15Y-2.1
X1.25Y-2.1
X1.35Y-2.1
X1.45Y-2.1
X1.55Y-2.1
X1.65Y-2.1
X1.75Y-2.1
X1.85Y-2.1
X1.95Y-2.1
X0.25Y-3.4
X0.35Y-3.4
X0.45Y-3.4
X0.55Y-3.4
X0.65Y-3.4
X0.75Y-3.4
X0.85Y-3.4
X0.95Y-3.4
X1.05Y-3.4
X2.05Y-1.6
X2.15Y-1.6
X2.25Y-1.6
X2.35Y-1.6
X2.45Y-1.6
X2.55Y-1.6
X2.65Y-1.6
X2.75Y-1.6
X2.85Y-1.6
X0.25Y-3.0
X0.35Y-3.0
X0.45Y-3.0
X0.55Y-3.0
X0.65Y-3.0
X0.75Y-3.0
X0.85Y-3.0
X0.95Y-3.0
X1.05Y-3.0
X1.15Y-2.5
X1.25Y-2.5
X1.35Y-2.5
X1.45Y-2.5
X1.55Y-2.5
X1.65Y-2.5
X1.75Y-2.5
X1.85Y-2.5
X1.95Y-2.5
X2.95Y-1.5
X3.05Y-1.5
X3.15Y-1.5
X3.25Y-1.5
X3.35Y-1.5
X3.45Y-1.5
X3.55Y-1.5
X3.65Y-1.5
X3.75Y-1.5
X1.15Y-1.0
X1.25Y-1.0
X1.35Y-1.0
X1.45Y-1.0
X1.55Y-1.0
X1.65Y-1.0
X1.75Y-1.0
X1.85Y-1.0
X1.95Y-1.0
X0.25Y-2.6
X0.35Y-2.6
X0.45Y-2.6
X0.55Y-2.6
X0.65Y-2.6
X0.75Y-2.6
X0.85Y-2.6
X0.95Y-2.6
X1.05Y-2.6
X0.95Y-3.7
X0.95Y-3.8
X0.25Y-1.7
X0.35Y-1.7
X0.45Y-1.7
X0.55Y-1.7
X0.65Y-1.7
X0.75Y-1.7
X0.85Y-1.7
X0.95Y-1.7
X1.05Y-1.7
X2.05Y-2.6
X2.15Y-2.6
X2.25Y-2.6
X2.35Y-2.6
X2.45Y-2.6
X2.55Y-2.6
X2.65Y-2.6
X2.75Y-2.6
X2.85Y-2.6
X1.15Y-3.3
X1.25Y-3.3
X1.35Y-3.3
X1.45Y-3.3
X1.55Y-3.3
X1.65Y-3.3
X1.75Y-3.3
X1.85Y-3.3
X1.95Y-3.3
X0.45Y-3.7
X0.45Y-3.8
X0.25Y-1.0
X0.35Y-1.0
X0.45Y-1.0
X0.55Y-1.0
X0.65Y-1.0
X0.75Y-1.0
X0.85Y-1.0
X0.95Y-1.0
X1.05Y-1.0
X0.25Y-2.0
X0.35Y-2.0
X0.45Y-2.0
X0.55Y-2.0
X0.65Y-2.0
X0.75Y-2.0
X0.85Y-2.0
X0.95Y-2.0
X1.05Y-2.0
X2.05Y-3.0
X2.15Y-3.0
X2.25Y-3.0
X2.35Y-3.0
X2.45Y-3.0
X2.55Y-3.0
X2.65Y-3.0
X2.75Y-3.0
X2.85Y-3.0
X2.95Y-2.2
X3.05Y-2.2
X3.15Y-2.2
X3.25Y-2.2
X3.35Y-2.2
X3.45Y-2.2
X3.55Y-2.2
X3.65Y-2.2
X3.75Y-2.2
X2.05Y-1.9
X2.15Y-1.9
X2.25Y-1.9
X2.35Y-1.9
X2.45Y-1.9
X2.55Y-1.9
X2.65Y-1.9
X2.75Y-1.9
X2.85Y-1.9
X2.05Y-3.4
X2.15Y-3.4
X2.25Y-3.4
X2.35Y-3.4
X2.45Y-3.4
X2.55Y-3.4
X2.65Y-3.4
X2.75Y-3.4
X2.85Y-3.4
T0
M30
